G04 #@! TF.GenerationSoftware,KiCad,Pcbnew,5.0.2-bee76a0~70~ubuntu18.04.1*
G04 #@! TF.CreationDate,2020-10-08T15:31:19+02:00*
G04 #@! TF.ProjectId,TLI5012B,544c4935-3031-4324-922e-6b696361645f,rev?*
G04 #@! TF.SameCoordinates,Original*
G04 #@! TF.FileFunction,Soldermask,Bot*
G04 #@! TF.FilePolarity,Negative*
%FSLAX46Y46*%
G04 Gerber Fmt 4.6, Leading zero omitted, Abs format (unit mm)*
G04 Created by KiCad (PCBNEW 5.0.2-bee76a0~70~ubuntu18.04.1) date Do 08 Okt 2020 15:31:19 CEST*
%MOMM*%
%LPD*%
G01*
G04 APERTURE LIST*
%ADD10C,0.100000*%
G04 APERTURE END LIST*
D10*
G36*
X129830122Y-90478026D02*
X129962073Y-90518053D01*
X130083679Y-90583053D01*
X130190268Y-90670528D01*
X130277743Y-90777117D01*
X130342743Y-90898723D01*
X130382770Y-91030674D01*
X130396285Y-91167898D01*
X130389949Y-91232230D01*
X130389949Y-91256726D01*
X130394729Y-91280760D01*
X130404107Y-91303399D01*
X130417721Y-91323773D01*
X130435048Y-91341100D01*
X130455423Y-91354714D01*
X130478062Y-91364092D01*
X130502095Y-91368872D01*
X130526591Y-91368872D01*
X130556533Y-91365923D01*
X130625313Y-91365923D01*
X130728147Y-91376051D01*
X130860098Y-91416078D01*
X130981704Y-91481078D01*
X131088293Y-91568553D01*
X131175768Y-91675142D01*
X131240768Y-91796748D01*
X131280795Y-91928699D01*
X131294310Y-92065923D01*
X131287974Y-92130255D01*
X131287974Y-92154752D01*
X131292755Y-92178786D01*
X131302132Y-92201425D01*
X131315746Y-92221799D01*
X131333073Y-92239126D01*
X131353448Y-92252740D01*
X131376087Y-92262118D01*
X131400120Y-92266898D01*
X131424617Y-92266898D01*
X131454559Y-92263949D01*
X131523339Y-92263949D01*
X131626173Y-92274077D01*
X131758124Y-92314104D01*
X131879730Y-92379104D01*
X131986319Y-92466579D01*
X132073794Y-92573168D01*
X132138794Y-92694774D01*
X132178821Y-92826725D01*
X132192336Y-92963949D01*
X132186000Y-93028281D01*
X132186000Y-93052777D01*
X132190780Y-93076811D01*
X132200158Y-93099450D01*
X132213772Y-93119824D01*
X132231099Y-93137151D01*
X132251474Y-93150765D01*
X132274113Y-93160143D01*
X132298146Y-93164923D01*
X132322642Y-93164923D01*
X132352584Y-93161974D01*
X132421364Y-93161974D01*
X132524198Y-93172102D01*
X132656149Y-93212129D01*
X132777755Y-93277129D01*
X132884344Y-93364604D01*
X132971819Y-93471193D01*
X133036819Y-93592799D01*
X133075302Y-93719661D01*
X133084674Y-93742285D01*
X133098288Y-93762659D01*
X133115615Y-93779986D01*
X133135989Y-93793600D01*
X133158628Y-93802978D01*
X133182662Y-93807758D01*
X133207166Y-93807758D01*
X133231200Y-93802978D01*
X133253839Y-93793600D01*
X133274213Y-93779986D01*
X133283302Y-93771748D01*
X133285000Y-93770050D01*
X134274950Y-94760000D01*
X133285000Y-95749950D01*
X132295050Y-94760000D01*
X132296748Y-94758302D01*
X132312294Y-94739360D01*
X132323845Y-94717749D01*
X132330958Y-94694300D01*
X132333360Y-94669914D01*
X132330958Y-94645528D01*
X132323845Y-94622079D01*
X132312294Y-94600468D01*
X132296748Y-94581526D01*
X132277806Y-94565980D01*
X132256195Y-94554429D01*
X132244677Y-94550307D01*
X132117799Y-94511819D01*
X131996193Y-94446819D01*
X131889604Y-94359344D01*
X131802129Y-94252755D01*
X131737129Y-94131149D01*
X131697102Y-93999198D01*
X131683587Y-93861974D01*
X131689923Y-93797642D01*
X131689923Y-93773146D01*
X131685143Y-93749112D01*
X131675765Y-93726473D01*
X131662151Y-93706099D01*
X131644824Y-93688772D01*
X131624449Y-93675158D01*
X131601810Y-93665780D01*
X131577777Y-93661000D01*
X131553281Y-93661000D01*
X131523339Y-93663949D01*
X131454559Y-93663949D01*
X131351725Y-93653821D01*
X131219774Y-93613794D01*
X131098168Y-93548794D01*
X130991579Y-93461319D01*
X130904104Y-93354730D01*
X130839104Y-93233124D01*
X130799077Y-93101173D01*
X130785562Y-92963949D01*
X130791898Y-92899617D01*
X130791898Y-92875120D01*
X130787117Y-92851086D01*
X130777740Y-92828447D01*
X130764126Y-92808073D01*
X130746799Y-92790746D01*
X130726424Y-92777132D01*
X130703785Y-92767754D01*
X130679752Y-92762974D01*
X130655255Y-92762974D01*
X130625313Y-92765923D01*
X130556533Y-92765923D01*
X130453699Y-92755795D01*
X130321748Y-92715768D01*
X130200142Y-92650768D01*
X130093553Y-92563293D01*
X130006078Y-92456704D01*
X129941078Y-92335098D01*
X129901051Y-92203147D01*
X129887536Y-92065923D01*
X129893872Y-92001591D01*
X129893872Y-91977095D01*
X129889092Y-91953061D01*
X129879714Y-91930422D01*
X129866100Y-91910048D01*
X129848773Y-91892721D01*
X129828398Y-91879107D01*
X129805759Y-91869729D01*
X129781726Y-91864949D01*
X129757230Y-91864949D01*
X129727288Y-91867898D01*
X129658508Y-91867898D01*
X129555674Y-91857770D01*
X129423723Y-91817743D01*
X129302117Y-91752743D01*
X129195528Y-91665268D01*
X129108053Y-91558679D01*
X129043053Y-91437073D01*
X129003026Y-91305122D01*
X128989511Y-91167898D01*
X129003026Y-91030674D01*
X129043053Y-90898723D01*
X129108053Y-90777117D01*
X129195528Y-90670528D01*
X129302117Y-90583053D01*
X129423723Y-90518053D01*
X129555674Y-90478026D01*
X129658508Y-90467898D01*
X129727288Y-90467898D01*
X129830122Y-90478026D01*
X129830122Y-90478026D01*
G37*
G36*
X138178767Y-91953061D02*
X138310041Y-91979173D01*
X138637620Y-92114861D01*
X138660648Y-92130248D01*
X138932436Y-92311851D01*
X139183149Y-92562564D01*
X139183151Y-92562567D01*
X139380139Y-92857380D01*
X139515827Y-93184959D01*
X139525408Y-93233127D01*
X139585000Y-93532714D01*
X139585000Y-93887286D01*
X139562739Y-93999198D01*
X139515827Y-94235041D01*
X139380139Y-94562620D01*
X139308447Y-94669914D01*
X139183149Y-94857436D01*
X138932436Y-95108149D01*
X138932433Y-95108151D01*
X138637620Y-95305139D01*
X138310041Y-95440827D01*
X138194122Y-95463885D01*
X137962286Y-95510000D01*
X137607714Y-95510000D01*
X137375878Y-95463885D01*
X137259959Y-95440827D01*
X136932380Y-95305139D01*
X136637567Y-95108151D01*
X136637564Y-95108149D01*
X136386851Y-94857436D01*
X136261553Y-94669914D01*
X136189861Y-94562620D01*
X136054173Y-94235041D01*
X136007261Y-93999198D01*
X135985000Y-93887286D01*
X135985000Y-93532714D01*
X136044592Y-93233127D01*
X136054173Y-93184959D01*
X136189861Y-92857380D01*
X136386849Y-92562567D01*
X136386851Y-92562564D01*
X136637564Y-92311851D01*
X136909352Y-92130248D01*
X136932380Y-92114861D01*
X137259959Y-91979173D01*
X137391233Y-91953061D01*
X137607714Y-91910000D01*
X137962286Y-91910000D01*
X138178767Y-91953061D01*
X138178767Y-91953061D01*
G37*
G36*
X130844122Y-84606115D02*
X130960041Y-84629173D01*
X131287620Y-84764861D01*
X131578511Y-84959228D01*
X131582436Y-84961851D01*
X131833149Y-85212564D01*
X131833151Y-85212567D01*
X132026918Y-85502559D01*
X132030140Y-85507382D01*
X132165827Y-85834960D01*
X132235000Y-86182714D01*
X132235000Y-86537286D01*
X132215066Y-86637500D01*
X132165827Y-86885041D01*
X132030139Y-87212620D01*
X131921477Y-87375244D01*
X131833149Y-87507436D01*
X131582436Y-87758149D01*
X131582433Y-87758151D01*
X131287620Y-87955139D01*
X130960041Y-88090827D01*
X130844122Y-88113885D01*
X130612286Y-88160000D01*
X130257714Y-88160000D01*
X130025878Y-88113885D01*
X129909959Y-88090827D01*
X129582380Y-87955139D01*
X129287567Y-87758151D01*
X129287564Y-87758149D01*
X129036851Y-87507436D01*
X128948523Y-87375244D01*
X128839861Y-87212620D01*
X128704173Y-86885041D01*
X128654934Y-86637500D01*
X128635000Y-86537286D01*
X128635000Y-86182714D01*
X128704173Y-85834960D01*
X128839860Y-85507382D01*
X128843083Y-85502559D01*
X129036849Y-85212567D01*
X129036851Y-85212564D01*
X129287564Y-84961851D01*
X129291489Y-84959228D01*
X129582380Y-84764861D01*
X129909959Y-84629173D01*
X130025878Y-84606115D01*
X130257714Y-84560000D01*
X130612286Y-84560000D01*
X130844122Y-84606115D01*
X130844122Y-84606115D01*
G37*
G36*
X145544122Y-84606115D02*
X145660041Y-84629173D01*
X145987620Y-84764861D01*
X146278511Y-84959228D01*
X146282436Y-84961851D01*
X146533149Y-85212564D01*
X146533151Y-85212567D01*
X146726918Y-85502559D01*
X146730140Y-85507382D01*
X146865827Y-85834960D01*
X146935000Y-86182714D01*
X146935000Y-86537286D01*
X146915066Y-86637500D01*
X146865827Y-86885041D01*
X146730139Y-87212620D01*
X146621477Y-87375244D01*
X146533149Y-87507436D01*
X146282436Y-87758149D01*
X146282433Y-87758151D01*
X145987620Y-87955139D01*
X145660041Y-88090827D01*
X145544122Y-88113885D01*
X145312286Y-88160000D01*
X144957714Y-88160000D01*
X144725878Y-88113885D01*
X144609959Y-88090827D01*
X144282380Y-87955139D01*
X143987567Y-87758151D01*
X143987564Y-87758149D01*
X143736851Y-87507436D01*
X143648523Y-87375244D01*
X143539861Y-87212620D01*
X143404173Y-86885041D01*
X143354934Y-86637500D01*
X143335000Y-86537286D01*
X143335000Y-86182714D01*
X143404173Y-85834960D01*
X143539860Y-85507382D01*
X143543083Y-85502559D01*
X143736849Y-85212567D01*
X143736851Y-85212564D01*
X143987564Y-84961851D01*
X143991489Y-84959228D01*
X144282380Y-84764861D01*
X144609959Y-84629173D01*
X144725878Y-84606115D01*
X144957714Y-84560000D01*
X145312286Y-84560000D01*
X145544122Y-84606115D01*
X145544122Y-84606115D01*
G37*
G36*
X137045974Y-85424148D02*
X137080568Y-85434642D01*
X137112441Y-85451678D01*
X137140387Y-85474613D01*
X137163322Y-85502559D01*
X137180358Y-85534432D01*
X137190852Y-85569026D01*
X137195000Y-85611141D01*
X137195000Y-86218859D01*
X137190852Y-86260974D01*
X137180358Y-86295568D01*
X137159213Y-86335128D01*
X137155243Y-86341069D01*
X137145864Y-86363708D01*
X137141083Y-86387741D01*
X137141081Y-86412245D01*
X137145860Y-86436279D01*
X137155237Y-86458918D01*
X137159205Y-86464858D01*
X137180358Y-86504432D01*
X137190852Y-86539026D01*
X137195000Y-86581141D01*
X137195000Y-87188859D01*
X137190852Y-87230974D01*
X137180358Y-87265568D01*
X137163322Y-87297441D01*
X137140387Y-87325387D01*
X137112441Y-87348322D01*
X137080568Y-87365358D01*
X137045974Y-87375852D01*
X137003859Y-87380000D01*
X136346141Y-87380000D01*
X136304026Y-87375852D01*
X136269432Y-87365358D01*
X136237559Y-87348322D01*
X136209613Y-87325387D01*
X136186678Y-87297441D01*
X136169642Y-87265568D01*
X136159148Y-87230974D01*
X136155000Y-87188859D01*
X136155000Y-86581141D01*
X136159148Y-86539026D01*
X136169642Y-86504432D01*
X136190787Y-86464872D01*
X136194757Y-86458931D01*
X136204136Y-86436292D01*
X136208917Y-86412259D01*
X136208919Y-86387755D01*
X136204140Y-86363721D01*
X136194763Y-86341082D01*
X136190795Y-86335142D01*
X136169642Y-86295568D01*
X136159148Y-86260974D01*
X136155000Y-86218859D01*
X136155000Y-85611141D01*
X136159148Y-85569026D01*
X136169642Y-85534432D01*
X136186678Y-85502559D01*
X136209613Y-85474613D01*
X136237559Y-85451678D01*
X136269432Y-85434642D01*
X136304026Y-85424148D01*
X136346141Y-85420000D01*
X137003859Y-85420000D01*
X137045974Y-85424148D01*
X137045974Y-85424148D01*
G37*
G36*
X138194122Y-77256115D02*
X138310041Y-77279173D01*
X138637620Y-77414861D01*
X138928511Y-77609228D01*
X138932436Y-77611851D01*
X139183149Y-77862564D01*
X139380140Y-78157382D01*
X139515827Y-78484960D01*
X139585000Y-78832714D01*
X139585000Y-79187286D01*
X139515827Y-79535040D01*
X139380140Y-79862618D01*
X139183149Y-80157436D01*
X138932436Y-80408149D01*
X138932433Y-80408151D01*
X138637620Y-80605139D01*
X138310041Y-80740827D01*
X138194122Y-80763885D01*
X137962286Y-80810000D01*
X137607714Y-80810000D01*
X137375878Y-80763885D01*
X137259959Y-80740827D01*
X136932380Y-80605139D01*
X136637567Y-80408151D01*
X136637564Y-80408149D01*
X136386851Y-80157436D01*
X136189860Y-79862618D01*
X136054173Y-79535040D01*
X135985000Y-79187286D01*
X135985000Y-78832714D01*
X136054173Y-78484960D01*
X136189860Y-78157382D01*
X136386851Y-77862564D01*
X136637564Y-77611851D01*
X136641489Y-77609228D01*
X136932380Y-77414861D01*
X137259959Y-77279173D01*
X137375878Y-77256115D01*
X137607714Y-77210000D01*
X137962286Y-77210000D01*
X138194122Y-77256115D01*
X138194122Y-77256115D01*
G37*
M02*
