G04 #@! TF.GenerationSoftware,KiCad,Pcbnew,5.0.2-bee76a0~70~ubuntu18.04.1*
G04 #@! TF.CreationDate,2020-10-08T15:31:19+02:00*
G04 #@! TF.ProjectId,TLI5012B,544c4935-3031-4324-922e-6b696361645f,rev?*
G04 #@! TF.SameCoordinates,Original*
G04 #@! TF.FileFunction,Copper,L1,Top*
G04 #@! TF.FilePolarity,Positive*
%FSLAX46Y46*%
G04 Gerber Fmt 4.6, Leading zero omitted, Abs format (unit mm)*
G04 Created by KiCad (PCBNEW 5.0.2-bee76a0~70~ubuntu18.04.1) date Do 08 Okt 2020 15:31:19 CEST*
%MOMM*%
%LPD*%
G01*
G04 APERTURE LIST*
G04 #@! TA.AperFunction,SMDPad,CuDef*
%ADD10R,1.310000X0.650000*%
G04 #@! TD*
G04 #@! TA.AperFunction,ComponentPad*
%ADD11C,1.000000*%
G04 #@! TD*
G04 #@! TA.AperFunction,Conductor*
%ADD12C,0.100000*%
G04 #@! TD*
G04 #@! TA.AperFunction,Conductor*
%ADD13C,1.000000*%
G04 #@! TD*
G04 #@! TA.AperFunction,ViaPad*
%ADD14C,0.800000*%
G04 #@! TD*
G04 #@! TA.AperFunction,Conductor*
%ADD15C,0.152400*%
G04 #@! TD*
G04 #@! TA.AperFunction,Conductor*
%ADD16C,0.254000*%
G04 #@! TD*
G04 APERTURE END LIST*
D10*
G04 #@! TO.P,U1,2*
G04 #@! TO.N,/SCK*
X140630000Y-86995000D03*
G04 #@! TO.P,U1,1*
G04 #@! TO.N,/IFC*
X140630000Y-88265000D03*
G04 #@! TO.P,U1,4*
G04 #@! TO.N,/DATA*
X140630000Y-84455000D03*
G04 #@! TO.P,U1,3*
G04 #@! TO.N,/CSQ*
X140630000Y-85725000D03*
G04 #@! TO.P,U1,6*
G04 #@! TO.N,+5V*
X134940000Y-85725000D03*
G04 #@! TO.P,U1,5*
G04 #@! TO.N,/IFA*
X134940000Y-84455000D03*
G04 #@! TO.P,U1,7*
G04 #@! TO.N,GND*
X134940000Y-86995000D03*
G04 #@! TO.P,U1,8*
G04 #@! TO.N,/IFB*
X134940000Y-88265000D03*
G04 #@! TD*
D11*
G04 #@! TO.P,J1,1*
G04 #@! TO.N,/IFC*
X133285000Y-94760000D03*
D12*
G04 #@! TD*
G04 #@! TO.N,/IFC*
G04 #@! TO.C,J1*
G36*
X133285000Y-94052893D02*
X133992107Y-94760000D01*
X133285000Y-95467107D01*
X132577893Y-94760000D01*
X133285000Y-94052893D01*
X133285000Y-94052893D01*
G37*
D11*
G04 #@! TO.P,J1,2*
G04 #@! TO.N,/IFB*
X132386974Y-93861974D03*
D13*
G04 #@! TD*
G04 #@! TO.N,/IFB*
G04 #@! TO.C,J1*
X132386974Y-93861974D02*
X132386974Y-93861974D01*
D11*
G04 #@! TO.P,J1,3*
G04 #@! TO.N,/IFA*
X131488949Y-92963949D03*
D13*
G04 #@! TD*
G04 #@! TO.N,/IFA*
G04 #@! TO.C,J1*
X131488949Y-92963949D02*
X131488949Y-92963949D01*
D11*
G04 #@! TO.P,J1,4*
G04 #@! TO.N,GND*
X130590923Y-92065923D03*
D13*
G04 #@! TD*
G04 #@! TO.N,GND*
G04 #@! TO.C,J1*
X130590923Y-92065923D02*
X130590923Y-92065923D01*
D11*
G04 #@! TO.P,J1,5*
G04 #@! TO.N,+5V*
X129692898Y-91167898D03*
D13*
G04 #@! TD*
G04 #@! TO.N,+5V*
G04 #@! TO.C,J1*
X129692898Y-91167898D02*
X129692898Y-91167898D01*
D14*
G04 #@! TO.N,+5V*
X134940000Y-85725000D03*
G04 #@! TO.N,GND*
X134940000Y-86995000D03*
G04 #@! TO.N,/IFA*
X134940000Y-84455000D03*
G04 #@! TD*
D15*
G04 #@! TO.N,/IFB*
X134940000Y-88742400D02*
X133775000Y-89907400D01*
X134940000Y-88265000D02*
X134940000Y-88742400D01*
X133775000Y-92473948D02*
X132386974Y-93861974D01*
X133775000Y-89907400D02*
X133775000Y-92473948D01*
G04 #@! TO.N,/IFC*
X133709263Y-92970751D02*
X134079810Y-92600204D01*
X133285000Y-94760000D02*
X133709263Y-94335737D01*
X133709263Y-94335737D02*
X133709263Y-92970751D01*
X134079810Y-92600204D02*
X134079810Y-91605190D01*
X137420000Y-88265000D02*
X140630000Y-88265000D01*
X134079810Y-91605190D02*
X137420000Y-88265000D01*
G04 #@! TD*
D16*
G04 #@! TO.N,GND*
G36*
X139119713Y-75794660D02*
X140379333Y-76031529D01*
X141601372Y-76418010D01*
X142768131Y-76948503D01*
X143862707Y-77615325D01*
X144869246Y-78408816D01*
X145773168Y-79317483D01*
X146561378Y-80328163D01*
X147222459Y-81426216D01*
X147746836Y-82595736D01*
X148126913Y-83819783D01*
X148357184Y-85080625D01*
X148434313Y-86360000D01*
X148431977Y-86583022D01*
X148328072Y-87860501D01*
X148071446Y-89116245D01*
X147665819Y-90332064D01*
X147117064Y-91490346D01*
X146433132Y-92574313D01*
X145623928Y-93568264D01*
X144701176Y-94457801D01*
X143678240Y-95230039D01*
X142569939Y-95873792D01*
X141392326Y-96379734D01*
X140162460Y-96740537D01*
X138898156Y-96950975D01*
X137617728Y-97007999D01*
X136339722Y-96910784D01*
X135082652Y-96660737D01*
X133864726Y-96261481D01*
X132703587Y-95718799D01*
X131616053Y-95040551D01*
X130617879Y-94236563D01*
X129723523Y-93318481D01*
X129358490Y-92840172D01*
X129996279Y-92840172D01*
X130030721Y-93053039D01*
X130289046Y-93160055D01*
X130730731Y-93192292D01*
X130739146Y-93189505D01*
X130754771Y-93268056D01*
X130927033Y-93525865D01*
X131184842Y-93698127D01*
X131412187Y-93743349D01*
X131565711Y-93743349D01*
X131617969Y-93732954D01*
X131592305Y-93861974D01*
X131652796Y-94166081D01*
X131825058Y-94423890D01*
X132082867Y-94596152D01*
X132310212Y-94641374D01*
X132321126Y-94641374D01*
X132314705Y-94650984D01*
X132293020Y-94760000D01*
X132314705Y-94869016D01*
X132376457Y-94961436D01*
X133083564Y-95668543D01*
X133175984Y-95730295D01*
X133285000Y-95751980D01*
X133394016Y-95730295D01*
X133486436Y-95668543D01*
X134193543Y-94961436D01*
X134255295Y-94869016D01*
X134276980Y-94760000D01*
X134255295Y-94650984D01*
X134193543Y-94558564D01*
X134055053Y-94420074D01*
X134064863Y-94370757D01*
X134064863Y-94370753D01*
X134071828Y-94335738D01*
X134064863Y-94300723D01*
X134064863Y-93336164D01*
X135905600Y-93336164D01*
X135905600Y-94083836D01*
X136191721Y-94774595D01*
X136720405Y-95303279D01*
X137411164Y-95589400D01*
X138158836Y-95589400D01*
X138849595Y-95303279D01*
X139378279Y-94774595D01*
X139664400Y-94083836D01*
X139664400Y-93336164D01*
X139378279Y-92645405D01*
X138849595Y-92116721D01*
X138158836Y-91830600D01*
X137411164Y-91830600D01*
X136720405Y-92116721D01*
X136191721Y-92645405D01*
X135905600Y-93336164D01*
X134064863Y-93336164D01*
X134064863Y-93118045D01*
X134306497Y-92876411D01*
X134336182Y-92856577D01*
X134356017Y-92826892D01*
X134356020Y-92826889D01*
X134414777Y-92738952D01*
X134442376Y-92600204D01*
X134435410Y-92565184D01*
X134435410Y-91752484D01*
X137567295Y-88620600D01*
X139696214Y-88620600D01*
X139711812Y-88699016D01*
X139773564Y-88791436D01*
X139865984Y-88853188D01*
X139975000Y-88874873D01*
X141285000Y-88874873D01*
X141394016Y-88853188D01*
X141486436Y-88791436D01*
X141548188Y-88699016D01*
X141569873Y-88590000D01*
X141569873Y-87940000D01*
X141548188Y-87830984D01*
X141486436Y-87738564D01*
X141394016Y-87676812D01*
X141285000Y-87655127D01*
X139975000Y-87655127D01*
X139865984Y-87676812D01*
X139773564Y-87738564D01*
X139711812Y-87830984D01*
X139696214Y-87909400D01*
X137455020Y-87909400D01*
X137420000Y-87902434D01*
X137384980Y-87909400D01*
X137281252Y-87930033D01*
X137163627Y-88008627D01*
X137143791Y-88038314D01*
X134130600Y-91051506D01*
X134130600Y-90054694D01*
X135166686Y-89018609D01*
X135196373Y-88998773D01*
X135274967Y-88881148D01*
X135276215Y-88874873D01*
X135595000Y-88874873D01*
X135704016Y-88853188D01*
X135796436Y-88791436D01*
X135858188Y-88699016D01*
X135879873Y-88590000D01*
X135879873Y-87940000D01*
X135870560Y-87893179D01*
X135954699Y-87858327D01*
X136133327Y-87679698D01*
X136230000Y-87446309D01*
X136230000Y-87280750D01*
X136071250Y-87122000D01*
X135067000Y-87122000D01*
X135067000Y-87142000D01*
X134813000Y-87142000D01*
X134813000Y-87122000D01*
X133808750Y-87122000D01*
X133650000Y-87280750D01*
X133650000Y-87446309D01*
X133746673Y-87679698D01*
X133925301Y-87858327D01*
X134009440Y-87893179D01*
X134000127Y-87940000D01*
X134000127Y-88590000D01*
X134021812Y-88699016D01*
X134083564Y-88791436D01*
X134175984Y-88853188D01*
X134285000Y-88874873D01*
X134304632Y-88874873D01*
X133548315Y-89631191D01*
X133518627Y-89651028D01*
X133498791Y-89680715D01*
X133498790Y-89680716D01*
X133440033Y-89768653D01*
X133412434Y-89907400D01*
X133419400Y-89942420D01*
X133419401Y-92326653D01*
X132630340Y-93115714D01*
X132463736Y-93082574D01*
X132310212Y-93082574D01*
X132257954Y-93092969D01*
X132283618Y-92963949D01*
X132223127Y-92659842D01*
X132050865Y-92402033D01*
X131793056Y-92229771D01*
X131714505Y-92214146D01*
X131717292Y-92205731D01*
X131685055Y-91764046D01*
X131578039Y-91505721D01*
X131365172Y-91471279D01*
X130770528Y-92065923D01*
X130784671Y-92080066D01*
X130605066Y-92259671D01*
X130590923Y-92245528D01*
X129996279Y-92840172D01*
X129358490Y-92840172D01*
X128945939Y-92299602D01*
X128296393Y-91194687D01*
X128284717Y-91167898D01*
X128898229Y-91167898D01*
X128958720Y-91472005D01*
X129130982Y-91729814D01*
X129388791Y-91902076D01*
X129467341Y-91917701D01*
X129464554Y-91926115D01*
X129496791Y-92367800D01*
X129603807Y-92626125D01*
X129816674Y-92660567D01*
X130411318Y-92065923D01*
X130397176Y-92051781D01*
X130576781Y-91872176D01*
X130590923Y-91886318D01*
X131185567Y-91291674D01*
X131151125Y-91078807D01*
X130892800Y-90971791D01*
X130451115Y-90939554D01*
X130442701Y-90942341D01*
X130427076Y-90863791D01*
X130254814Y-90605982D01*
X129997005Y-90433720D01*
X129769660Y-90388498D01*
X129616136Y-90388498D01*
X129388791Y-90433720D01*
X129130982Y-90605982D01*
X128958720Y-90863791D01*
X128898229Y-91167898D01*
X128284717Y-91167898D01*
X127784291Y-90019740D01*
X127417054Y-88791780D01*
X127199999Y-87528595D01*
X127136271Y-86248483D01*
X127154844Y-85986164D01*
X128555600Y-85986164D01*
X128555600Y-86733836D01*
X128841721Y-87424595D01*
X129370405Y-87953279D01*
X130061164Y-88239400D01*
X130808836Y-88239400D01*
X131499595Y-87953279D01*
X132028279Y-87424595D01*
X132314400Y-86733836D01*
X132314400Y-86543691D01*
X133650000Y-86543691D01*
X133650000Y-86709250D01*
X133808750Y-86868000D01*
X134813000Y-86868000D01*
X134813000Y-86848000D01*
X135067000Y-86848000D01*
X135067000Y-86868000D01*
X136071250Y-86868000D01*
X136230000Y-86709250D01*
X136230000Y-86670000D01*
X139690127Y-86670000D01*
X139690127Y-87320000D01*
X139711812Y-87429016D01*
X139773564Y-87521436D01*
X139865984Y-87583188D01*
X139975000Y-87604873D01*
X141285000Y-87604873D01*
X141394016Y-87583188D01*
X141486436Y-87521436D01*
X141548188Y-87429016D01*
X141569873Y-87320000D01*
X141569873Y-86670000D01*
X141548188Y-86560984D01*
X141486436Y-86468564D01*
X141394016Y-86406812D01*
X141285000Y-86385127D01*
X139975000Y-86385127D01*
X139865984Y-86406812D01*
X139773564Y-86468564D01*
X139711812Y-86560984D01*
X139690127Y-86670000D01*
X136230000Y-86670000D01*
X136230000Y-86543691D01*
X136133327Y-86310302D01*
X135954699Y-86131673D01*
X135870560Y-86096821D01*
X135879873Y-86050000D01*
X135879873Y-85400000D01*
X139690127Y-85400000D01*
X139690127Y-86050000D01*
X139711812Y-86159016D01*
X139773564Y-86251436D01*
X139865984Y-86313188D01*
X139975000Y-86334873D01*
X141285000Y-86334873D01*
X141394016Y-86313188D01*
X141486436Y-86251436D01*
X141548188Y-86159016D01*
X141569873Y-86050000D01*
X141569873Y-85986164D01*
X143255600Y-85986164D01*
X143255600Y-86733836D01*
X143541721Y-87424595D01*
X144070405Y-87953279D01*
X144761164Y-88239400D01*
X145508836Y-88239400D01*
X146199595Y-87953279D01*
X146728279Y-87424595D01*
X147014400Y-86733836D01*
X147014400Y-85986164D01*
X146728279Y-85295405D01*
X146199595Y-84766721D01*
X145508836Y-84480600D01*
X144761164Y-84480600D01*
X144070405Y-84766721D01*
X143541721Y-85295405D01*
X143255600Y-85986164D01*
X141569873Y-85986164D01*
X141569873Y-85400000D01*
X141548188Y-85290984D01*
X141486436Y-85198564D01*
X141394016Y-85136812D01*
X141285000Y-85115127D01*
X139975000Y-85115127D01*
X139865984Y-85136812D01*
X139773564Y-85198564D01*
X139711812Y-85290984D01*
X139690127Y-85400000D01*
X135879873Y-85400000D01*
X135858188Y-85290984D01*
X135796436Y-85198564D01*
X135704016Y-85136812D01*
X135595000Y-85115127D01*
X135242993Y-85115127D01*
X135182332Y-85090000D01*
X135242993Y-85064873D01*
X135595000Y-85064873D01*
X135704016Y-85043188D01*
X135796436Y-84981436D01*
X135858188Y-84889016D01*
X135879873Y-84780000D01*
X135879873Y-84130000D01*
X139690127Y-84130000D01*
X139690127Y-84780000D01*
X139711812Y-84889016D01*
X139773564Y-84981436D01*
X139865984Y-85043188D01*
X139975000Y-85064873D01*
X141285000Y-85064873D01*
X141394016Y-85043188D01*
X141486436Y-84981436D01*
X141548188Y-84889016D01*
X141569873Y-84780000D01*
X141569873Y-84130000D01*
X141548188Y-84020984D01*
X141486436Y-83928564D01*
X141394016Y-83866812D01*
X141285000Y-83845127D01*
X139975000Y-83845127D01*
X139865984Y-83866812D01*
X139773564Y-83928564D01*
X139711812Y-84020984D01*
X139690127Y-84130000D01*
X135879873Y-84130000D01*
X135858188Y-84020984D01*
X135796436Y-83928564D01*
X135704016Y-83866812D01*
X135595000Y-83845127D01*
X135242993Y-83845127D01*
X135075141Y-83775600D01*
X134804859Y-83775600D01*
X134637007Y-83845127D01*
X134285000Y-83845127D01*
X134175984Y-83866812D01*
X134083564Y-83928564D01*
X134021812Y-84020984D01*
X134000127Y-84130000D01*
X134000127Y-84780000D01*
X134021812Y-84889016D01*
X134083564Y-84981436D01*
X134175984Y-85043188D01*
X134285000Y-85064873D01*
X134637007Y-85064873D01*
X134697668Y-85090000D01*
X134637007Y-85115127D01*
X134285000Y-85115127D01*
X134175984Y-85136812D01*
X134083564Y-85198564D01*
X134021812Y-85290984D01*
X134000127Y-85400000D01*
X134000127Y-86050000D01*
X134009440Y-86096821D01*
X133925301Y-86131673D01*
X133746673Y-86310302D01*
X133650000Y-86543691D01*
X132314400Y-86543691D01*
X132314400Y-85986164D01*
X132028279Y-85295405D01*
X131499595Y-84766721D01*
X130808836Y-84480600D01*
X130061164Y-84480600D01*
X129370405Y-84766721D01*
X128841721Y-85295405D01*
X128555600Y-85986164D01*
X127154844Y-85986164D01*
X127226793Y-84969986D01*
X127470255Y-83711624D01*
X127863128Y-82491624D01*
X128399724Y-81327659D01*
X129072268Y-80236589D01*
X129871018Y-79234219D01*
X130478541Y-78636164D01*
X135905600Y-78636164D01*
X135905600Y-79383836D01*
X136191721Y-80074595D01*
X136720405Y-80603279D01*
X137411164Y-80889400D01*
X138158836Y-80889400D01*
X138849595Y-80603279D01*
X139378279Y-80074595D01*
X139664400Y-79383836D01*
X139664400Y-78636164D01*
X139378279Y-77945405D01*
X138849595Y-77416721D01*
X138158836Y-77130600D01*
X137411164Y-77130600D01*
X136720405Y-77416721D01*
X136191721Y-77945405D01*
X135905600Y-78636164D01*
X130478541Y-78636164D01*
X130784405Y-78335068D01*
X131799198Y-77552160D01*
X132900697Y-76896837D01*
X134072947Y-76378591D01*
X135298967Y-76004928D01*
X136560998Y-75781262D01*
X137840759Y-75710833D01*
X139119713Y-75794660D01*
X139119713Y-75794660D01*
G37*
X139119713Y-75794660D02*
X140379333Y-76031529D01*
X141601372Y-76418010D01*
X142768131Y-76948503D01*
X143862707Y-77615325D01*
X144869246Y-78408816D01*
X145773168Y-79317483D01*
X146561378Y-80328163D01*
X147222459Y-81426216D01*
X147746836Y-82595736D01*
X148126913Y-83819783D01*
X148357184Y-85080625D01*
X148434313Y-86360000D01*
X148431977Y-86583022D01*
X148328072Y-87860501D01*
X148071446Y-89116245D01*
X147665819Y-90332064D01*
X147117064Y-91490346D01*
X146433132Y-92574313D01*
X145623928Y-93568264D01*
X144701176Y-94457801D01*
X143678240Y-95230039D01*
X142569939Y-95873792D01*
X141392326Y-96379734D01*
X140162460Y-96740537D01*
X138898156Y-96950975D01*
X137617728Y-97007999D01*
X136339722Y-96910784D01*
X135082652Y-96660737D01*
X133864726Y-96261481D01*
X132703587Y-95718799D01*
X131616053Y-95040551D01*
X130617879Y-94236563D01*
X129723523Y-93318481D01*
X129358490Y-92840172D01*
X129996279Y-92840172D01*
X130030721Y-93053039D01*
X130289046Y-93160055D01*
X130730731Y-93192292D01*
X130739146Y-93189505D01*
X130754771Y-93268056D01*
X130927033Y-93525865D01*
X131184842Y-93698127D01*
X131412187Y-93743349D01*
X131565711Y-93743349D01*
X131617969Y-93732954D01*
X131592305Y-93861974D01*
X131652796Y-94166081D01*
X131825058Y-94423890D01*
X132082867Y-94596152D01*
X132310212Y-94641374D01*
X132321126Y-94641374D01*
X132314705Y-94650984D01*
X132293020Y-94760000D01*
X132314705Y-94869016D01*
X132376457Y-94961436D01*
X133083564Y-95668543D01*
X133175984Y-95730295D01*
X133285000Y-95751980D01*
X133394016Y-95730295D01*
X133486436Y-95668543D01*
X134193543Y-94961436D01*
X134255295Y-94869016D01*
X134276980Y-94760000D01*
X134255295Y-94650984D01*
X134193543Y-94558564D01*
X134055053Y-94420074D01*
X134064863Y-94370757D01*
X134064863Y-94370753D01*
X134071828Y-94335738D01*
X134064863Y-94300723D01*
X134064863Y-93336164D01*
X135905600Y-93336164D01*
X135905600Y-94083836D01*
X136191721Y-94774595D01*
X136720405Y-95303279D01*
X137411164Y-95589400D01*
X138158836Y-95589400D01*
X138849595Y-95303279D01*
X139378279Y-94774595D01*
X139664400Y-94083836D01*
X139664400Y-93336164D01*
X139378279Y-92645405D01*
X138849595Y-92116721D01*
X138158836Y-91830600D01*
X137411164Y-91830600D01*
X136720405Y-92116721D01*
X136191721Y-92645405D01*
X135905600Y-93336164D01*
X134064863Y-93336164D01*
X134064863Y-93118045D01*
X134306497Y-92876411D01*
X134336182Y-92856577D01*
X134356017Y-92826892D01*
X134356020Y-92826889D01*
X134414777Y-92738952D01*
X134442376Y-92600204D01*
X134435410Y-92565184D01*
X134435410Y-91752484D01*
X137567295Y-88620600D01*
X139696214Y-88620600D01*
X139711812Y-88699016D01*
X139773564Y-88791436D01*
X139865984Y-88853188D01*
X139975000Y-88874873D01*
X141285000Y-88874873D01*
X141394016Y-88853188D01*
X141486436Y-88791436D01*
X141548188Y-88699016D01*
X141569873Y-88590000D01*
X141569873Y-87940000D01*
X141548188Y-87830984D01*
X141486436Y-87738564D01*
X141394016Y-87676812D01*
X141285000Y-87655127D01*
X139975000Y-87655127D01*
X139865984Y-87676812D01*
X139773564Y-87738564D01*
X139711812Y-87830984D01*
X139696214Y-87909400D01*
X137455020Y-87909400D01*
X137420000Y-87902434D01*
X137384980Y-87909400D01*
X137281252Y-87930033D01*
X137163627Y-88008627D01*
X137143791Y-88038314D01*
X134130600Y-91051506D01*
X134130600Y-90054694D01*
X135166686Y-89018609D01*
X135196373Y-88998773D01*
X135274967Y-88881148D01*
X135276215Y-88874873D01*
X135595000Y-88874873D01*
X135704016Y-88853188D01*
X135796436Y-88791436D01*
X135858188Y-88699016D01*
X135879873Y-88590000D01*
X135879873Y-87940000D01*
X135870560Y-87893179D01*
X135954699Y-87858327D01*
X136133327Y-87679698D01*
X136230000Y-87446309D01*
X136230000Y-87280750D01*
X136071250Y-87122000D01*
X135067000Y-87122000D01*
X135067000Y-87142000D01*
X134813000Y-87142000D01*
X134813000Y-87122000D01*
X133808750Y-87122000D01*
X133650000Y-87280750D01*
X133650000Y-87446309D01*
X133746673Y-87679698D01*
X133925301Y-87858327D01*
X134009440Y-87893179D01*
X134000127Y-87940000D01*
X134000127Y-88590000D01*
X134021812Y-88699016D01*
X134083564Y-88791436D01*
X134175984Y-88853188D01*
X134285000Y-88874873D01*
X134304632Y-88874873D01*
X133548315Y-89631191D01*
X133518627Y-89651028D01*
X133498791Y-89680715D01*
X133498790Y-89680716D01*
X133440033Y-89768653D01*
X133412434Y-89907400D01*
X133419400Y-89942420D01*
X133419401Y-92326653D01*
X132630340Y-93115714D01*
X132463736Y-93082574D01*
X132310212Y-93082574D01*
X132257954Y-93092969D01*
X132283618Y-92963949D01*
X132223127Y-92659842D01*
X132050865Y-92402033D01*
X131793056Y-92229771D01*
X131714505Y-92214146D01*
X131717292Y-92205731D01*
X131685055Y-91764046D01*
X131578039Y-91505721D01*
X131365172Y-91471279D01*
X130770528Y-92065923D01*
X130784671Y-92080066D01*
X130605066Y-92259671D01*
X130590923Y-92245528D01*
X129996279Y-92840172D01*
X129358490Y-92840172D01*
X128945939Y-92299602D01*
X128296393Y-91194687D01*
X128284717Y-91167898D01*
X128898229Y-91167898D01*
X128958720Y-91472005D01*
X129130982Y-91729814D01*
X129388791Y-91902076D01*
X129467341Y-91917701D01*
X129464554Y-91926115D01*
X129496791Y-92367800D01*
X129603807Y-92626125D01*
X129816674Y-92660567D01*
X130411318Y-92065923D01*
X130397176Y-92051781D01*
X130576781Y-91872176D01*
X130590923Y-91886318D01*
X131185567Y-91291674D01*
X131151125Y-91078807D01*
X130892800Y-90971791D01*
X130451115Y-90939554D01*
X130442701Y-90942341D01*
X130427076Y-90863791D01*
X130254814Y-90605982D01*
X129997005Y-90433720D01*
X129769660Y-90388498D01*
X129616136Y-90388498D01*
X129388791Y-90433720D01*
X129130982Y-90605982D01*
X128958720Y-90863791D01*
X128898229Y-91167898D01*
X128284717Y-91167898D01*
X127784291Y-90019740D01*
X127417054Y-88791780D01*
X127199999Y-87528595D01*
X127136271Y-86248483D01*
X127154844Y-85986164D01*
X128555600Y-85986164D01*
X128555600Y-86733836D01*
X128841721Y-87424595D01*
X129370405Y-87953279D01*
X130061164Y-88239400D01*
X130808836Y-88239400D01*
X131499595Y-87953279D01*
X132028279Y-87424595D01*
X132314400Y-86733836D01*
X132314400Y-86543691D01*
X133650000Y-86543691D01*
X133650000Y-86709250D01*
X133808750Y-86868000D01*
X134813000Y-86868000D01*
X134813000Y-86848000D01*
X135067000Y-86848000D01*
X135067000Y-86868000D01*
X136071250Y-86868000D01*
X136230000Y-86709250D01*
X136230000Y-86670000D01*
X139690127Y-86670000D01*
X139690127Y-87320000D01*
X139711812Y-87429016D01*
X139773564Y-87521436D01*
X139865984Y-87583188D01*
X139975000Y-87604873D01*
X141285000Y-87604873D01*
X141394016Y-87583188D01*
X141486436Y-87521436D01*
X141548188Y-87429016D01*
X141569873Y-87320000D01*
X141569873Y-86670000D01*
X141548188Y-86560984D01*
X141486436Y-86468564D01*
X141394016Y-86406812D01*
X141285000Y-86385127D01*
X139975000Y-86385127D01*
X139865984Y-86406812D01*
X139773564Y-86468564D01*
X139711812Y-86560984D01*
X139690127Y-86670000D01*
X136230000Y-86670000D01*
X136230000Y-86543691D01*
X136133327Y-86310302D01*
X135954699Y-86131673D01*
X135870560Y-86096821D01*
X135879873Y-86050000D01*
X135879873Y-85400000D01*
X139690127Y-85400000D01*
X139690127Y-86050000D01*
X139711812Y-86159016D01*
X139773564Y-86251436D01*
X139865984Y-86313188D01*
X139975000Y-86334873D01*
X141285000Y-86334873D01*
X141394016Y-86313188D01*
X141486436Y-86251436D01*
X141548188Y-86159016D01*
X141569873Y-86050000D01*
X141569873Y-85986164D01*
X143255600Y-85986164D01*
X143255600Y-86733836D01*
X143541721Y-87424595D01*
X144070405Y-87953279D01*
X144761164Y-88239400D01*
X145508836Y-88239400D01*
X146199595Y-87953279D01*
X146728279Y-87424595D01*
X147014400Y-86733836D01*
X147014400Y-85986164D01*
X146728279Y-85295405D01*
X146199595Y-84766721D01*
X145508836Y-84480600D01*
X144761164Y-84480600D01*
X144070405Y-84766721D01*
X143541721Y-85295405D01*
X143255600Y-85986164D01*
X141569873Y-85986164D01*
X141569873Y-85400000D01*
X141548188Y-85290984D01*
X141486436Y-85198564D01*
X141394016Y-85136812D01*
X141285000Y-85115127D01*
X139975000Y-85115127D01*
X139865984Y-85136812D01*
X139773564Y-85198564D01*
X139711812Y-85290984D01*
X139690127Y-85400000D01*
X135879873Y-85400000D01*
X135858188Y-85290984D01*
X135796436Y-85198564D01*
X135704016Y-85136812D01*
X135595000Y-85115127D01*
X135242993Y-85115127D01*
X135182332Y-85090000D01*
X135242993Y-85064873D01*
X135595000Y-85064873D01*
X135704016Y-85043188D01*
X135796436Y-84981436D01*
X135858188Y-84889016D01*
X135879873Y-84780000D01*
X135879873Y-84130000D01*
X139690127Y-84130000D01*
X139690127Y-84780000D01*
X139711812Y-84889016D01*
X139773564Y-84981436D01*
X139865984Y-85043188D01*
X139975000Y-85064873D01*
X141285000Y-85064873D01*
X141394016Y-85043188D01*
X141486436Y-84981436D01*
X141548188Y-84889016D01*
X141569873Y-84780000D01*
X141569873Y-84130000D01*
X141548188Y-84020984D01*
X141486436Y-83928564D01*
X141394016Y-83866812D01*
X141285000Y-83845127D01*
X139975000Y-83845127D01*
X139865984Y-83866812D01*
X139773564Y-83928564D01*
X139711812Y-84020984D01*
X139690127Y-84130000D01*
X135879873Y-84130000D01*
X135858188Y-84020984D01*
X135796436Y-83928564D01*
X135704016Y-83866812D01*
X135595000Y-83845127D01*
X135242993Y-83845127D01*
X135075141Y-83775600D01*
X134804859Y-83775600D01*
X134637007Y-83845127D01*
X134285000Y-83845127D01*
X134175984Y-83866812D01*
X134083564Y-83928564D01*
X134021812Y-84020984D01*
X134000127Y-84130000D01*
X134000127Y-84780000D01*
X134021812Y-84889016D01*
X134083564Y-84981436D01*
X134175984Y-85043188D01*
X134285000Y-85064873D01*
X134637007Y-85064873D01*
X134697668Y-85090000D01*
X134637007Y-85115127D01*
X134285000Y-85115127D01*
X134175984Y-85136812D01*
X134083564Y-85198564D01*
X134021812Y-85290984D01*
X134000127Y-85400000D01*
X134000127Y-86050000D01*
X134009440Y-86096821D01*
X133925301Y-86131673D01*
X133746673Y-86310302D01*
X133650000Y-86543691D01*
X132314400Y-86543691D01*
X132314400Y-85986164D01*
X132028279Y-85295405D01*
X131499595Y-84766721D01*
X130808836Y-84480600D01*
X130061164Y-84480600D01*
X129370405Y-84766721D01*
X128841721Y-85295405D01*
X128555600Y-85986164D01*
X127154844Y-85986164D01*
X127226793Y-84969986D01*
X127470255Y-83711624D01*
X127863128Y-82491624D01*
X128399724Y-81327659D01*
X129072268Y-80236589D01*
X129871018Y-79234219D01*
X130478541Y-78636164D01*
X135905600Y-78636164D01*
X135905600Y-79383836D01*
X136191721Y-80074595D01*
X136720405Y-80603279D01*
X137411164Y-80889400D01*
X138158836Y-80889400D01*
X138849595Y-80603279D01*
X139378279Y-80074595D01*
X139664400Y-79383836D01*
X139664400Y-78636164D01*
X139378279Y-77945405D01*
X138849595Y-77416721D01*
X138158836Y-77130600D01*
X137411164Y-77130600D01*
X136720405Y-77416721D01*
X136191721Y-77945405D01*
X135905600Y-78636164D01*
X130478541Y-78636164D01*
X130784405Y-78335068D01*
X131799198Y-77552160D01*
X132900697Y-76896837D01*
X134072947Y-76378591D01*
X135298967Y-76004928D01*
X136560998Y-75781262D01*
X137840759Y-75710833D01*
X139119713Y-75794660D01*
G04 #@! TD*
M02*
