G04 #@! TF.GenerationSoftware,KiCad,Pcbnew,5.0.2-bee76a0~70~ubuntu18.04.1*
G04 #@! TF.CreationDate,2020-10-08T13:14:13+02:00*
G04 #@! TF.ProjectId,TLI5012B,544c4935-3031-4324-922e-6b696361645f,rev?*
G04 #@! TF.SameCoordinates,Original*
G04 #@! TF.FileFunction,Soldermask,Top*
G04 #@! TF.FilePolarity,Negative*
%FSLAX46Y46*%
G04 Gerber Fmt 4.6, Leading zero omitted, Abs format (unit mm)*
G04 Created by KiCad (PCBNEW 5.0.2-bee76a0~70~ubuntu18.04.1) date Do 08 Okt 2020 13:14:13 CEST*
%MOMM*%
%LPD*%
G01*
G04 APERTURE LIST*
%ADD10C,0.100000*%
G04 APERTURE END LIST*
D10*
G36*
X135359925Y-98100000D02*
X133875000Y-99584925D01*
X132390075Y-98100000D01*
X133875000Y-96615075D01*
X135359925Y-98100000D01*
X135359925Y-98100000D01*
G37*
G36*
X132207656Y-95261546D02*
X132284785Y-95269142D01*
X132403455Y-95305140D01*
X132482712Y-95329182D01*
X132665121Y-95426682D01*
X132825003Y-95557895D01*
X132956216Y-95717777D01*
X133053716Y-95900186D01*
X133053716Y-95900187D01*
X133113756Y-96098113D01*
X133134029Y-96303949D01*
X133113756Y-96509785D01*
X133081817Y-96615075D01*
X133053716Y-96707712D01*
X132956216Y-96890121D01*
X132825003Y-97050003D01*
X132665121Y-97181216D01*
X132482712Y-97278716D01*
X132416736Y-97298729D01*
X132284785Y-97338756D01*
X132207656Y-97346353D01*
X132130529Y-97353949D01*
X132027369Y-97353949D01*
X131950242Y-97346353D01*
X131873113Y-97338756D01*
X131741162Y-97298729D01*
X131675186Y-97278716D01*
X131492777Y-97181216D01*
X131332895Y-97050003D01*
X131201682Y-96890121D01*
X131104182Y-96707712D01*
X131076081Y-96615075D01*
X131044142Y-96509785D01*
X131023869Y-96303949D01*
X131044142Y-96098113D01*
X131104182Y-95900187D01*
X131104182Y-95900186D01*
X131201682Y-95717777D01*
X131332895Y-95557895D01*
X131492777Y-95426682D01*
X131675186Y-95329182D01*
X131754443Y-95305140D01*
X131873113Y-95269142D01*
X131950242Y-95261546D01*
X132027369Y-95253949D01*
X132130529Y-95253949D01*
X132207656Y-95261546D01*
X132207656Y-95261546D01*
G37*
G36*
X130411605Y-93465495D02*
X130488734Y-93473091D01*
X130620685Y-93513118D01*
X130686661Y-93533131D01*
X130869070Y-93630631D01*
X131028952Y-93761844D01*
X131160165Y-93921726D01*
X131257665Y-94104135D01*
X131257665Y-94104136D01*
X131317705Y-94302062D01*
X131337978Y-94507898D01*
X131317705Y-94713734D01*
X131277678Y-94845685D01*
X131257665Y-94911661D01*
X131160165Y-95094070D01*
X131028952Y-95253952D01*
X130869070Y-95385165D01*
X130686661Y-95482665D01*
X130620685Y-95502678D01*
X130488734Y-95542705D01*
X130411605Y-95550301D01*
X130334478Y-95557898D01*
X130231318Y-95557898D01*
X130154191Y-95550302D01*
X130077062Y-95542705D01*
X129945111Y-95502678D01*
X129879135Y-95482665D01*
X129696726Y-95385165D01*
X129536844Y-95253952D01*
X129405631Y-95094070D01*
X129308131Y-94911661D01*
X129288118Y-94845685D01*
X129248091Y-94713734D01*
X129227818Y-94507898D01*
X129248091Y-94302062D01*
X129308131Y-94104136D01*
X129308131Y-94104135D01*
X129405631Y-93921726D01*
X129536844Y-93761844D01*
X129696726Y-93630631D01*
X129879135Y-93533131D01*
X129945111Y-93513118D01*
X130077062Y-93473091D01*
X130154191Y-93465494D01*
X130231318Y-93457898D01*
X130334478Y-93457898D01*
X130411605Y-93465495D01*
X130411605Y-93465495D01*
G37*
G36*
X138166405Y-91950602D02*
X138310041Y-91979173D01*
X138637620Y-92114861D01*
X138653804Y-92125675D01*
X138932436Y-92311851D01*
X139183149Y-92562564D01*
X139380140Y-92857382D01*
X139515827Y-93184960D01*
X139585000Y-93532714D01*
X139585000Y-93887286D01*
X139515827Y-94235040D01*
X139380140Y-94562618D01*
X139183149Y-94857436D01*
X138932436Y-95108149D01*
X138932433Y-95108151D01*
X138637620Y-95305139D01*
X138310041Y-95440827D01*
X138194122Y-95463885D01*
X137962286Y-95510000D01*
X137607714Y-95510000D01*
X137375878Y-95463885D01*
X137259959Y-95440827D01*
X136932380Y-95305139D01*
X136637567Y-95108151D01*
X136637564Y-95108149D01*
X136386851Y-94857436D01*
X136189860Y-94562618D01*
X136054173Y-94235040D01*
X135985000Y-93887286D01*
X135985000Y-93532714D01*
X136054173Y-93184960D01*
X136189860Y-92857382D01*
X136386851Y-92562564D01*
X136637564Y-92311851D01*
X136916196Y-92125675D01*
X136932380Y-92114861D01*
X137259959Y-91979173D01*
X137403595Y-91950602D01*
X137607714Y-91910000D01*
X137962286Y-91910000D01*
X138166405Y-91950602D01*
X138166405Y-91950602D01*
G37*
G36*
X128615553Y-91669443D02*
X128692682Y-91677039D01*
X128824633Y-91717066D01*
X128890609Y-91737079D01*
X129073018Y-91834579D01*
X129232900Y-91965792D01*
X129364113Y-92125674D01*
X129461613Y-92308083D01*
X129461613Y-92308084D01*
X129521653Y-92506010D01*
X129541926Y-92711846D01*
X129521653Y-92917682D01*
X129481626Y-93049633D01*
X129461613Y-93115609D01*
X129364113Y-93298018D01*
X129232900Y-93457900D01*
X129073018Y-93589113D01*
X128890609Y-93686613D01*
X128824633Y-93706626D01*
X128692682Y-93746653D01*
X128615553Y-93754250D01*
X128538426Y-93761846D01*
X128435266Y-93761846D01*
X128358139Y-93754250D01*
X128281010Y-93746653D01*
X128149059Y-93706626D01*
X128083083Y-93686613D01*
X127900674Y-93589113D01*
X127740792Y-93457900D01*
X127609579Y-93298018D01*
X127512079Y-93115609D01*
X127492066Y-93049633D01*
X127452039Y-92917682D01*
X127431766Y-92711846D01*
X127452039Y-92506010D01*
X127512079Y-92308084D01*
X127512079Y-92308083D01*
X127609579Y-92125674D01*
X127740792Y-91965792D01*
X127900674Y-91834579D01*
X128083083Y-91737079D01*
X128149059Y-91717066D01*
X128281010Y-91677039D01*
X128358139Y-91669443D01*
X128435266Y-91661846D01*
X128538426Y-91661846D01*
X128615553Y-91669443D01*
X128615553Y-91669443D01*
G37*
G36*
X126819502Y-89873392D02*
X126896631Y-89880988D01*
X127028582Y-89921015D01*
X127094558Y-89941028D01*
X127276967Y-90038528D01*
X127436849Y-90169741D01*
X127568062Y-90329623D01*
X127665562Y-90512032D01*
X127665562Y-90512033D01*
X127725602Y-90709959D01*
X127745875Y-90915795D01*
X127725602Y-91121631D01*
X127685575Y-91253582D01*
X127665562Y-91319558D01*
X127568062Y-91501967D01*
X127436849Y-91661849D01*
X127276967Y-91793062D01*
X127094558Y-91890562D01*
X127030478Y-91910000D01*
X126896631Y-91950602D01*
X126819502Y-91958199D01*
X126742375Y-91965795D01*
X126639215Y-91965795D01*
X126562088Y-91958199D01*
X126484959Y-91950602D01*
X126351112Y-91910000D01*
X126287032Y-91890562D01*
X126104623Y-91793062D01*
X125944741Y-91661849D01*
X125813528Y-91501967D01*
X125716028Y-91319558D01*
X125696015Y-91253582D01*
X125655988Y-91121631D01*
X125635715Y-90915795D01*
X125655988Y-90709959D01*
X125716028Y-90512033D01*
X125716028Y-90512032D01*
X125813528Y-90329623D01*
X125944741Y-90169741D01*
X126104623Y-90038528D01*
X126287032Y-89941028D01*
X126353008Y-89921015D01*
X126484959Y-89880988D01*
X126562088Y-89873392D01*
X126639215Y-89865795D01*
X126742375Y-89865795D01*
X126819502Y-89873392D01*
X126819502Y-89873392D01*
G37*
G36*
X135795000Y-88790000D02*
X134085000Y-88790000D01*
X134085000Y-83930000D01*
X135795000Y-83930000D01*
X135795000Y-88790000D01*
X135795000Y-88790000D01*
G37*
G36*
X141485000Y-88790000D02*
X139775000Y-88790000D01*
X139775000Y-83930000D01*
X141485000Y-83930000D01*
X141485000Y-88790000D01*
X141485000Y-88790000D01*
G37*
G36*
X130844122Y-84606115D02*
X130960041Y-84629173D01*
X131287620Y-84764861D01*
X131578511Y-84959228D01*
X131582436Y-84961851D01*
X131833149Y-85212564D01*
X132030140Y-85507382D01*
X132165827Y-85834960D01*
X132235000Y-86182714D01*
X132235000Y-86537286D01*
X132165827Y-86885040D01*
X132030140Y-87212618D01*
X131833149Y-87507436D01*
X131582436Y-87758149D01*
X131582433Y-87758151D01*
X131287620Y-87955139D01*
X130960041Y-88090827D01*
X130844122Y-88113885D01*
X130612286Y-88160000D01*
X130257714Y-88160000D01*
X130025878Y-88113885D01*
X129909959Y-88090827D01*
X129582380Y-87955139D01*
X129287567Y-87758151D01*
X129287564Y-87758149D01*
X129036851Y-87507436D01*
X128839860Y-87212618D01*
X128704173Y-86885040D01*
X128635000Y-86537286D01*
X128635000Y-86182714D01*
X128704173Y-85834960D01*
X128839860Y-85507382D01*
X129036851Y-85212564D01*
X129287564Y-84961851D01*
X129291489Y-84959228D01*
X129582380Y-84764861D01*
X129909959Y-84629173D01*
X130025878Y-84606115D01*
X130257714Y-84560000D01*
X130612286Y-84560000D01*
X130844122Y-84606115D01*
X130844122Y-84606115D01*
G37*
G36*
X145544122Y-84606115D02*
X145660041Y-84629173D01*
X145987620Y-84764861D01*
X146278511Y-84959228D01*
X146282436Y-84961851D01*
X146533149Y-85212564D01*
X146730140Y-85507382D01*
X146865827Y-85834960D01*
X146935000Y-86182714D01*
X146935000Y-86537286D01*
X146865827Y-86885040D01*
X146730140Y-87212618D01*
X146533149Y-87507436D01*
X146282436Y-87758149D01*
X146282433Y-87758151D01*
X145987620Y-87955139D01*
X145660041Y-88090827D01*
X145544122Y-88113885D01*
X145312286Y-88160000D01*
X144957714Y-88160000D01*
X144725878Y-88113885D01*
X144609959Y-88090827D01*
X144282380Y-87955139D01*
X143987567Y-87758151D01*
X143987564Y-87758149D01*
X143736851Y-87507436D01*
X143539860Y-87212618D01*
X143404173Y-86885040D01*
X143335000Y-86537286D01*
X143335000Y-86182714D01*
X143404173Y-85834960D01*
X143539860Y-85507382D01*
X143736851Y-85212564D01*
X143987564Y-84961851D01*
X143991489Y-84959228D01*
X144282380Y-84764861D01*
X144609959Y-84629173D01*
X144725878Y-84606115D01*
X144957714Y-84560000D01*
X145312286Y-84560000D01*
X145544122Y-84606115D01*
X145544122Y-84606115D01*
G37*
G36*
X138194122Y-77256115D02*
X138310041Y-77279173D01*
X138637620Y-77414861D01*
X138928511Y-77609228D01*
X138932436Y-77611851D01*
X139183149Y-77862564D01*
X139380140Y-78157382D01*
X139515827Y-78484960D01*
X139585000Y-78832714D01*
X139585000Y-79187286D01*
X139515827Y-79535040D01*
X139380140Y-79862618D01*
X139183149Y-80157436D01*
X138932436Y-80408149D01*
X138932433Y-80408151D01*
X138637620Y-80605139D01*
X138310041Y-80740827D01*
X138194122Y-80763885D01*
X137962286Y-80810000D01*
X137607714Y-80810000D01*
X137375878Y-80763885D01*
X137259959Y-80740827D01*
X136932380Y-80605139D01*
X136637567Y-80408151D01*
X136637564Y-80408149D01*
X136386851Y-80157436D01*
X136189860Y-79862618D01*
X136054173Y-79535040D01*
X135985000Y-79187286D01*
X135985000Y-78832714D01*
X136054173Y-78484960D01*
X136189860Y-78157382D01*
X136386851Y-77862564D01*
X136637564Y-77611851D01*
X136641489Y-77609228D01*
X136932380Y-77414861D01*
X137259959Y-77279173D01*
X137375878Y-77256115D01*
X137607714Y-77210000D01*
X137962286Y-77210000D01*
X138194122Y-77256115D01*
X138194122Y-77256115D01*
G37*
M02*
