G04 #@! TF.GenerationSoftware,KiCad,Pcbnew,5.0.2-bee76a0~70~ubuntu18.04.1*
G04 #@! TF.CreationDate,2020-10-08T15:31:19+02:00*
G04 #@! TF.ProjectId,TLI5012B,544c4935-3031-4324-922e-6b696361645f,rev?*
G04 #@! TF.SameCoordinates,Original*
G04 #@! TF.FileFunction,Copper,L2,Bot*
G04 #@! TF.FilePolarity,Positive*
%FSLAX46Y46*%
G04 Gerber Fmt 4.6, Leading zero omitted, Abs format (unit mm)*
G04 Created by KiCad (PCBNEW 5.0.2-bee76a0~70~ubuntu18.04.1) date Do 08 Okt 2020 15:31:19 CEST*
%MOMM*%
%LPD*%
G01*
G04 APERTURE LIST*
G04 #@! TA.AperFunction,Conductor*
%ADD10C,0.100000*%
G04 #@! TD*
G04 #@! TA.AperFunction,SMDPad,CuDef*
%ADD11C,0.590000*%
G04 #@! TD*
G04 #@! TA.AperFunction,ComponentPad*
%ADD12C,1.000000*%
G04 #@! TD*
G04 #@! TA.AperFunction,Conductor*
%ADD13C,1.000000*%
G04 #@! TD*
G04 #@! TA.AperFunction,ViaPad*
%ADD14C,0.800000*%
G04 #@! TD*
G04 #@! TA.AperFunction,Conductor*
%ADD15C,0.152400*%
G04 #@! TD*
G04 #@! TA.AperFunction,Conductor*
%ADD16C,0.254000*%
G04 #@! TD*
G04 APERTURE END LIST*
D10*
G04 #@! TO.N,+5V*
G04 #@! TO.C,C1*
G36*
X136861958Y-85620710D02*
X136876276Y-85622834D01*
X136890317Y-85626351D01*
X136903946Y-85631228D01*
X136917031Y-85637417D01*
X136929447Y-85644858D01*
X136941073Y-85653481D01*
X136951798Y-85663202D01*
X136961519Y-85673927D01*
X136970142Y-85685553D01*
X136977583Y-85697969D01*
X136983772Y-85711054D01*
X136988649Y-85724683D01*
X136992166Y-85738724D01*
X136994290Y-85753042D01*
X136995000Y-85767500D01*
X136995000Y-86062500D01*
X136994290Y-86076958D01*
X136992166Y-86091276D01*
X136988649Y-86105317D01*
X136983772Y-86118946D01*
X136977583Y-86132031D01*
X136970142Y-86144447D01*
X136961519Y-86156073D01*
X136951798Y-86166798D01*
X136941073Y-86176519D01*
X136929447Y-86185142D01*
X136917031Y-86192583D01*
X136903946Y-86198772D01*
X136890317Y-86203649D01*
X136876276Y-86207166D01*
X136861958Y-86209290D01*
X136847500Y-86210000D01*
X136502500Y-86210000D01*
X136488042Y-86209290D01*
X136473724Y-86207166D01*
X136459683Y-86203649D01*
X136446054Y-86198772D01*
X136432969Y-86192583D01*
X136420553Y-86185142D01*
X136408927Y-86176519D01*
X136398202Y-86166798D01*
X136388481Y-86156073D01*
X136379858Y-86144447D01*
X136372417Y-86132031D01*
X136366228Y-86118946D01*
X136361351Y-86105317D01*
X136357834Y-86091276D01*
X136355710Y-86076958D01*
X136355000Y-86062500D01*
X136355000Y-85767500D01*
X136355710Y-85753042D01*
X136357834Y-85738724D01*
X136361351Y-85724683D01*
X136366228Y-85711054D01*
X136372417Y-85697969D01*
X136379858Y-85685553D01*
X136388481Y-85673927D01*
X136398202Y-85663202D01*
X136408927Y-85653481D01*
X136420553Y-85644858D01*
X136432969Y-85637417D01*
X136446054Y-85631228D01*
X136459683Y-85626351D01*
X136473724Y-85622834D01*
X136488042Y-85620710D01*
X136502500Y-85620000D01*
X136847500Y-85620000D01*
X136861958Y-85620710D01*
X136861958Y-85620710D01*
G37*
D11*
G04 #@! TD*
G04 #@! TO.P,C1,1*
G04 #@! TO.N,+5V*
X136675000Y-85915000D03*
D10*
G04 #@! TO.N,GND*
G04 #@! TO.C,C1*
G36*
X136861958Y-86590710D02*
X136876276Y-86592834D01*
X136890317Y-86596351D01*
X136903946Y-86601228D01*
X136917031Y-86607417D01*
X136929447Y-86614858D01*
X136941073Y-86623481D01*
X136951798Y-86633202D01*
X136961519Y-86643927D01*
X136970142Y-86655553D01*
X136977583Y-86667969D01*
X136983772Y-86681054D01*
X136988649Y-86694683D01*
X136992166Y-86708724D01*
X136994290Y-86723042D01*
X136995000Y-86737500D01*
X136995000Y-87032500D01*
X136994290Y-87046958D01*
X136992166Y-87061276D01*
X136988649Y-87075317D01*
X136983772Y-87088946D01*
X136977583Y-87102031D01*
X136970142Y-87114447D01*
X136961519Y-87126073D01*
X136951798Y-87136798D01*
X136941073Y-87146519D01*
X136929447Y-87155142D01*
X136917031Y-87162583D01*
X136903946Y-87168772D01*
X136890317Y-87173649D01*
X136876276Y-87177166D01*
X136861958Y-87179290D01*
X136847500Y-87180000D01*
X136502500Y-87180000D01*
X136488042Y-87179290D01*
X136473724Y-87177166D01*
X136459683Y-87173649D01*
X136446054Y-87168772D01*
X136432969Y-87162583D01*
X136420553Y-87155142D01*
X136408927Y-87146519D01*
X136398202Y-87136798D01*
X136388481Y-87126073D01*
X136379858Y-87114447D01*
X136372417Y-87102031D01*
X136366228Y-87088946D01*
X136361351Y-87075317D01*
X136357834Y-87061276D01*
X136355710Y-87046958D01*
X136355000Y-87032500D01*
X136355000Y-86737500D01*
X136355710Y-86723042D01*
X136357834Y-86708724D01*
X136361351Y-86694683D01*
X136366228Y-86681054D01*
X136372417Y-86667969D01*
X136379858Y-86655553D01*
X136388481Y-86643927D01*
X136398202Y-86633202D01*
X136408927Y-86623481D01*
X136420553Y-86614858D01*
X136432969Y-86607417D01*
X136446054Y-86601228D01*
X136459683Y-86596351D01*
X136473724Y-86592834D01*
X136488042Y-86590710D01*
X136502500Y-86590000D01*
X136847500Y-86590000D01*
X136861958Y-86590710D01*
X136861958Y-86590710D01*
G37*
D11*
G04 #@! TD*
G04 #@! TO.P,C1,2*
G04 #@! TO.N,GND*
X136675000Y-86885000D03*
D12*
G04 #@! TO.P,J1,1*
G04 #@! TO.N,/IFC*
X133285000Y-94760000D03*
D10*
G04 #@! TD*
G04 #@! TO.N,/IFC*
G04 #@! TO.C,J1*
G36*
X133285000Y-94052893D02*
X133992107Y-94760000D01*
X133285000Y-95467107D01*
X132577893Y-94760000D01*
X133285000Y-94052893D01*
X133285000Y-94052893D01*
G37*
D12*
G04 #@! TO.P,J1,2*
G04 #@! TO.N,/IFB*
X132386974Y-93861974D03*
D13*
G04 #@! TD*
G04 #@! TO.N,/IFB*
G04 #@! TO.C,J1*
X132386974Y-93861974D02*
X132386974Y-93861974D01*
D12*
G04 #@! TO.P,J1,3*
G04 #@! TO.N,/IFA*
X131488949Y-92963949D03*
D13*
G04 #@! TD*
G04 #@! TO.N,/IFA*
G04 #@! TO.C,J1*
X131488949Y-92963949D02*
X131488949Y-92963949D01*
D12*
G04 #@! TO.P,J1,4*
G04 #@! TO.N,GND*
X130590923Y-92065923D03*
D13*
G04 #@! TD*
G04 #@! TO.N,GND*
G04 #@! TO.C,J1*
X130590923Y-92065923D02*
X130590923Y-92065923D01*
D12*
G04 #@! TO.P,J1,5*
G04 #@! TO.N,+5V*
X129692898Y-91167898D03*
D13*
G04 #@! TD*
G04 #@! TO.N,+5V*
G04 #@! TO.C,J1*
X129692898Y-91167898D02*
X129692898Y-91167898D01*
D14*
G04 #@! TO.N,+5V*
X134940000Y-85725000D03*
G04 #@! TO.N,GND*
X134940000Y-86995000D03*
G04 #@! TO.N,/IFA*
X134940000Y-84455000D03*
G04 #@! TD*
D15*
G04 #@! TO.N,+5V*
X135130000Y-85915000D02*
X134940000Y-85725000D01*
X136675000Y-85915000D02*
X135130000Y-85915000D01*
X130192897Y-90667899D02*
X131777101Y-90667899D01*
X129692898Y-91167898D02*
X130192897Y-90667899D01*
X131777101Y-90667899D02*
X134105000Y-88340000D01*
X134105000Y-88340000D02*
X134105000Y-86560000D01*
X134105000Y-86560000D02*
X134940000Y-85725000D01*
G04 #@! TO.N,GND*
X136675000Y-86885000D02*
X135050000Y-86885000D01*
X135050000Y-86885000D02*
X134940000Y-86995000D01*
G04 #@! TO.N,/IFA*
X136066900Y-84455000D02*
X134940000Y-84455000D01*
X137223610Y-85611710D02*
X136066900Y-84455000D01*
X137223610Y-87229288D02*
X137223610Y-85611710D01*
X131488949Y-92963949D02*
X137223610Y-87229288D01*
G04 #@! TD*
D16*
G04 #@! TO.N,GND*
G36*
X139119713Y-75794660D02*
X140379333Y-76031529D01*
X141601372Y-76418010D01*
X142768131Y-76948503D01*
X143862707Y-77615325D01*
X144869246Y-78408816D01*
X145773168Y-79317483D01*
X146561378Y-80328163D01*
X147222459Y-81426216D01*
X147746836Y-82595736D01*
X148126913Y-83819783D01*
X148357184Y-85080625D01*
X148434313Y-86360000D01*
X148431977Y-86583022D01*
X148328072Y-87860501D01*
X148071446Y-89116245D01*
X147665819Y-90332064D01*
X147117064Y-91490346D01*
X146433132Y-92574313D01*
X145623928Y-93568264D01*
X144701176Y-94457801D01*
X143678240Y-95230039D01*
X142569939Y-95873792D01*
X141392326Y-96379734D01*
X140162460Y-96740537D01*
X138898156Y-96950975D01*
X137617728Y-97007999D01*
X136339722Y-96910784D01*
X135082652Y-96660737D01*
X133864726Y-96261481D01*
X132703587Y-95718799D01*
X131616053Y-95040551D01*
X130617879Y-94236563D01*
X129723523Y-93318481D01*
X128945939Y-92299602D01*
X128296393Y-91194687D01*
X128284717Y-91167898D01*
X128898229Y-91167898D01*
X128958720Y-91472005D01*
X129130982Y-91729814D01*
X129388791Y-91902076D01*
X129467341Y-91917701D01*
X129464554Y-91926115D01*
X129496791Y-92367800D01*
X129603807Y-92626125D01*
X129816674Y-92660567D01*
X130411318Y-92065923D01*
X130397176Y-92051781D01*
X130576781Y-91872176D01*
X130590923Y-91886318D01*
X131185567Y-91291674D01*
X131151125Y-91078807D01*
X131017617Y-91023499D01*
X131742081Y-91023499D01*
X131777101Y-91030465D01*
X131812121Y-91023499D01*
X131915849Y-91002866D01*
X132033474Y-90924272D01*
X132053312Y-90894582D01*
X134331685Y-88616209D01*
X134361372Y-88596373D01*
X134439967Y-88478748D01*
X134460600Y-88375020D01*
X134460600Y-88375016D01*
X134467565Y-88340001D01*
X134460600Y-88304986D01*
X134460600Y-86707294D01*
X134775610Y-86392284D01*
X134804859Y-86404400D01*
X135075141Y-86404400D01*
X135324849Y-86300967D01*
X135355216Y-86270600D01*
X135799981Y-86270600D01*
X135720000Y-86463691D01*
X135720000Y-86599250D01*
X135878750Y-86758000D01*
X136548000Y-86758000D01*
X136548000Y-86738000D01*
X136802000Y-86738000D01*
X136802000Y-86758000D01*
X136868010Y-86758000D01*
X136868010Y-87012000D01*
X136802000Y-87012000D01*
X136802000Y-87032000D01*
X136548000Y-87032000D01*
X136548000Y-87012000D01*
X135878750Y-87012000D01*
X135720000Y-87170750D01*
X135720000Y-87306309D01*
X135816673Y-87539698D01*
X135995301Y-87718327D01*
X136162444Y-87787560D01*
X131732315Y-92217689D01*
X131714505Y-92214146D01*
X131717292Y-92205731D01*
X131685055Y-91764046D01*
X131578039Y-91505721D01*
X131365172Y-91471279D01*
X130770528Y-92065923D01*
X130784671Y-92080066D01*
X130605066Y-92259671D01*
X130590923Y-92245528D01*
X129996279Y-92840172D01*
X130030721Y-93053039D01*
X130289046Y-93160055D01*
X130730731Y-93192292D01*
X130739146Y-93189505D01*
X130754771Y-93268056D01*
X130927033Y-93525865D01*
X131184842Y-93698127D01*
X131412187Y-93743349D01*
X131565711Y-93743349D01*
X131617969Y-93732954D01*
X131592305Y-93861974D01*
X131652796Y-94166081D01*
X131825058Y-94423890D01*
X132082867Y-94596152D01*
X132310212Y-94641374D01*
X132321126Y-94641374D01*
X132314705Y-94650984D01*
X132293020Y-94760000D01*
X132314705Y-94869016D01*
X132376457Y-94961436D01*
X133083564Y-95668543D01*
X133175984Y-95730295D01*
X133285000Y-95751980D01*
X133394016Y-95730295D01*
X133486436Y-95668543D01*
X134193543Y-94961436D01*
X134255295Y-94869016D01*
X134276980Y-94760000D01*
X134255295Y-94650984D01*
X134193543Y-94558564D01*
X133486436Y-93851457D01*
X133394016Y-93789705D01*
X133285000Y-93768020D01*
X133175984Y-93789705D01*
X133168290Y-93794846D01*
X133121152Y-93557867D01*
X132973016Y-93336164D01*
X135905600Y-93336164D01*
X135905600Y-94083836D01*
X136191721Y-94774595D01*
X136720405Y-95303279D01*
X137411164Y-95589400D01*
X138158836Y-95589400D01*
X138849595Y-95303279D01*
X139378279Y-94774595D01*
X139664400Y-94083836D01*
X139664400Y-93336164D01*
X139378279Y-92645405D01*
X138849595Y-92116721D01*
X138158836Y-91830600D01*
X137411164Y-91830600D01*
X136720405Y-92116721D01*
X136191721Y-92645405D01*
X135905600Y-93336164D01*
X132973016Y-93336164D01*
X132948890Y-93300058D01*
X132691081Y-93127796D01*
X132463736Y-93082574D01*
X132310212Y-93082574D01*
X132257954Y-93092969D01*
X132283618Y-92963949D01*
X132235209Y-92720583D01*
X137154568Y-87801224D01*
X137354699Y-87718327D01*
X137533327Y-87539698D01*
X137630000Y-87306309D01*
X137630000Y-87170750D01*
X137579210Y-87119960D01*
X137579210Y-86650040D01*
X137630000Y-86599250D01*
X137630000Y-86463691D01*
X137579210Y-86341073D01*
X137579210Y-85986164D01*
X143255600Y-85986164D01*
X143255600Y-86733836D01*
X143541721Y-87424595D01*
X144070405Y-87953279D01*
X144761164Y-88239400D01*
X145508836Y-88239400D01*
X146199595Y-87953279D01*
X146728279Y-87424595D01*
X147014400Y-86733836D01*
X147014400Y-85986164D01*
X146728279Y-85295405D01*
X146199595Y-84766721D01*
X145508836Y-84480600D01*
X144761164Y-84480600D01*
X144070405Y-84766721D01*
X143541721Y-85295405D01*
X143255600Y-85986164D01*
X137579210Y-85986164D01*
X137579210Y-85646730D01*
X137586176Y-85611710D01*
X137558577Y-85472962D01*
X137499820Y-85385025D01*
X137499819Y-85385024D01*
X137479983Y-85355337D01*
X137450296Y-85335501D01*
X136343111Y-84228317D01*
X136323273Y-84198627D01*
X136205648Y-84120033D01*
X136101920Y-84099400D01*
X136066900Y-84092434D01*
X136031880Y-84099400D01*
X135528082Y-84099400D01*
X135515967Y-84070151D01*
X135324849Y-83879033D01*
X135075141Y-83775600D01*
X134804859Y-83775600D01*
X134555151Y-83879033D01*
X134364033Y-84070151D01*
X134260600Y-84319859D01*
X134260600Y-84590141D01*
X134364033Y-84839849D01*
X134555151Y-85030967D01*
X134697668Y-85090000D01*
X134555151Y-85149033D01*
X134364033Y-85340151D01*
X134260600Y-85589859D01*
X134260600Y-85860141D01*
X134272716Y-85889390D01*
X133878315Y-86283791D01*
X133848628Y-86303627D01*
X133828792Y-86333314D01*
X133828790Y-86333316D01*
X133770033Y-86421253D01*
X133742434Y-86560000D01*
X133749401Y-86595025D01*
X133749400Y-88192706D01*
X131629807Y-90312299D01*
X130227911Y-90312299D01*
X130192896Y-90305334D01*
X130157881Y-90312299D01*
X130157877Y-90312299D01*
X130054149Y-90332932D01*
X129936524Y-90411526D01*
X129930530Y-90420497D01*
X129769660Y-90388498D01*
X129616136Y-90388498D01*
X129388791Y-90433720D01*
X129130982Y-90605982D01*
X128958720Y-90863791D01*
X128898229Y-91167898D01*
X128284717Y-91167898D01*
X127784291Y-90019740D01*
X127417054Y-88791780D01*
X127199999Y-87528595D01*
X127136271Y-86248483D01*
X127154844Y-85986164D01*
X128555600Y-85986164D01*
X128555600Y-86733836D01*
X128841721Y-87424595D01*
X129370405Y-87953279D01*
X130061164Y-88239400D01*
X130808836Y-88239400D01*
X131499595Y-87953279D01*
X132028279Y-87424595D01*
X132314400Y-86733836D01*
X132314400Y-85986164D01*
X132028279Y-85295405D01*
X131499595Y-84766721D01*
X130808836Y-84480600D01*
X130061164Y-84480600D01*
X129370405Y-84766721D01*
X128841721Y-85295405D01*
X128555600Y-85986164D01*
X127154844Y-85986164D01*
X127226793Y-84969986D01*
X127470255Y-83711624D01*
X127863128Y-82491624D01*
X128399724Y-81327659D01*
X129072268Y-80236589D01*
X129871018Y-79234219D01*
X130478541Y-78636164D01*
X135905600Y-78636164D01*
X135905600Y-79383836D01*
X136191721Y-80074595D01*
X136720405Y-80603279D01*
X137411164Y-80889400D01*
X138158836Y-80889400D01*
X138849595Y-80603279D01*
X139378279Y-80074595D01*
X139664400Y-79383836D01*
X139664400Y-78636164D01*
X139378279Y-77945405D01*
X138849595Y-77416721D01*
X138158836Y-77130600D01*
X137411164Y-77130600D01*
X136720405Y-77416721D01*
X136191721Y-77945405D01*
X135905600Y-78636164D01*
X130478541Y-78636164D01*
X130784405Y-78335068D01*
X131799198Y-77552160D01*
X132900697Y-76896837D01*
X134072947Y-76378591D01*
X135298967Y-76004928D01*
X136560998Y-75781262D01*
X137840759Y-75710833D01*
X139119713Y-75794660D01*
X139119713Y-75794660D01*
G37*
X139119713Y-75794660D02*
X140379333Y-76031529D01*
X141601372Y-76418010D01*
X142768131Y-76948503D01*
X143862707Y-77615325D01*
X144869246Y-78408816D01*
X145773168Y-79317483D01*
X146561378Y-80328163D01*
X147222459Y-81426216D01*
X147746836Y-82595736D01*
X148126913Y-83819783D01*
X148357184Y-85080625D01*
X148434313Y-86360000D01*
X148431977Y-86583022D01*
X148328072Y-87860501D01*
X148071446Y-89116245D01*
X147665819Y-90332064D01*
X147117064Y-91490346D01*
X146433132Y-92574313D01*
X145623928Y-93568264D01*
X144701176Y-94457801D01*
X143678240Y-95230039D01*
X142569939Y-95873792D01*
X141392326Y-96379734D01*
X140162460Y-96740537D01*
X138898156Y-96950975D01*
X137617728Y-97007999D01*
X136339722Y-96910784D01*
X135082652Y-96660737D01*
X133864726Y-96261481D01*
X132703587Y-95718799D01*
X131616053Y-95040551D01*
X130617879Y-94236563D01*
X129723523Y-93318481D01*
X128945939Y-92299602D01*
X128296393Y-91194687D01*
X128284717Y-91167898D01*
X128898229Y-91167898D01*
X128958720Y-91472005D01*
X129130982Y-91729814D01*
X129388791Y-91902076D01*
X129467341Y-91917701D01*
X129464554Y-91926115D01*
X129496791Y-92367800D01*
X129603807Y-92626125D01*
X129816674Y-92660567D01*
X130411318Y-92065923D01*
X130397176Y-92051781D01*
X130576781Y-91872176D01*
X130590923Y-91886318D01*
X131185567Y-91291674D01*
X131151125Y-91078807D01*
X131017617Y-91023499D01*
X131742081Y-91023499D01*
X131777101Y-91030465D01*
X131812121Y-91023499D01*
X131915849Y-91002866D01*
X132033474Y-90924272D01*
X132053312Y-90894582D01*
X134331685Y-88616209D01*
X134361372Y-88596373D01*
X134439967Y-88478748D01*
X134460600Y-88375020D01*
X134460600Y-88375016D01*
X134467565Y-88340001D01*
X134460600Y-88304986D01*
X134460600Y-86707294D01*
X134775610Y-86392284D01*
X134804859Y-86404400D01*
X135075141Y-86404400D01*
X135324849Y-86300967D01*
X135355216Y-86270600D01*
X135799981Y-86270600D01*
X135720000Y-86463691D01*
X135720000Y-86599250D01*
X135878750Y-86758000D01*
X136548000Y-86758000D01*
X136548000Y-86738000D01*
X136802000Y-86738000D01*
X136802000Y-86758000D01*
X136868010Y-86758000D01*
X136868010Y-87012000D01*
X136802000Y-87012000D01*
X136802000Y-87032000D01*
X136548000Y-87032000D01*
X136548000Y-87012000D01*
X135878750Y-87012000D01*
X135720000Y-87170750D01*
X135720000Y-87306309D01*
X135816673Y-87539698D01*
X135995301Y-87718327D01*
X136162444Y-87787560D01*
X131732315Y-92217689D01*
X131714505Y-92214146D01*
X131717292Y-92205731D01*
X131685055Y-91764046D01*
X131578039Y-91505721D01*
X131365172Y-91471279D01*
X130770528Y-92065923D01*
X130784671Y-92080066D01*
X130605066Y-92259671D01*
X130590923Y-92245528D01*
X129996279Y-92840172D01*
X130030721Y-93053039D01*
X130289046Y-93160055D01*
X130730731Y-93192292D01*
X130739146Y-93189505D01*
X130754771Y-93268056D01*
X130927033Y-93525865D01*
X131184842Y-93698127D01*
X131412187Y-93743349D01*
X131565711Y-93743349D01*
X131617969Y-93732954D01*
X131592305Y-93861974D01*
X131652796Y-94166081D01*
X131825058Y-94423890D01*
X132082867Y-94596152D01*
X132310212Y-94641374D01*
X132321126Y-94641374D01*
X132314705Y-94650984D01*
X132293020Y-94760000D01*
X132314705Y-94869016D01*
X132376457Y-94961436D01*
X133083564Y-95668543D01*
X133175984Y-95730295D01*
X133285000Y-95751980D01*
X133394016Y-95730295D01*
X133486436Y-95668543D01*
X134193543Y-94961436D01*
X134255295Y-94869016D01*
X134276980Y-94760000D01*
X134255295Y-94650984D01*
X134193543Y-94558564D01*
X133486436Y-93851457D01*
X133394016Y-93789705D01*
X133285000Y-93768020D01*
X133175984Y-93789705D01*
X133168290Y-93794846D01*
X133121152Y-93557867D01*
X132973016Y-93336164D01*
X135905600Y-93336164D01*
X135905600Y-94083836D01*
X136191721Y-94774595D01*
X136720405Y-95303279D01*
X137411164Y-95589400D01*
X138158836Y-95589400D01*
X138849595Y-95303279D01*
X139378279Y-94774595D01*
X139664400Y-94083836D01*
X139664400Y-93336164D01*
X139378279Y-92645405D01*
X138849595Y-92116721D01*
X138158836Y-91830600D01*
X137411164Y-91830600D01*
X136720405Y-92116721D01*
X136191721Y-92645405D01*
X135905600Y-93336164D01*
X132973016Y-93336164D01*
X132948890Y-93300058D01*
X132691081Y-93127796D01*
X132463736Y-93082574D01*
X132310212Y-93082574D01*
X132257954Y-93092969D01*
X132283618Y-92963949D01*
X132235209Y-92720583D01*
X137154568Y-87801224D01*
X137354699Y-87718327D01*
X137533327Y-87539698D01*
X137630000Y-87306309D01*
X137630000Y-87170750D01*
X137579210Y-87119960D01*
X137579210Y-86650040D01*
X137630000Y-86599250D01*
X137630000Y-86463691D01*
X137579210Y-86341073D01*
X137579210Y-85986164D01*
X143255600Y-85986164D01*
X143255600Y-86733836D01*
X143541721Y-87424595D01*
X144070405Y-87953279D01*
X144761164Y-88239400D01*
X145508836Y-88239400D01*
X146199595Y-87953279D01*
X146728279Y-87424595D01*
X147014400Y-86733836D01*
X147014400Y-85986164D01*
X146728279Y-85295405D01*
X146199595Y-84766721D01*
X145508836Y-84480600D01*
X144761164Y-84480600D01*
X144070405Y-84766721D01*
X143541721Y-85295405D01*
X143255600Y-85986164D01*
X137579210Y-85986164D01*
X137579210Y-85646730D01*
X137586176Y-85611710D01*
X137558577Y-85472962D01*
X137499820Y-85385025D01*
X137499819Y-85385024D01*
X137479983Y-85355337D01*
X137450296Y-85335501D01*
X136343111Y-84228317D01*
X136323273Y-84198627D01*
X136205648Y-84120033D01*
X136101920Y-84099400D01*
X136066900Y-84092434D01*
X136031880Y-84099400D01*
X135528082Y-84099400D01*
X135515967Y-84070151D01*
X135324849Y-83879033D01*
X135075141Y-83775600D01*
X134804859Y-83775600D01*
X134555151Y-83879033D01*
X134364033Y-84070151D01*
X134260600Y-84319859D01*
X134260600Y-84590141D01*
X134364033Y-84839849D01*
X134555151Y-85030967D01*
X134697668Y-85090000D01*
X134555151Y-85149033D01*
X134364033Y-85340151D01*
X134260600Y-85589859D01*
X134260600Y-85860141D01*
X134272716Y-85889390D01*
X133878315Y-86283791D01*
X133848628Y-86303627D01*
X133828792Y-86333314D01*
X133828790Y-86333316D01*
X133770033Y-86421253D01*
X133742434Y-86560000D01*
X133749401Y-86595025D01*
X133749400Y-88192706D01*
X131629807Y-90312299D01*
X130227911Y-90312299D01*
X130192896Y-90305334D01*
X130157881Y-90312299D01*
X130157877Y-90312299D01*
X130054149Y-90332932D01*
X129936524Y-90411526D01*
X129930530Y-90420497D01*
X129769660Y-90388498D01*
X129616136Y-90388498D01*
X129388791Y-90433720D01*
X129130982Y-90605982D01*
X128958720Y-90863791D01*
X128898229Y-91167898D01*
X128284717Y-91167898D01*
X127784291Y-90019740D01*
X127417054Y-88791780D01*
X127199999Y-87528595D01*
X127136271Y-86248483D01*
X127154844Y-85986164D01*
X128555600Y-85986164D01*
X128555600Y-86733836D01*
X128841721Y-87424595D01*
X129370405Y-87953279D01*
X130061164Y-88239400D01*
X130808836Y-88239400D01*
X131499595Y-87953279D01*
X132028279Y-87424595D01*
X132314400Y-86733836D01*
X132314400Y-85986164D01*
X132028279Y-85295405D01*
X131499595Y-84766721D01*
X130808836Y-84480600D01*
X130061164Y-84480600D01*
X129370405Y-84766721D01*
X128841721Y-85295405D01*
X128555600Y-85986164D01*
X127154844Y-85986164D01*
X127226793Y-84969986D01*
X127470255Y-83711624D01*
X127863128Y-82491624D01*
X128399724Y-81327659D01*
X129072268Y-80236589D01*
X129871018Y-79234219D01*
X130478541Y-78636164D01*
X135905600Y-78636164D01*
X135905600Y-79383836D01*
X136191721Y-80074595D01*
X136720405Y-80603279D01*
X137411164Y-80889400D01*
X138158836Y-80889400D01*
X138849595Y-80603279D01*
X139378279Y-80074595D01*
X139664400Y-79383836D01*
X139664400Y-78636164D01*
X139378279Y-77945405D01*
X138849595Y-77416721D01*
X138158836Y-77130600D01*
X137411164Y-77130600D01*
X136720405Y-77416721D01*
X136191721Y-77945405D01*
X135905600Y-78636164D01*
X130478541Y-78636164D01*
X130784405Y-78335068D01*
X131799198Y-77552160D01*
X132900697Y-76896837D01*
X134072947Y-76378591D01*
X135298967Y-76004928D01*
X136560998Y-75781262D01*
X137840759Y-75710833D01*
X139119713Y-75794660D01*
G04 #@! TD*
M02*
