G04 #@! TF.GenerationSoftware,KiCad,Pcbnew,5.0.2-bee76a0~70~ubuntu18.04.1*
G04 #@! TF.CreationDate,2020-10-08T13:14:13+02:00*
G04 #@! TF.ProjectId,TLI5012B,544c4935-3031-4324-922e-6b696361645f,rev?*
G04 #@! TF.SameCoordinates,Original*
G04 #@! TF.FileFunction,Copper,L1,Top*
G04 #@! TF.FilePolarity,Positive*
%FSLAX46Y46*%
G04 Gerber Fmt 4.6, Leading zero omitted, Abs format (unit mm)*
G04 Created by KiCad (PCBNEW 5.0.2-bee76a0~70~ubuntu18.04.1) date Do 08 Okt 2020 13:14:13 CEST*
%MOMM*%
%LPD*%
G01*
G04 APERTURE LIST*
G04 #@! TA.AperFunction,ComponentPad*
%ADD10C,1.700000*%
G04 #@! TD*
G04 #@! TA.AperFunction,Conductor*
%ADD11C,0.100000*%
G04 #@! TD*
G04 #@! TA.AperFunction,Conductor*
%ADD12C,1.700000*%
G04 #@! TD*
G04 #@! TA.AperFunction,SMDPad,CuDef*
%ADD13R,1.310000X0.650000*%
G04 #@! TD*
G04 #@! TA.AperFunction,ViaPad*
%ADD14C,0.800000*%
G04 #@! TD*
G04 #@! TA.AperFunction,Conductor*
%ADD15C,0.152400*%
G04 #@! TD*
G04 #@! TA.AperFunction,Conductor*
%ADD16C,0.254000*%
G04 #@! TD*
G04 APERTURE END LIST*
D10*
G04 #@! TO.P,J1,1*
G04 #@! TO.N,/IFC*
X133875000Y-98100000D03*
D11*
G04 #@! TD*
G04 #@! TO.N,/IFC*
G04 #@! TO.C,J1*
G36*
X133875000Y-96897918D02*
X135077082Y-98100000D01*
X133875000Y-99302082D01*
X132672918Y-98100000D01*
X133875000Y-96897918D01*
X133875000Y-96897918D01*
G37*
D10*
G04 #@! TO.P,J1,2*
G04 #@! TO.N,/IFB*
X132078949Y-96303949D03*
D12*
G04 #@! TD*
G04 #@! TO.N,/IFB*
G04 #@! TO.C,J1*
X132078949Y-96303949D02*
X132078949Y-96303949D01*
D10*
G04 #@! TO.P,J1,3*
G04 #@! TO.N,/IFA*
X130282898Y-94507898D03*
D12*
G04 #@! TD*
G04 #@! TO.N,/IFA*
G04 #@! TO.C,J1*
X130282898Y-94507898D02*
X130282898Y-94507898D01*
D10*
G04 #@! TO.P,J1,4*
G04 #@! TO.N,GND*
X128486846Y-92711846D03*
D12*
G04 #@! TD*
G04 #@! TO.N,GND*
G04 #@! TO.C,J1*
X128486846Y-92711846D02*
X128486846Y-92711846D01*
D10*
G04 #@! TO.P,J1,5*
G04 #@! TO.N,+5V*
X126690795Y-90915795D03*
D12*
G04 #@! TD*
G04 #@! TO.N,+5V*
G04 #@! TO.C,J1*
X126690795Y-90915795D02*
X126690795Y-90915795D01*
D13*
G04 #@! TO.P,U1,2*
G04 #@! TO.N,/SCK*
X140630000Y-86995000D03*
G04 #@! TO.P,U1,1*
G04 #@! TO.N,/IFC*
X140630000Y-88265000D03*
G04 #@! TO.P,U1,4*
G04 #@! TO.N,/DATA*
X140630000Y-84455000D03*
G04 #@! TO.P,U1,3*
G04 #@! TO.N,/CSQ*
X140630000Y-85725000D03*
G04 #@! TO.P,U1,6*
G04 #@! TO.N,+5V*
X134940000Y-85725000D03*
G04 #@! TO.P,U1,5*
G04 #@! TO.N,/IFA*
X134940000Y-84455000D03*
G04 #@! TO.P,U1,7*
G04 #@! TO.N,GND*
X134940000Y-86995000D03*
G04 #@! TO.P,U1,8*
G04 #@! TO.N,/IFB*
X134940000Y-88265000D03*
G04 #@! TD*
D14*
G04 #@! TO.N,+5V*
X134940000Y-85725000D03*
G04 #@! TO.N,GND*
X134940000Y-86995000D03*
G04 #@! TO.N,/IFA*
X134940000Y-84455000D03*
G04 #@! TD*
D15*
G04 #@! TO.N,+5V*
X131259205Y-90915795D02*
X127892876Y-90915795D01*
X133875000Y-88300000D02*
X131259205Y-90915795D01*
X127892876Y-90915795D02*
X126690795Y-90915795D01*
X133875000Y-85982600D02*
X133875000Y-88300000D01*
X134132600Y-85725000D02*
X133875000Y-85982600D01*
X134940000Y-85725000D02*
X134132600Y-85725000D01*
G04 #@! TO.N,/IFB*
X134940000Y-88265000D02*
X134940000Y-88742400D01*
X134940000Y-88742400D02*
X134103601Y-89578799D01*
X134103601Y-89578799D02*
X134096201Y-89578799D01*
X132078949Y-91596051D02*
X132078949Y-92700000D01*
X134096201Y-89578799D02*
X132078949Y-91596051D01*
X132078949Y-92700000D02*
X132078949Y-96303949D01*
G04 #@! TO.N,/IFC*
X139822600Y-88265000D02*
X138987600Y-89100000D01*
X140630000Y-88265000D02*
X139822600Y-88265000D01*
X133875000Y-96797918D02*
X133875000Y-98100000D01*
X136006066Y-89100000D02*
X133875000Y-91231066D01*
X133875000Y-91231066D02*
X133875000Y-96797918D01*
X138987600Y-89100000D02*
X136006066Y-89100000D01*
G04 #@! TD*
D16*
G04 #@! TO.N,GND*
G36*
X139432304Y-75823914D02*
X140686142Y-76098124D01*
X141897964Y-76520983D01*
X143050197Y-77086359D01*
X144126174Y-77786072D01*
X145110289Y-78609977D01*
X145988301Y-79546148D01*
X146747479Y-80581012D01*
X147376838Y-81699597D01*
X147867253Y-82885682D01*
X148211625Y-84122095D01*
X148404963Y-85390924D01*
X148444467Y-86673790D01*
X148329567Y-87952112D01*
X148061924Y-89207374D01*
X147645418Y-90421388D01*
X147086080Y-91576572D01*
X146392020Y-92656184D01*
X145573273Y-93644609D01*
X144641709Y-94527513D01*
X143610836Y-95292097D01*
X142495567Y-95927302D01*
X141312061Y-96423924D01*
X140077476Y-96774762D01*
X138809665Y-96974744D01*
X137523384Y-97021096D01*
X136667637Y-96966324D01*
X136624984Y-96966166D01*
X136582620Y-96971133D01*
X136541160Y-96981154D01*
X136501204Y-96996083D01*
X136463332Y-97015705D01*
X136428090Y-97039734D01*
X136395990Y-97067822D01*
X136367498Y-97099564D01*
X136343025Y-97134499D01*
X136335823Y-97147980D01*
X135356530Y-98127273D01*
X135361955Y-98100000D01*
X135340270Y-97990984D01*
X135278518Y-97898564D01*
X134230600Y-96850646D01*
X134230600Y-93336164D01*
X135905600Y-93336164D01*
X135905600Y-94083836D01*
X136191721Y-94774595D01*
X136720405Y-95303279D01*
X137411164Y-95589400D01*
X138158836Y-95589400D01*
X138849595Y-95303279D01*
X139378279Y-94774595D01*
X139664400Y-94083836D01*
X139664400Y-93336164D01*
X139378279Y-92645405D01*
X138849595Y-92116721D01*
X138158836Y-91830600D01*
X137411164Y-91830600D01*
X136720405Y-92116721D01*
X136191721Y-92645405D01*
X135905600Y-93336164D01*
X134230600Y-93336164D01*
X134230600Y-91378360D01*
X136153360Y-89455600D01*
X138952580Y-89455600D01*
X138987600Y-89462566D01*
X139022620Y-89455600D01*
X139126348Y-89434967D01*
X139243973Y-89356373D01*
X139263811Y-89326683D01*
X139788847Y-88801647D01*
X139865984Y-88853188D01*
X139975000Y-88874873D01*
X141285000Y-88874873D01*
X141394016Y-88853188D01*
X141486436Y-88791436D01*
X141548188Y-88699016D01*
X141569873Y-88590000D01*
X141569873Y-87940000D01*
X141548188Y-87830984D01*
X141486436Y-87738564D01*
X141394016Y-87676812D01*
X141285000Y-87655127D01*
X139975000Y-87655127D01*
X139865984Y-87676812D01*
X139773564Y-87738564D01*
X139711812Y-87830984D01*
X139692450Y-87928323D01*
X139683852Y-87930033D01*
X139566227Y-88008627D01*
X139546389Y-88038317D01*
X138840306Y-88744400D01*
X136041080Y-88744400D01*
X136006065Y-88737435D01*
X135971050Y-88744400D01*
X135971046Y-88744400D01*
X135867318Y-88765033D01*
X135749693Y-88843627D01*
X135729856Y-88873316D01*
X133648315Y-90954857D01*
X133618627Y-90974694D01*
X133598791Y-91004381D01*
X133598790Y-91004382D01*
X133540033Y-91092319D01*
X133512434Y-91231066D01*
X133519400Y-91266086D01*
X133519401Y-96762894D01*
X133519400Y-96762899D01*
X133519400Y-96850646D01*
X132471482Y-97898564D01*
X132409730Y-97990984D01*
X132388045Y-98100000D01*
X132409730Y-98209016D01*
X132471482Y-98301436D01*
X133673564Y-99503518D01*
X133765984Y-99565270D01*
X133875000Y-99586955D01*
X133902274Y-99581530D01*
X133765272Y-99718532D01*
X128216120Y-94157329D01*
X128708754Y-94180182D01*
X129253770Y-93983491D01*
X129331003Y-93735611D01*
X129396705Y-93801313D01*
X129219027Y-94067228D01*
X129131372Y-94507898D01*
X129219027Y-94948568D01*
X129468646Y-95322150D01*
X129842228Y-95571769D01*
X130171663Y-95637298D01*
X130394133Y-95637298D01*
X130723568Y-95571769D01*
X131097150Y-95322150D01*
X131346769Y-94948568D01*
X131434424Y-94507898D01*
X131346769Y-94067228D01*
X131097150Y-93693646D01*
X130723568Y-93444027D01*
X130394133Y-93378498D01*
X130171663Y-93378498D01*
X129842228Y-93444027D01*
X129576313Y-93621705D01*
X129510611Y-93556003D01*
X129758491Y-93478770D01*
X129955182Y-92933754D01*
X129928332Y-92354954D01*
X129758483Y-91944928D01*
X129510139Y-91868158D01*
X128666451Y-92711846D01*
X128680594Y-92725989D01*
X128500989Y-92905594D01*
X128486846Y-92891451D01*
X128472704Y-92905594D01*
X128293099Y-92725989D01*
X128307241Y-92711846D01*
X128293099Y-92697704D01*
X128472704Y-92518099D01*
X128486846Y-92532241D01*
X129330534Y-91688553D01*
X129253764Y-91440209D01*
X128846237Y-91271395D01*
X131224185Y-91271395D01*
X131259205Y-91278361D01*
X131294225Y-91271395D01*
X131397953Y-91250762D01*
X131515578Y-91172168D01*
X131535416Y-91142478D01*
X134014689Y-88663206D01*
X134021812Y-88699016D01*
X134083564Y-88791436D01*
X134175984Y-88853188D01*
X134285000Y-88874873D01*
X134304632Y-88874873D01*
X133891819Y-89287687D01*
X133839828Y-89322426D01*
X133819991Y-89352115D01*
X131852264Y-91319842D01*
X131822576Y-91339679D01*
X131802740Y-91369366D01*
X131802739Y-91369367D01*
X131743982Y-91457304D01*
X131716383Y-91596051D01*
X131723349Y-91631071D01*
X131723350Y-92664976D01*
X131723349Y-92664981D01*
X131723350Y-95223156D01*
X131638279Y-95240078D01*
X131264697Y-95489697D01*
X131015078Y-95863279D01*
X130927423Y-96303949D01*
X131015078Y-96744619D01*
X131264697Y-97118201D01*
X131638279Y-97367820D01*
X131967714Y-97433349D01*
X132190184Y-97433349D01*
X132519619Y-97367820D01*
X132893201Y-97118201D01*
X133142820Y-96744619D01*
X133230475Y-96303949D01*
X133142820Y-95863279D01*
X132893201Y-95489697D01*
X132519619Y-95240078D01*
X132434549Y-95223156D01*
X132434549Y-91743345D01*
X134307983Y-89869911D01*
X134359974Y-89835172D01*
X134379812Y-89805482D01*
X135166686Y-89018609D01*
X135196373Y-88998773D01*
X135274967Y-88881148D01*
X135276215Y-88874873D01*
X135595000Y-88874873D01*
X135704016Y-88853188D01*
X135796436Y-88791436D01*
X135858188Y-88699016D01*
X135879873Y-88590000D01*
X135879873Y-87940000D01*
X135870560Y-87893179D01*
X135954699Y-87858327D01*
X136133327Y-87679698D01*
X136230000Y-87446309D01*
X136230000Y-87280750D01*
X136071250Y-87122000D01*
X135067000Y-87122000D01*
X135067000Y-87142000D01*
X134813000Y-87142000D01*
X134813000Y-87122000D01*
X134793000Y-87122000D01*
X134793000Y-86868000D01*
X134813000Y-86868000D01*
X134813000Y-86848000D01*
X135067000Y-86848000D01*
X135067000Y-86868000D01*
X136071250Y-86868000D01*
X136230000Y-86709250D01*
X136230000Y-86670000D01*
X139690127Y-86670000D01*
X139690127Y-87320000D01*
X139711812Y-87429016D01*
X139773564Y-87521436D01*
X139865984Y-87583188D01*
X139975000Y-87604873D01*
X141285000Y-87604873D01*
X141394016Y-87583188D01*
X141486436Y-87521436D01*
X141548188Y-87429016D01*
X141569873Y-87320000D01*
X141569873Y-86670000D01*
X141548188Y-86560984D01*
X141486436Y-86468564D01*
X141394016Y-86406812D01*
X141285000Y-86385127D01*
X139975000Y-86385127D01*
X139865984Y-86406812D01*
X139773564Y-86468564D01*
X139711812Y-86560984D01*
X139690127Y-86670000D01*
X136230000Y-86670000D01*
X136230000Y-86543691D01*
X136133327Y-86310302D01*
X135954699Y-86131673D01*
X135870560Y-86096821D01*
X135879873Y-86050000D01*
X135879873Y-85400000D01*
X139690127Y-85400000D01*
X139690127Y-86050000D01*
X139711812Y-86159016D01*
X139773564Y-86251436D01*
X139865984Y-86313188D01*
X139975000Y-86334873D01*
X141285000Y-86334873D01*
X141394016Y-86313188D01*
X141486436Y-86251436D01*
X141548188Y-86159016D01*
X141569873Y-86050000D01*
X141569873Y-85986164D01*
X143255600Y-85986164D01*
X143255600Y-86733836D01*
X143541721Y-87424595D01*
X144070405Y-87953279D01*
X144761164Y-88239400D01*
X145508836Y-88239400D01*
X146199595Y-87953279D01*
X146728279Y-87424595D01*
X147014400Y-86733836D01*
X147014400Y-85986164D01*
X146728279Y-85295405D01*
X146199595Y-84766721D01*
X145508836Y-84480600D01*
X144761164Y-84480600D01*
X144070405Y-84766721D01*
X143541721Y-85295405D01*
X143255600Y-85986164D01*
X141569873Y-85986164D01*
X141569873Y-85400000D01*
X141548188Y-85290984D01*
X141486436Y-85198564D01*
X141394016Y-85136812D01*
X141285000Y-85115127D01*
X139975000Y-85115127D01*
X139865984Y-85136812D01*
X139773564Y-85198564D01*
X139711812Y-85290984D01*
X139690127Y-85400000D01*
X135879873Y-85400000D01*
X135858188Y-85290984D01*
X135796436Y-85198564D01*
X135704016Y-85136812D01*
X135595000Y-85115127D01*
X135242993Y-85115127D01*
X135182332Y-85090000D01*
X135242993Y-85064873D01*
X135595000Y-85064873D01*
X135704016Y-85043188D01*
X135796436Y-84981436D01*
X135858188Y-84889016D01*
X135879873Y-84780000D01*
X135879873Y-84130000D01*
X139690127Y-84130000D01*
X139690127Y-84780000D01*
X139711812Y-84889016D01*
X139773564Y-84981436D01*
X139865984Y-85043188D01*
X139975000Y-85064873D01*
X141285000Y-85064873D01*
X141394016Y-85043188D01*
X141486436Y-84981436D01*
X141548188Y-84889016D01*
X141569873Y-84780000D01*
X141569873Y-84130000D01*
X141548188Y-84020984D01*
X141486436Y-83928564D01*
X141394016Y-83866812D01*
X141285000Y-83845127D01*
X139975000Y-83845127D01*
X139865984Y-83866812D01*
X139773564Y-83928564D01*
X139711812Y-84020984D01*
X139690127Y-84130000D01*
X135879873Y-84130000D01*
X135858188Y-84020984D01*
X135796436Y-83928564D01*
X135704016Y-83866812D01*
X135595000Y-83845127D01*
X135242993Y-83845127D01*
X135075141Y-83775600D01*
X134804859Y-83775600D01*
X134637007Y-83845127D01*
X134285000Y-83845127D01*
X134175984Y-83866812D01*
X134083564Y-83928564D01*
X134021812Y-84020984D01*
X134000127Y-84130000D01*
X134000127Y-84780000D01*
X134021812Y-84889016D01*
X134083564Y-84981436D01*
X134175984Y-85043188D01*
X134285000Y-85064873D01*
X134637007Y-85064873D01*
X134697668Y-85090000D01*
X134637007Y-85115127D01*
X134285000Y-85115127D01*
X134175984Y-85136812D01*
X134083564Y-85198564D01*
X134021812Y-85290984D01*
X134002450Y-85388323D01*
X133993852Y-85390033D01*
X133876227Y-85468627D01*
X133856389Y-85498317D01*
X133648315Y-85706391D01*
X133618627Y-85726228D01*
X133598791Y-85755915D01*
X133598790Y-85755916D01*
X133540033Y-85843853D01*
X133512434Y-85982600D01*
X133519400Y-86017620D01*
X133519401Y-88152704D01*
X131111911Y-90560195D01*
X127771588Y-90560195D01*
X127754666Y-90475125D01*
X127505047Y-90101543D01*
X127131465Y-89851924D01*
X126802030Y-89786395D01*
X126579560Y-89786395D01*
X126250125Y-89851924D01*
X126081805Y-89964392D01*
X127218244Y-88827953D01*
X127225964Y-88821743D01*
X127255747Y-88791209D01*
X127258207Y-88787990D01*
X127260279Y-88785918D01*
X127263680Y-88780828D01*
X127281646Y-88757318D01*
X127298365Y-88728919D01*
X127318837Y-88698280D01*
X127325788Y-88663335D01*
X127332599Y-88640612D01*
X127339849Y-88598580D01*
X127340250Y-88590627D01*
X127346342Y-88560000D01*
X127340065Y-88528445D01*
X127339012Y-88513430D01*
X127338510Y-88509753D01*
X127155472Y-87217813D01*
X127130451Y-85986164D01*
X128555600Y-85986164D01*
X128555600Y-86733836D01*
X128841721Y-87424595D01*
X129370405Y-87953279D01*
X130061164Y-88239400D01*
X130808836Y-88239400D01*
X131499595Y-87953279D01*
X132028279Y-87424595D01*
X132314400Y-86733836D01*
X132314400Y-85986164D01*
X132028279Y-85295405D01*
X131499595Y-84766721D01*
X130808836Y-84480600D01*
X130061164Y-84480600D01*
X129370405Y-84766721D01*
X128841721Y-85295405D01*
X128555600Y-85986164D01*
X127130451Y-85986164D01*
X127129403Y-85934598D01*
X127257682Y-84657559D01*
X127538457Y-83405161D01*
X127967651Y-82195584D01*
X128539058Y-81046314D01*
X129244390Y-79974023D01*
X130073440Y-78994232D01*
X130459255Y-78636164D01*
X135905600Y-78636164D01*
X135905600Y-79383836D01*
X136191721Y-80074595D01*
X136720405Y-80603279D01*
X137411164Y-80889400D01*
X138158836Y-80889400D01*
X138849595Y-80603279D01*
X139378279Y-80074595D01*
X139664400Y-79383836D01*
X139664400Y-78636164D01*
X139378279Y-77945405D01*
X138849595Y-77416721D01*
X138158836Y-77130600D01*
X137411164Y-77130600D01*
X136720405Y-77416721D01*
X136191721Y-77945405D01*
X135905600Y-78636164D01*
X130459255Y-78636164D01*
X131014192Y-78121137D01*
X132053017Y-77367387D01*
X133174882Y-76743893D01*
X134363519Y-76259694D01*
X135601715Y-75921801D01*
X136871547Y-75735108D01*
X138154596Y-75702321D01*
X139432304Y-75823914D01*
X139432304Y-75823914D01*
G37*
X139432304Y-75823914D02*
X140686142Y-76098124D01*
X141897964Y-76520983D01*
X143050197Y-77086359D01*
X144126174Y-77786072D01*
X145110289Y-78609977D01*
X145988301Y-79546148D01*
X146747479Y-80581012D01*
X147376838Y-81699597D01*
X147867253Y-82885682D01*
X148211625Y-84122095D01*
X148404963Y-85390924D01*
X148444467Y-86673790D01*
X148329567Y-87952112D01*
X148061924Y-89207374D01*
X147645418Y-90421388D01*
X147086080Y-91576572D01*
X146392020Y-92656184D01*
X145573273Y-93644609D01*
X144641709Y-94527513D01*
X143610836Y-95292097D01*
X142495567Y-95927302D01*
X141312061Y-96423924D01*
X140077476Y-96774762D01*
X138809665Y-96974744D01*
X137523384Y-97021096D01*
X136667637Y-96966324D01*
X136624984Y-96966166D01*
X136582620Y-96971133D01*
X136541160Y-96981154D01*
X136501204Y-96996083D01*
X136463332Y-97015705D01*
X136428090Y-97039734D01*
X136395990Y-97067822D01*
X136367498Y-97099564D01*
X136343025Y-97134499D01*
X136335823Y-97147980D01*
X135356530Y-98127273D01*
X135361955Y-98100000D01*
X135340270Y-97990984D01*
X135278518Y-97898564D01*
X134230600Y-96850646D01*
X134230600Y-93336164D01*
X135905600Y-93336164D01*
X135905600Y-94083836D01*
X136191721Y-94774595D01*
X136720405Y-95303279D01*
X137411164Y-95589400D01*
X138158836Y-95589400D01*
X138849595Y-95303279D01*
X139378279Y-94774595D01*
X139664400Y-94083836D01*
X139664400Y-93336164D01*
X139378279Y-92645405D01*
X138849595Y-92116721D01*
X138158836Y-91830600D01*
X137411164Y-91830600D01*
X136720405Y-92116721D01*
X136191721Y-92645405D01*
X135905600Y-93336164D01*
X134230600Y-93336164D01*
X134230600Y-91378360D01*
X136153360Y-89455600D01*
X138952580Y-89455600D01*
X138987600Y-89462566D01*
X139022620Y-89455600D01*
X139126348Y-89434967D01*
X139243973Y-89356373D01*
X139263811Y-89326683D01*
X139788847Y-88801647D01*
X139865984Y-88853188D01*
X139975000Y-88874873D01*
X141285000Y-88874873D01*
X141394016Y-88853188D01*
X141486436Y-88791436D01*
X141548188Y-88699016D01*
X141569873Y-88590000D01*
X141569873Y-87940000D01*
X141548188Y-87830984D01*
X141486436Y-87738564D01*
X141394016Y-87676812D01*
X141285000Y-87655127D01*
X139975000Y-87655127D01*
X139865984Y-87676812D01*
X139773564Y-87738564D01*
X139711812Y-87830984D01*
X139692450Y-87928323D01*
X139683852Y-87930033D01*
X139566227Y-88008627D01*
X139546389Y-88038317D01*
X138840306Y-88744400D01*
X136041080Y-88744400D01*
X136006065Y-88737435D01*
X135971050Y-88744400D01*
X135971046Y-88744400D01*
X135867318Y-88765033D01*
X135749693Y-88843627D01*
X135729856Y-88873316D01*
X133648315Y-90954857D01*
X133618627Y-90974694D01*
X133598791Y-91004381D01*
X133598790Y-91004382D01*
X133540033Y-91092319D01*
X133512434Y-91231066D01*
X133519400Y-91266086D01*
X133519401Y-96762894D01*
X133519400Y-96762899D01*
X133519400Y-96850646D01*
X132471482Y-97898564D01*
X132409730Y-97990984D01*
X132388045Y-98100000D01*
X132409730Y-98209016D01*
X132471482Y-98301436D01*
X133673564Y-99503518D01*
X133765984Y-99565270D01*
X133875000Y-99586955D01*
X133902274Y-99581530D01*
X133765272Y-99718532D01*
X128216120Y-94157329D01*
X128708754Y-94180182D01*
X129253770Y-93983491D01*
X129331003Y-93735611D01*
X129396705Y-93801313D01*
X129219027Y-94067228D01*
X129131372Y-94507898D01*
X129219027Y-94948568D01*
X129468646Y-95322150D01*
X129842228Y-95571769D01*
X130171663Y-95637298D01*
X130394133Y-95637298D01*
X130723568Y-95571769D01*
X131097150Y-95322150D01*
X131346769Y-94948568D01*
X131434424Y-94507898D01*
X131346769Y-94067228D01*
X131097150Y-93693646D01*
X130723568Y-93444027D01*
X130394133Y-93378498D01*
X130171663Y-93378498D01*
X129842228Y-93444027D01*
X129576313Y-93621705D01*
X129510611Y-93556003D01*
X129758491Y-93478770D01*
X129955182Y-92933754D01*
X129928332Y-92354954D01*
X129758483Y-91944928D01*
X129510139Y-91868158D01*
X128666451Y-92711846D01*
X128680594Y-92725989D01*
X128500989Y-92905594D01*
X128486846Y-92891451D01*
X128472704Y-92905594D01*
X128293099Y-92725989D01*
X128307241Y-92711846D01*
X128293099Y-92697704D01*
X128472704Y-92518099D01*
X128486846Y-92532241D01*
X129330534Y-91688553D01*
X129253764Y-91440209D01*
X128846237Y-91271395D01*
X131224185Y-91271395D01*
X131259205Y-91278361D01*
X131294225Y-91271395D01*
X131397953Y-91250762D01*
X131515578Y-91172168D01*
X131535416Y-91142478D01*
X134014689Y-88663206D01*
X134021812Y-88699016D01*
X134083564Y-88791436D01*
X134175984Y-88853188D01*
X134285000Y-88874873D01*
X134304632Y-88874873D01*
X133891819Y-89287687D01*
X133839828Y-89322426D01*
X133819991Y-89352115D01*
X131852264Y-91319842D01*
X131822576Y-91339679D01*
X131802740Y-91369366D01*
X131802739Y-91369367D01*
X131743982Y-91457304D01*
X131716383Y-91596051D01*
X131723349Y-91631071D01*
X131723350Y-92664976D01*
X131723349Y-92664981D01*
X131723350Y-95223156D01*
X131638279Y-95240078D01*
X131264697Y-95489697D01*
X131015078Y-95863279D01*
X130927423Y-96303949D01*
X131015078Y-96744619D01*
X131264697Y-97118201D01*
X131638279Y-97367820D01*
X131967714Y-97433349D01*
X132190184Y-97433349D01*
X132519619Y-97367820D01*
X132893201Y-97118201D01*
X133142820Y-96744619D01*
X133230475Y-96303949D01*
X133142820Y-95863279D01*
X132893201Y-95489697D01*
X132519619Y-95240078D01*
X132434549Y-95223156D01*
X132434549Y-91743345D01*
X134307983Y-89869911D01*
X134359974Y-89835172D01*
X134379812Y-89805482D01*
X135166686Y-89018609D01*
X135196373Y-88998773D01*
X135274967Y-88881148D01*
X135276215Y-88874873D01*
X135595000Y-88874873D01*
X135704016Y-88853188D01*
X135796436Y-88791436D01*
X135858188Y-88699016D01*
X135879873Y-88590000D01*
X135879873Y-87940000D01*
X135870560Y-87893179D01*
X135954699Y-87858327D01*
X136133327Y-87679698D01*
X136230000Y-87446309D01*
X136230000Y-87280750D01*
X136071250Y-87122000D01*
X135067000Y-87122000D01*
X135067000Y-87142000D01*
X134813000Y-87142000D01*
X134813000Y-87122000D01*
X134793000Y-87122000D01*
X134793000Y-86868000D01*
X134813000Y-86868000D01*
X134813000Y-86848000D01*
X135067000Y-86848000D01*
X135067000Y-86868000D01*
X136071250Y-86868000D01*
X136230000Y-86709250D01*
X136230000Y-86670000D01*
X139690127Y-86670000D01*
X139690127Y-87320000D01*
X139711812Y-87429016D01*
X139773564Y-87521436D01*
X139865984Y-87583188D01*
X139975000Y-87604873D01*
X141285000Y-87604873D01*
X141394016Y-87583188D01*
X141486436Y-87521436D01*
X141548188Y-87429016D01*
X141569873Y-87320000D01*
X141569873Y-86670000D01*
X141548188Y-86560984D01*
X141486436Y-86468564D01*
X141394016Y-86406812D01*
X141285000Y-86385127D01*
X139975000Y-86385127D01*
X139865984Y-86406812D01*
X139773564Y-86468564D01*
X139711812Y-86560984D01*
X139690127Y-86670000D01*
X136230000Y-86670000D01*
X136230000Y-86543691D01*
X136133327Y-86310302D01*
X135954699Y-86131673D01*
X135870560Y-86096821D01*
X135879873Y-86050000D01*
X135879873Y-85400000D01*
X139690127Y-85400000D01*
X139690127Y-86050000D01*
X139711812Y-86159016D01*
X139773564Y-86251436D01*
X139865984Y-86313188D01*
X139975000Y-86334873D01*
X141285000Y-86334873D01*
X141394016Y-86313188D01*
X141486436Y-86251436D01*
X141548188Y-86159016D01*
X141569873Y-86050000D01*
X141569873Y-85986164D01*
X143255600Y-85986164D01*
X143255600Y-86733836D01*
X143541721Y-87424595D01*
X144070405Y-87953279D01*
X144761164Y-88239400D01*
X145508836Y-88239400D01*
X146199595Y-87953279D01*
X146728279Y-87424595D01*
X147014400Y-86733836D01*
X147014400Y-85986164D01*
X146728279Y-85295405D01*
X146199595Y-84766721D01*
X145508836Y-84480600D01*
X144761164Y-84480600D01*
X144070405Y-84766721D01*
X143541721Y-85295405D01*
X143255600Y-85986164D01*
X141569873Y-85986164D01*
X141569873Y-85400000D01*
X141548188Y-85290984D01*
X141486436Y-85198564D01*
X141394016Y-85136812D01*
X141285000Y-85115127D01*
X139975000Y-85115127D01*
X139865984Y-85136812D01*
X139773564Y-85198564D01*
X139711812Y-85290984D01*
X139690127Y-85400000D01*
X135879873Y-85400000D01*
X135858188Y-85290984D01*
X135796436Y-85198564D01*
X135704016Y-85136812D01*
X135595000Y-85115127D01*
X135242993Y-85115127D01*
X135182332Y-85090000D01*
X135242993Y-85064873D01*
X135595000Y-85064873D01*
X135704016Y-85043188D01*
X135796436Y-84981436D01*
X135858188Y-84889016D01*
X135879873Y-84780000D01*
X135879873Y-84130000D01*
X139690127Y-84130000D01*
X139690127Y-84780000D01*
X139711812Y-84889016D01*
X139773564Y-84981436D01*
X139865984Y-85043188D01*
X139975000Y-85064873D01*
X141285000Y-85064873D01*
X141394016Y-85043188D01*
X141486436Y-84981436D01*
X141548188Y-84889016D01*
X141569873Y-84780000D01*
X141569873Y-84130000D01*
X141548188Y-84020984D01*
X141486436Y-83928564D01*
X141394016Y-83866812D01*
X141285000Y-83845127D01*
X139975000Y-83845127D01*
X139865984Y-83866812D01*
X139773564Y-83928564D01*
X139711812Y-84020984D01*
X139690127Y-84130000D01*
X135879873Y-84130000D01*
X135858188Y-84020984D01*
X135796436Y-83928564D01*
X135704016Y-83866812D01*
X135595000Y-83845127D01*
X135242993Y-83845127D01*
X135075141Y-83775600D01*
X134804859Y-83775600D01*
X134637007Y-83845127D01*
X134285000Y-83845127D01*
X134175984Y-83866812D01*
X134083564Y-83928564D01*
X134021812Y-84020984D01*
X134000127Y-84130000D01*
X134000127Y-84780000D01*
X134021812Y-84889016D01*
X134083564Y-84981436D01*
X134175984Y-85043188D01*
X134285000Y-85064873D01*
X134637007Y-85064873D01*
X134697668Y-85090000D01*
X134637007Y-85115127D01*
X134285000Y-85115127D01*
X134175984Y-85136812D01*
X134083564Y-85198564D01*
X134021812Y-85290984D01*
X134002450Y-85388323D01*
X133993852Y-85390033D01*
X133876227Y-85468627D01*
X133856389Y-85498317D01*
X133648315Y-85706391D01*
X133618627Y-85726228D01*
X133598791Y-85755915D01*
X133598790Y-85755916D01*
X133540033Y-85843853D01*
X133512434Y-85982600D01*
X133519400Y-86017620D01*
X133519401Y-88152704D01*
X131111911Y-90560195D01*
X127771588Y-90560195D01*
X127754666Y-90475125D01*
X127505047Y-90101543D01*
X127131465Y-89851924D01*
X126802030Y-89786395D01*
X126579560Y-89786395D01*
X126250125Y-89851924D01*
X126081805Y-89964392D01*
X127218244Y-88827953D01*
X127225964Y-88821743D01*
X127255747Y-88791209D01*
X127258207Y-88787990D01*
X127260279Y-88785918D01*
X127263680Y-88780828D01*
X127281646Y-88757318D01*
X127298365Y-88728919D01*
X127318837Y-88698280D01*
X127325788Y-88663335D01*
X127332599Y-88640612D01*
X127339849Y-88598580D01*
X127340250Y-88590627D01*
X127346342Y-88560000D01*
X127340065Y-88528445D01*
X127339012Y-88513430D01*
X127338510Y-88509753D01*
X127155472Y-87217813D01*
X127130451Y-85986164D01*
X128555600Y-85986164D01*
X128555600Y-86733836D01*
X128841721Y-87424595D01*
X129370405Y-87953279D01*
X130061164Y-88239400D01*
X130808836Y-88239400D01*
X131499595Y-87953279D01*
X132028279Y-87424595D01*
X132314400Y-86733836D01*
X132314400Y-85986164D01*
X132028279Y-85295405D01*
X131499595Y-84766721D01*
X130808836Y-84480600D01*
X130061164Y-84480600D01*
X129370405Y-84766721D01*
X128841721Y-85295405D01*
X128555600Y-85986164D01*
X127130451Y-85986164D01*
X127129403Y-85934598D01*
X127257682Y-84657559D01*
X127538457Y-83405161D01*
X127967651Y-82195584D01*
X128539058Y-81046314D01*
X129244390Y-79974023D01*
X130073440Y-78994232D01*
X130459255Y-78636164D01*
X135905600Y-78636164D01*
X135905600Y-79383836D01*
X136191721Y-80074595D01*
X136720405Y-80603279D01*
X137411164Y-80889400D01*
X138158836Y-80889400D01*
X138849595Y-80603279D01*
X139378279Y-80074595D01*
X139664400Y-79383836D01*
X139664400Y-78636164D01*
X139378279Y-77945405D01*
X138849595Y-77416721D01*
X138158836Y-77130600D01*
X137411164Y-77130600D01*
X136720405Y-77416721D01*
X136191721Y-77945405D01*
X135905600Y-78636164D01*
X130459255Y-78636164D01*
X131014192Y-78121137D01*
X132053017Y-77367387D01*
X133174882Y-76743893D01*
X134363519Y-76259694D01*
X135601715Y-75921801D01*
X136871547Y-75735108D01*
X138154596Y-75702321D01*
X139432304Y-75823914D01*
G04 #@! TD*
M02*
