G04 #@! TF.GenerationSoftware,KiCad,Pcbnew,5.0.2-bee76a0~70~ubuntu18.04.1*
G04 #@! TF.CreationDate,2020-10-08T13:14:13+02:00*
G04 #@! TF.ProjectId,TLI5012B,544c4935-3031-4324-922e-6b696361645f,rev?*
G04 #@! TF.SameCoordinates,Original*
G04 #@! TF.FileFunction,Paste,Bot*
G04 #@! TF.FilePolarity,Positive*
%FSLAX46Y46*%
G04 Gerber Fmt 4.6, Leading zero omitted, Abs format (unit mm)*
G04 Created by KiCad (PCBNEW 5.0.2-bee76a0~70~ubuntu18.04.1) date Do 08 Okt 2020 13:14:13 CEST*
%MOMM*%
%LPD*%
G01*
G04 APERTURE LIST*
%ADD10C,0.100000*%
%ADD11C,0.590000*%
G04 APERTURE END LIST*
D10*
G04 #@! TO.C,C1*
G36*
X136861958Y-85620710D02*
X136876276Y-85622834D01*
X136890317Y-85626351D01*
X136903946Y-85631228D01*
X136917031Y-85637417D01*
X136929447Y-85644858D01*
X136941073Y-85653481D01*
X136951798Y-85663202D01*
X136961519Y-85673927D01*
X136970142Y-85685553D01*
X136977583Y-85697969D01*
X136983772Y-85711054D01*
X136988649Y-85724683D01*
X136992166Y-85738724D01*
X136994290Y-85753042D01*
X136995000Y-85767500D01*
X136995000Y-86062500D01*
X136994290Y-86076958D01*
X136992166Y-86091276D01*
X136988649Y-86105317D01*
X136983772Y-86118946D01*
X136977583Y-86132031D01*
X136970142Y-86144447D01*
X136961519Y-86156073D01*
X136951798Y-86166798D01*
X136941073Y-86176519D01*
X136929447Y-86185142D01*
X136917031Y-86192583D01*
X136903946Y-86198772D01*
X136890317Y-86203649D01*
X136876276Y-86207166D01*
X136861958Y-86209290D01*
X136847500Y-86210000D01*
X136502500Y-86210000D01*
X136488042Y-86209290D01*
X136473724Y-86207166D01*
X136459683Y-86203649D01*
X136446054Y-86198772D01*
X136432969Y-86192583D01*
X136420553Y-86185142D01*
X136408927Y-86176519D01*
X136398202Y-86166798D01*
X136388481Y-86156073D01*
X136379858Y-86144447D01*
X136372417Y-86132031D01*
X136366228Y-86118946D01*
X136361351Y-86105317D01*
X136357834Y-86091276D01*
X136355710Y-86076958D01*
X136355000Y-86062500D01*
X136355000Y-85767500D01*
X136355710Y-85753042D01*
X136357834Y-85738724D01*
X136361351Y-85724683D01*
X136366228Y-85711054D01*
X136372417Y-85697969D01*
X136379858Y-85685553D01*
X136388481Y-85673927D01*
X136398202Y-85663202D01*
X136408927Y-85653481D01*
X136420553Y-85644858D01*
X136432969Y-85637417D01*
X136446054Y-85631228D01*
X136459683Y-85626351D01*
X136473724Y-85622834D01*
X136488042Y-85620710D01*
X136502500Y-85620000D01*
X136847500Y-85620000D01*
X136861958Y-85620710D01*
X136861958Y-85620710D01*
G37*
D11*
X136675000Y-85915000D03*
D10*
G36*
X136861958Y-86590710D02*
X136876276Y-86592834D01*
X136890317Y-86596351D01*
X136903946Y-86601228D01*
X136917031Y-86607417D01*
X136929447Y-86614858D01*
X136941073Y-86623481D01*
X136951798Y-86633202D01*
X136961519Y-86643927D01*
X136970142Y-86655553D01*
X136977583Y-86667969D01*
X136983772Y-86681054D01*
X136988649Y-86694683D01*
X136992166Y-86708724D01*
X136994290Y-86723042D01*
X136995000Y-86737500D01*
X136995000Y-87032500D01*
X136994290Y-87046958D01*
X136992166Y-87061276D01*
X136988649Y-87075317D01*
X136983772Y-87088946D01*
X136977583Y-87102031D01*
X136970142Y-87114447D01*
X136961519Y-87126073D01*
X136951798Y-87136798D01*
X136941073Y-87146519D01*
X136929447Y-87155142D01*
X136917031Y-87162583D01*
X136903946Y-87168772D01*
X136890317Y-87173649D01*
X136876276Y-87177166D01*
X136861958Y-87179290D01*
X136847500Y-87180000D01*
X136502500Y-87180000D01*
X136488042Y-87179290D01*
X136473724Y-87177166D01*
X136459683Y-87173649D01*
X136446054Y-87168772D01*
X136432969Y-87162583D01*
X136420553Y-87155142D01*
X136408927Y-87146519D01*
X136398202Y-87136798D01*
X136388481Y-87126073D01*
X136379858Y-87114447D01*
X136372417Y-87102031D01*
X136366228Y-87088946D01*
X136361351Y-87075317D01*
X136357834Y-87061276D01*
X136355710Y-87046958D01*
X136355000Y-87032500D01*
X136355000Y-86737500D01*
X136355710Y-86723042D01*
X136357834Y-86708724D01*
X136361351Y-86694683D01*
X136366228Y-86681054D01*
X136372417Y-86667969D01*
X136379858Y-86655553D01*
X136388481Y-86643927D01*
X136398202Y-86633202D01*
X136408927Y-86623481D01*
X136420553Y-86614858D01*
X136432969Y-86607417D01*
X136446054Y-86601228D01*
X136459683Y-86596351D01*
X136473724Y-86592834D01*
X136488042Y-86590710D01*
X136502500Y-86590000D01*
X136847500Y-86590000D01*
X136861958Y-86590710D01*
X136861958Y-86590710D01*
G37*
D11*
X136675000Y-86885000D03*
G04 #@! TD*
M02*
