G04 #@! TF.GenerationSoftware,KiCad,Pcbnew,5.0.2-bee76a0~70~ubuntu18.04.1*
G04 #@! TF.CreationDate,2020-01-14T20:57:16+01:00*
G04 #@! TF.ProjectId,TLI5012B,544c4935-3031-4324-922e-6b696361645f,rev?*
G04 #@! TF.SameCoordinates,Original*
G04 #@! TF.FileFunction,Soldermask,Bot*
G04 #@! TF.FilePolarity,Negative*
%FSLAX46Y46*%
G04 Gerber Fmt 4.6, Leading zero omitted, Abs format (unit mm)*
G04 Created by KiCad (PCBNEW 5.0.2-bee76a0~70~ubuntu18.04.1) date Di 14 Jan 2020 20:57:16 CET*
%MOMM*%
%LPD*%
G01*
G04 APERTURE LIST*
%ADD10C,0.100000*%
G04 APERTURE END LIST*
D10*
G36*
X139345974Y-89524148D02*
X139380568Y-89534642D01*
X139412441Y-89551678D01*
X139440387Y-89574613D01*
X139463322Y-89602559D01*
X139480358Y-89634432D01*
X139490852Y-89669026D01*
X139495000Y-89711141D01*
X139495000Y-90318859D01*
X139490852Y-90360974D01*
X139480358Y-90395568D01*
X139459213Y-90435128D01*
X139455243Y-90441069D01*
X139445864Y-90463708D01*
X139441083Y-90487741D01*
X139441081Y-90512245D01*
X139445860Y-90536279D01*
X139455237Y-90558918D01*
X139459205Y-90564858D01*
X139480358Y-90604432D01*
X139490852Y-90639026D01*
X139495000Y-90681141D01*
X139495000Y-91288859D01*
X139490852Y-91330974D01*
X139480358Y-91365568D01*
X139463322Y-91397441D01*
X139440387Y-91425387D01*
X139412441Y-91448322D01*
X139380568Y-91465358D01*
X139345974Y-91475852D01*
X139303859Y-91480000D01*
X138646141Y-91480000D01*
X138604026Y-91475852D01*
X138569432Y-91465358D01*
X138537559Y-91448322D01*
X138509613Y-91425387D01*
X138486678Y-91397441D01*
X138469642Y-91365568D01*
X138459148Y-91330974D01*
X138455000Y-91288859D01*
X138455000Y-90681141D01*
X138459148Y-90639026D01*
X138469642Y-90604432D01*
X138490787Y-90564872D01*
X138494757Y-90558931D01*
X138504136Y-90536292D01*
X138508917Y-90512259D01*
X138508919Y-90487755D01*
X138504140Y-90463721D01*
X138494763Y-90441082D01*
X138490795Y-90435142D01*
X138469642Y-90395568D01*
X138459148Y-90360974D01*
X138455000Y-90318859D01*
X138455000Y-89711141D01*
X138459148Y-89669026D01*
X138469642Y-89634432D01*
X138486678Y-89602559D01*
X138509613Y-89574613D01*
X138537559Y-89551678D01*
X138569432Y-89534642D01*
X138604026Y-89524148D01*
X138646141Y-89520000D01*
X139303859Y-89520000D01*
X139345974Y-89524148D01*
X139345974Y-89524148D01*
G37*
G36*
X141575000Y-89200000D02*
X139675000Y-89200000D01*
X139675000Y-83800000D01*
X141575000Y-83800000D01*
X141575000Y-89200000D01*
X141575000Y-89200000D01*
G37*
G36*
X135675000Y-89200000D02*
X133775000Y-89200000D01*
X133775000Y-83800000D01*
X135675000Y-83800000D01*
X135675000Y-89200000D01*
X135675000Y-89200000D01*
G37*
G36*
X133222224Y-81010128D02*
X133354175Y-81050155D01*
X133475781Y-81115155D01*
X133582370Y-81202630D01*
X133623380Y-81252601D01*
X133640701Y-81269922D01*
X133661076Y-81283536D01*
X133683715Y-81292914D01*
X133707748Y-81297694D01*
X133732252Y-81297694D01*
X133756286Y-81292913D01*
X133778925Y-81283536D01*
X133799299Y-81269922D01*
X133816620Y-81252601D01*
X133857630Y-81202630D01*
X133964219Y-81115155D01*
X134085825Y-81050155D01*
X134217776Y-81010128D01*
X134320610Y-81000000D01*
X134389390Y-81000000D01*
X134492224Y-81010128D01*
X134624175Y-81050155D01*
X134745781Y-81115155D01*
X134852370Y-81202630D01*
X134893380Y-81252601D01*
X134910701Y-81269922D01*
X134931076Y-81283536D01*
X134953715Y-81292914D01*
X134977748Y-81297694D01*
X135002252Y-81297694D01*
X135026286Y-81292913D01*
X135048925Y-81283536D01*
X135069299Y-81269922D01*
X135086620Y-81252601D01*
X135127630Y-81202630D01*
X135234219Y-81115155D01*
X135355825Y-81050155D01*
X135487776Y-81010128D01*
X135590610Y-81000000D01*
X135659390Y-81000000D01*
X135762224Y-81010128D01*
X135894175Y-81050155D01*
X136015781Y-81115155D01*
X136122370Y-81202630D01*
X136163380Y-81252601D01*
X136180701Y-81269922D01*
X136201076Y-81283536D01*
X136223715Y-81292914D01*
X136247748Y-81297694D01*
X136272252Y-81297694D01*
X136296286Y-81292913D01*
X136318925Y-81283536D01*
X136339299Y-81269922D01*
X136356620Y-81252601D01*
X136397630Y-81202630D01*
X136504219Y-81115155D01*
X136625825Y-81050155D01*
X136757776Y-81010128D01*
X136860610Y-81000000D01*
X136929390Y-81000000D01*
X137032224Y-81010128D01*
X137164175Y-81050155D01*
X137285781Y-81115155D01*
X137392370Y-81202630D01*
X137433380Y-81252601D01*
X137450701Y-81269922D01*
X137471076Y-81283536D01*
X137493715Y-81292914D01*
X137517748Y-81297694D01*
X137542252Y-81297694D01*
X137566286Y-81292913D01*
X137588925Y-81283536D01*
X137609299Y-81269922D01*
X137626620Y-81252601D01*
X137667630Y-81202630D01*
X137774219Y-81115155D01*
X137895825Y-81050155D01*
X138027776Y-81010128D01*
X138130610Y-81000000D01*
X138199390Y-81000000D01*
X138302224Y-81010128D01*
X138434175Y-81050155D01*
X138555781Y-81115155D01*
X138662370Y-81202630D01*
X138703380Y-81252601D01*
X138720701Y-81269922D01*
X138741076Y-81283536D01*
X138763715Y-81292914D01*
X138787748Y-81297694D01*
X138812252Y-81297694D01*
X138836286Y-81292913D01*
X138858925Y-81283536D01*
X138879299Y-81269922D01*
X138896620Y-81252601D01*
X138937630Y-81202630D01*
X139044219Y-81115155D01*
X139165825Y-81050155D01*
X139297776Y-81010128D01*
X139400610Y-81000000D01*
X139469390Y-81000000D01*
X139572224Y-81010128D01*
X139704175Y-81050155D01*
X139825781Y-81115155D01*
X139932370Y-81202630D01*
X139973380Y-81252601D01*
X139990701Y-81269922D01*
X140011076Y-81283536D01*
X140033715Y-81292914D01*
X140057748Y-81297694D01*
X140082252Y-81297694D01*
X140106286Y-81292913D01*
X140128925Y-81283536D01*
X140149299Y-81269922D01*
X140166620Y-81252601D01*
X140207630Y-81202630D01*
X140314219Y-81115155D01*
X140435825Y-81050155D01*
X140567776Y-81010128D01*
X140670610Y-81000000D01*
X140739390Y-81000000D01*
X140842224Y-81010128D01*
X140974175Y-81050155D01*
X141033189Y-81081699D01*
X141091076Y-81112640D01*
X141113715Y-81122018D01*
X141137748Y-81126798D01*
X141162253Y-81126798D01*
X141186286Y-81122017D01*
X141208925Y-81112640D01*
X141229300Y-81099026D01*
X141246627Y-81081699D01*
X141260240Y-81061324D01*
X141269618Y-81038685D01*
X141275000Y-81002400D01*
X141275000Y-81000000D01*
X142675000Y-81000000D01*
X142675000Y-82400000D01*
X141275000Y-82400000D01*
X141275000Y-82397600D01*
X141272598Y-82373214D01*
X141265485Y-82349765D01*
X141253934Y-82328154D01*
X141238388Y-82309212D01*
X141219446Y-82293666D01*
X141197835Y-82282115D01*
X141174386Y-82275002D01*
X141150000Y-82272600D01*
X141125614Y-82275002D01*
X141091075Y-82287360D01*
X140974175Y-82349845D01*
X140842224Y-82389872D01*
X140739390Y-82400000D01*
X140670610Y-82400000D01*
X140567776Y-82389872D01*
X140435825Y-82349845D01*
X140314219Y-82284845D01*
X140207630Y-82197370D01*
X140166620Y-82147399D01*
X140149299Y-82130078D01*
X140128924Y-82116464D01*
X140106285Y-82107086D01*
X140082252Y-82102306D01*
X140057748Y-82102306D01*
X140033714Y-82107087D01*
X140011075Y-82116464D01*
X139990701Y-82130078D01*
X139973380Y-82147399D01*
X139932370Y-82197370D01*
X139825781Y-82284845D01*
X139704175Y-82349845D01*
X139572224Y-82389872D01*
X139469390Y-82400000D01*
X139400610Y-82400000D01*
X139297776Y-82389872D01*
X139165825Y-82349845D01*
X139044219Y-82284845D01*
X138937630Y-82197370D01*
X138896620Y-82147399D01*
X138879299Y-82130078D01*
X138858924Y-82116464D01*
X138836285Y-82107086D01*
X138812252Y-82102306D01*
X138787748Y-82102306D01*
X138763714Y-82107087D01*
X138741075Y-82116464D01*
X138720701Y-82130078D01*
X138703380Y-82147399D01*
X138662370Y-82197370D01*
X138555781Y-82284845D01*
X138434175Y-82349845D01*
X138302224Y-82389872D01*
X138199390Y-82400000D01*
X138130610Y-82400000D01*
X138027776Y-82389872D01*
X137895825Y-82349845D01*
X137774219Y-82284845D01*
X137667630Y-82197370D01*
X137626620Y-82147399D01*
X137609299Y-82130078D01*
X137588924Y-82116464D01*
X137566285Y-82107086D01*
X137542252Y-82102306D01*
X137517748Y-82102306D01*
X137493714Y-82107087D01*
X137471075Y-82116464D01*
X137450701Y-82130078D01*
X137433380Y-82147399D01*
X137392370Y-82197370D01*
X137285781Y-82284845D01*
X137164175Y-82349845D01*
X137032224Y-82389872D01*
X136929390Y-82400000D01*
X136860610Y-82400000D01*
X136757776Y-82389872D01*
X136625825Y-82349845D01*
X136504219Y-82284845D01*
X136397630Y-82197370D01*
X136356620Y-82147399D01*
X136339299Y-82130078D01*
X136318924Y-82116464D01*
X136296285Y-82107086D01*
X136272252Y-82102306D01*
X136247748Y-82102306D01*
X136223714Y-82107087D01*
X136201075Y-82116464D01*
X136180701Y-82130078D01*
X136163380Y-82147399D01*
X136122370Y-82197370D01*
X136015781Y-82284845D01*
X135894175Y-82349845D01*
X135762224Y-82389872D01*
X135659390Y-82400000D01*
X135590610Y-82400000D01*
X135487776Y-82389872D01*
X135355825Y-82349845D01*
X135234219Y-82284845D01*
X135127630Y-82197370D01*
X135086620Y-82147399D01*
X135069299Y-82130078D01*
X135048924Y-82116464D01*
X135026285Y-82107086D01*
X135002252Y-82102306D01*
X134977748Y-82102306D01*
X134953714Y-82107087D01*
X134931075Y-82116464D01*
X134910701Y-82130078D01*
X134893380Y-82147399D01*
X134852370Y-82197370D01*
X134745781Y-82284845D01*
X134624175Y-82349845D01*
X134492224Y-82389872D01*
X134389390Y-82400000D01*
X134320610Y-82400000D01*
X134217776Y-82389872D01*
X134085825Y-82349845D01*
X133964219Y-82284845D01*
X133857630Y-82197370D01*
X133816620Y-82147399D01*
X133799299Y-82130078D01*
X133778924Y-82116464D01*
X133756285Y-82107086D01*
X133732252Y-82102306D01*
X133707748Y-82102306D01*
X133683714Y-82107087D01*
X133661075Y-82116464D01*
X133640701Y-82130078D01*
X133623380Y-82147399D01*
X133582370Y-82197370D01*
X133475781Y-82284845D01*
X133354175Y-82349845D01*
X133222224Y-82389872D01*
X133119390Y-82400000D01*
X133050610Y-82400000D01*
X132947776Y-82389872D01*
X132815825Y-82349845D01*
X132694219Y-82284845D01*
X132587630Y-82197370D01*
X132500155Y-82090781D01*
X132435155Y-81969175D01*
X132395128Y-81837224D01*
X132381613Y-81700000D01*
X132395128Y-81562776D01*
X132435155Y-81430825D01*
X132500155Y-81309219D01*
X132587630Y-81202630D01*
X132694219Y-81115155D01*
X132815825Y-81050155D01*
X132947776Y-81010128D01*
X133050610Y-81000000D01*
X133119390Y-81000000D01*
X133222224Y-81010128D01*
X133222224Y-81010128D01*
G37*
M02*
