G04 #@! TF.GenerationSoftware,KiCad,Pcbnew,5.0.2-bee76a0~70~ubuntu18.04.1*
G04 #@! TF.CreationDate,2020-01-14T20:57:16+01:00*
G04 #@! TF.ProjectId,TLI5012B,544c4935-3031-4324-922e-6b696361645f,rev?*
G04 #@! TF.SameCoordinates,Original*
G04 #@! TF.FileFunction,Legend,Bot*
G04 #@! TF.FilePolarity,Positive*
%FSLAX46Y46*%
G04 Gerber Fmt 4.6, Leading zero omitted, Abs format (unit mm)*
G04 Created by KiCad (PCBNEW 5.0.2-bee76a0~70~ubuntu18.04.1) date Di 14 Jan 2020 20:57:16 CET*
%MOMM*%
%LPD*%
G01*
G04 APERTURE LIST*
%ADD10C,0.120000*%
%ADD11C,0.150000*%
G04 APERTURE END LIST*
D10*
G04 #@! TO.C,J1*
X142670000Y-80940000D02*
X142670000Y-80140000D01*
X142670000Y-80140000D02*
X132390000Y-80140000D01*
X132390000Y-80140000D02*
X132390000Y-81260000D01*
X132390000Y-81260000D02*
X132465323Y-81260000D01*
X142235000Y-80140000D02*
X142235000Y-76140000D01*
X142235000Y-76140000D02*
X141715000Y-76140000D01*
X141715000Y-76140000D02*
X141715000Y-80140000D01*
X142175000Y-80140000D02*
X142175000Y-76140000D01*
X142055000Y-80140000D02*
X142055000Y-76140000D01*
X141935000Y-80140000D02*
X141935000Y-76140000D01*
X141815000Y-80140000D02*
X141815000Y-76140000D01*
X141340000Y-80940000D02*
X141340000Y-80140000D01*
X140965000Y-80140000D02*
X140965000Y-76140000D01*
X140965000Y-76140000D02*
X140445000Y-76140000D01*
X140445000Y-76140000D02*
X140445000Y-80140000D01*
X140070000Y-81260000D02*
X140070000Y-80140000D01*
X140085323Y-81260000D02*
X140054677Y-81260000D01*
X139695000Y-80140000D02*
X139695000Y-76140000D01*
X139695000Y-76140000D02*
X139175000Y-76140000D01*
X139175000Y-76140000D02*
X139175000Y-80140000D01*
X138800000Y-81260000D02*
X138800000Y-80140000D01*
X138815323Y-81260000D02*
X138784677Y-81260000D01*
X138425000Y-80140000D02*
X138425000Y-76140000D01*
X138425000Y-76140000D02*
X137905000Y-76140000D01*
X137905000Y-76140000D02*
X137905000Y-80140000D01*
X137530000Y-81260000D02*
X137530000Y-80140000D01*
X137545323Y-81260000D02*
X137514677Y-81260000D01*
X137155000Y-80140000D02*
X137155000Y-76140000D01*
X137155000Y-76140000D02*
X136635000Y-76140000D01*
X136635000Y-76140000D02*
X136635000Y-80140000D01*
X136260000Y-81260000D02*
X136260000Y-80140000D01*
X136275323Y-81260000D02*
X136244677Y-81260000D01*
X135885000Y-80140000D02*
X135885000Y-76140000D01*
X135885000Y-76140000D02*
X135365000Y-76140000D01*
X135365000Y-76140000D02*
X135365000Y-80140000D01*
X134990000Y-81260000D02*
X134990000Y-80140000D01*
X135005323Y-81260000D02*
X134974677Y-81260000D01*
X134615000Y-80140000D02*
X134615000Y-76140000D01*
X134615000Y-76140000D02*
X134095000Y-76140000D01*
X134095000Y-76140000D02*
X134095000Y-80140000D01*
X133720000Y-81260000D02*
X133720000Y-80140000D01*
X133735323Y-81260000D02*
X133704677Y-81260000D01*
X133345000Y-80140000D02*
X133345000Y-76140000D01*
X133345000Y-76140000D02*
X132825000Y-76140000D01*
X132825000Y-76140000D02*
X132825000Y-80140000D01*
X141975000Y-82460000D02*
X142735000Y-82460000D01*
X142735000Y-82460000D02*
X142735000Y-81700000D01*
D11*
G04 #@! TO.C,U2*
X139875000Y-89225000D02*
X135475000Y-89225000D01*
X141450000Y-83700000D02*
X135475000Y-83700000D01*
G04 #@! TD*
M02*
