G04 #@! TF.GenerationSoftware,KiCad,Pcbnew,5.0.2-bee76a0~70~ubuntu18.04.1*
G04 #@! TF.CreationDate,2020-01-14T20:57:16+01:00*
G04 #@! TF.ProjectId,TLI5012B,544c4935-3031-4324-922e-6b696361645f,rev?*
G04 #@! TF.SameCoordinates,Original*
G04 #@! TF.FileFunction,Copper,L2,Bot*
G04 #@! TF.FilePolarity,Positive*
%FSLAX46Y46*%
G04 Gerber Fmt 4.6, Leading zero omitted, Abs format (unit mm)*
G04 Created by KiCad (PCBNEW 5.0.2-bee76a0~70~ubuntu18.04.1) date Di 14 Jan 2020 20:57:16 CET*
%MOMM*%
%LPD*%
G01*
G04 APERTURE LIST*
G04 #@! TA.AperFunction,Conductor*
%ADD10C,0.100000*%
G04 #@! TD*
G04 #@! TA.AperFunction,SMDPad,CuDef*
%ADD11C,0.590000*%
G04 #@! TD*
G04 #@! TA.AperFunction,ComponentPad*
%ADD12R,1.000000X1.000000*%
G04 #@! TD*
G04 #@! TA.AperFunction,ComponentPad*
%ADD13O,1.000000X1.000000*%
G04 #@! TD*
G04 #@! TA.AperFunction,SMDPad,CuDef*
%ADD14R,1.500000X0.450000*%
G04 #@! TD*
G04 #@! TA.AperFunction,ViaPad*
%ADD15C,0.800000*%
G04 #@! TD*
G04 #@! TA.AperFunction,Conductor*
%ADD16C,0.152400*%
G04 #@! TD*
G04 #@! TA.AperFunction,Conductor*
%ADD17C,0.203200*%
G04 #@! TD*
G04 APERTURE END LIST*
D10*
G04 #@! TO.N,+5V*
G04 #@! TO.C,C1*
G36*
X139161958Y-90690710D02*
X139176276Y-90692834D01*
X139190317Y-90696351D01*
X139203946Y-90701228D01*
X139217031Y-90707417D01*
X139229447Y-90714858D01*
X139241073Y-90723481D01*
X139251798Y-90733202D01*
X139261519Y-90743927D01*
X139270142Y-90755553D01*
X139277583Y-90767969D01*
X139283772Y-90781054D01*
X139288649Y-90794683D01*
X139292166Y-90808724D01*
X139294290Y-90823042D01*
X139295000Y-90837500D01*
X139295000Y-91132500D01*
X139294290Y-91146958D01*
X139292166Y-91161276D01*
X139288649Y-91175317D01*
X139283772Y-91188946D01*
X139277583Y-91202031D01*
X139270142Y-91214447D01*
X139261519Y-91226073D01*
X139251798Y-91236798D01*
X139241073Y-91246519D01*
X139229447Y-91255142D01*
X139217031Y-91262583D01*
X139203946Y-91268772D01*
X139190317Y-91273649D01*
X139176276Y-91277166D01*
X139161958Y-91279290D01*
X139147500Y-91280000D01*
X138802500Y-91280000D01*
X138788042Y-91279290D01*
X138773724Y-91277166D01*
X138759683Y-91273649D01*
X138746054Y-91268772D01*
X138732969Y-91262583D01*
X138720553Y-91255142D01*
X138708927Y-91246519D01*
X138698202Y-91236798D01*
X138688481Y-91226073D01*
X138679858Y-91214447D01*
X138672417Y-91202031D01*
X138666228Y-91188946D01*
X138661351Y-91175317D01*
X138657834Y-91161276D01*
X138655710Y-91146958D01*
X138655000Y-91132500D01*
X138655000Y-90837500D01*
X138655710Y-90823042D01*
X138657834Y-90808724D01*
X138661351Y-90794683D01*
X138666228Y-90781054D01*
X138672417Y-90767969D01*
X138679858Y-90755553D01*
X138688481Y-90743927D01*
X138698202Y-90733202D01*
X138708927Y-90723481D01*
X138720553Y-90714858D01*
X138732969Y-90707417D01*
X138746054Y-90701228D01*
X138759683Y-90696351D01*
X138773724Y-90692834D01*
X138788042Y-90690710D01*
X138802500Y-90690000D01*
X139147500Y-90690000D01*
X139161958Y-90690710D01*
X139161958Y-90690710D01*
G37*
D11*
G04 #@! TD*
G04 #@! TO.P,C1,1*
G04 #@! TO.N,+5V*
X138975000Y-90985000D03*
D10*
G04 #@! TO.N,GND*
G04 #@! TO.C,C1*
G36*
X139161958Y-89720710D02*
X139176276Y-89722834D01*
X139190317Y-89726351D01*
X139203946Y-89731228D01*
X139217031Y-89737417D01*
X139229447Y-89744858D01*
X139241073Y-89753481D01*
X139251798Y-89763202D01*
X139261519Y-89773927D01*
X139270142Y-89785553D01*
X139277583Y-89797969D01*
X139283772Y-89811054D01*
X139288649Y-89824683D01*
X139292166Y-89838724D01*
X139294290Y-89853042D01*
X139295000Y-89867500D01*
X139295000Y-90162500D01*
X139294290Y-90176958D01*
X139292166Y-90191276D01*
X139288649Y-90205317D01*
X139283772Y-90218946D01*
X139277583Y-90232031D01*
X139270142Y-90244447D01*
X139261519Y-90256073D01*
X139251798Y-90266798D01*
X139241073Y-90276519D01*
X139229447Y-90285142D01*
X139217031Y-90292583D01*
X139203946Y-90298772D01*
X139190317Y-90303649D01*
X139176276Y-90307166D01*
X139161958Y-90309290D01*
X139147500Y-90310000D01*
X138802500Y-90310000D01*
X138788042Y-90309290D01*
X138773724Y-90307166D01*
X138759683Y-90303649D01*
X138746054Y-90298772D01*
X138732969Y-90292583D01*
X138720553Y-90285142D01*
X138708927Y-90276519D01*
X138698202Y-90266798D01*
X138688481Y-90256073D01*
X138679858Y-90244447D01*
X138672417Y-90232031D01*
X138666228Y-90218946D01*
X138661351Y-90205317D01*
X138657834Y-90191276D01*
X138655710Y-90176958D01*
X138655000Y-90162500D01*
X138655000Y-89867500D01*
X138655710Y-89853042D01*
X138657834Y-89838724D01*
X138661351Y-89824683D01*
X138666228Y-89811054D01*
X138672417Y-89797969D01*
X138679858Y-89785553D01*
X138688481Y-89773927D01*
X138698202Y-89763202D01*
X138708927Y-89753481D01*
X138720553Y-89744858D01*
X138732969Y-89737417D01*
X138746054Y-89731228D01*
X138759683Y-89726351D01*
X138773724Y-89722834D01*
X138788042Y-89720710D01*
X138802500Y-89720000D01*
X139147500Y-89720000D01*
X139161958Y-89720710D01*
X139161958Y-89720710D01*
G37*
D11*
G04 #@! TD*
G04 #@! TO.P,C1,2*
G04 #@! TO.N,GND*
X138975000Y-90015000D03*
D12*
G04 #@! TO.P,J1,1*
G04 #@! TO.N,GND*
X141975000Y-81700000D03*
D13*
G04 #@! TO.P,J1,2*
G04 #@! TO.N,/A_OUT_*
X140705000Y-81700000D03*
G04 #@! TO.P,J1,3*
G04 #@! TO.N,/A_OUT*
X139435000Y-81700000D03*
G04 #@! TO.P,J1,4*
G04 #@! TO.N,/B_OUT_*
X138165000Y-81700000D03*
G04 #@! TO.P,J1,5*
G04 #@! TO.N,/B_OUT*
X136895000Y-81700000D03*
G04 #@! TO.P,J1,6*
G04 #@! TO.N,/C_OUT_*
X135625000Y-81700000D03*
G04 #@! TO.P,J1,7*
G04 #@! TO.N,/C_OUT*
X134355000Y-81700000D03*
G04 #@! TO.P,J1,8*
G04 #@! TO.N,+5V*
X133085000Y-81700000D03*
G04 #@! TD*
D14*
G04 #@! TO.P,U2,1*
G04 #@! TO.N,/IFA*
X140625000Y-84225000D03*
G04 #@! TO.P,U2,2*
G04 #@! TO.N,/A_OUT*
X140625000Y-84875000D03*
G04 #@! TO.P,U2,3*
G04 #@! TO.N,/A_OUT_*
X140625000Y-85525000D03*
G04 #@! TO.P,U2,4*
G04 #@! TO.N,+5V*
X140625000Y-86175000D03*
G04 #@! TO.P,U2,5*
G04 #@! TO.N,/B_OUT_*
X140625000Y-86825000D03*
G04 #@! TO.P,U2,6*
G04 #@! TO.N,/B_OUT*
X140625000Y-87475000D03*
G04 #@! TO.P,U2,7*
G04 #@! TO.N,/IFB*
X140625000Y-88125000D03*
G04 #@! TO.P,U2,8*
G04 #@! TO.N,GND*
X140625000Y-88775000D03*
G04 #@! TO.P,U2,9*
G04 #@! TO.N,/IFC*
X134725000Y-88775000D03*
G04 #@! TO.P,U2,10*
G04 #@! TO.N,/C_OUT*
X134725000Y-88125000D03*
G04 #@! TO.P,U2,11*
G04 #@! TO.N,/C_OUT_*
X134725000Y-87475000D03*
G04 #@! TO.P,U2,12*
G04 #@! TO.N,+5V*
X134725000Y-86825000D03*
G04 #@! TO.P,U2,13*
G04 #@! TO.N,Net-(U2-Pad13)*
X134725000Y-86175000D03*
G04 #@! TO.P,U2,14*
G04 #@! TO.N,Net-(U2-Pad14)*
X134725000Y-85525000D03*
G04 #@! TO.P,U2,15*
G04 #@! TO.N,Net-(U2-Pad15)*
X134725000Y-84875000D03*
G04 #@! TO.P,U2,16*
G04 #@! TO.N,+5V*
X134725000Y-84225000D03*
G04 #@! TD*
D15*
G04 #@! TO.N,+5V*
X139975000Y-90900000D03*
G04 #@! TO.N,GND*
X137675000Y-90000000D03*
G04 #@! TO.N,/IFA*
X140175000Y-83000000D03*
G04 #@! TO.N,/IFB*
X138975000Y-87800000D03*
G04 #@! TO.N,/IFC*
X134975000Y-90200000D03*
G04 #@! TO.N,/C_OUT*
X136375000Y-88000000D03*
G04 #@! TD*
D16*
G04 #@! TO.N,+5V*
X134200000Y-84225000D02*
X134725000Y-84225000D01*
X141527400Y-86175000D02*
X142175000Y-86822600D01*
X140625000Y-86175000D02*
X141527400Y-86175000D01*
X142175000Y-86822600D02*
X142175000Y-90300000D01*
X141575000Y-90900000D02*
X139975000Y-90900000D01*
X142175000Y-90300000D02*
X141575000Y-90900000D01*
X133185000Y-81700000D02*
X132685001Y-82199999D01*
X133710001Y-86825000D02*
X132685001Y-85800000D01*
X134725000Y-86825000D02*
X133710001Y-86825000D01*
X132685001Y-83087401D02*
X132685001Y-82900000D01*
X133822600Y-84225000D02*
X132685001Y-83087401D01*
X134725000Y-84225000D02*
X133822600Y-84225000D01*
X132685001Y-82199999D02*
X132685001Y-82900000D01*
X132685001Y-82900000D02*
X132685001Y-85800000D01*
X132675000Y-87815000D02*
X132675000Y-89200000D01*
X132685001Y-85800000D02*
X132685001Y-87804999D01*
X132685001Y-87804999D02*
X132675000Y-87815000D01*
X139890000Y-90985000D02*
X139975000Y-90900000D01*
X139090000Y-90900000D02*
X138975000Y-90785000D01*
X139975000Y-90900000D02*
X139090000Y-90900000D01*
X138555000Y-90785000D02*
X138511399Y-90828601D01*
X138511399Y-90828601D02*
X134303601Y-90828601D01*
X132675000Y-89200000D02*
X134175000Y-90700000D01*
X134303601Y-90828601D02*
X134175000Y-90700000D01*
X138975000Y-90785000D02*
X138555000Y-90785000D01*
G04 #@! TO.N,GND*
X138975000Y-89900000D02*
X138975000Y-90015000D01*
X140100000Y-88775000D02*
X138975000Y-89900000D01*
X140625000Y-88775000D02*
X140100000Y-88775000D01*
X138975000Y-90015000D02*
X137690000Y-90015000D01*
X137690000Y-90015000D02*
X137675000Y-90000000D01*
G04 #@! TO.N,/IFA*
X140175000Y-83775000D02*
X140625000Y-84225000D01*
X140175000Y-83000000D02*
X140175000Y-83775000D01*
G04 #@! TO.N,/IFB*
X140550001Y-88199999D02*
X140625000Y-88125000D01*
X139374999Y-88199999D02*
X140550001Y-88199999D01*
X138975000Y-87800000D02*
X139374999Y-88199999D01*
G04 #@! TO.N,/IFC*
X134975000Y-89025000D02*
X134725000Y-88775000D01*
X134975000Y-90200000D02*
X134975000Y-89025000D01*
G04 #@! TO.N,/A_OUT_*
X140805000Y-82407106D02*
X142175000Y-83777106D01*
X140805000Y-81700000D02*
X140805000Y-82407106D01*
X142175000Y-84877400D02*
X141527400Y-85525000D01*
X141527400Y-85525000D02*
X140625000Y-85525000D01*
X142175000Y-83777106D02*
X142175000Y-84877400D01*
G04 #@! TO.N,/A_OUT*
X139575000Y-81740000D02*
X139535000Y-81700000D01*
X139575000Y-82200000D02*
X139575000Y-81740000D01*
X139175000Y-82600000D02*
X139575000Y-82200000D01*
X139175000Y-84400000D02*
X139175000Y-82600000D01*
X140625000Y-84875000D02*
X139650000Y-84875000D01*
X139650000Y-84875000D02*
X139175000Y-84400000D01*
G04 #@! TO.N,/B_OUT_*
X139722600Y-86825000D02*
X140625000Y-86825000D01*
X138165000Y-85267400D02*
X138397600Y-85500000D01*
X138165000Y-81700000D02*
X138165000Y-85267400D01*
X138397600Y-85500000D02*
X139722600Y-86825000D01*
G04 #@! TO.N,/B_OUT*
X136995000Y-82407106D02*
X136995000Y-81700000D01*
X136995000Y-84747400D02*
X136995000Y-82407106D01*
X139722600Y-87475000D02*
X136995000Y-84747400D01*
X140625000Y-87475000D02*
X139722600Y-87475000D01*
G04 #@! TO.N,/C_OUT_*
X135627400Y-87475000D02*
X135975000Y-87127400D01*
X134725000Y-87475000D02*
X135627400Y-87475000D01*
X135975000Y-87127400D02*
X135975000Y-83300000D01*
X135725000Y-83050000D02*
X135725000Y-81700000D01*
X135975000Y-83300000D02*
X135725000Y-83050000D01*
G04 #@! TO.N,/C_OUT*
X136375000Y-88000000D02*
X136275000Y-88000000D01*
X136150000Y-88125000D02*
X134725000Y-88125000D01*
X136275000Y-88000000D02*
X136150000Y-88125000D01*
G04 #@! TD*
D17*
G04 #@! TO.N,GND*
G36*
X143796001Y-91979997D02*
X143639863Y-92011055D01*
X143521265Y-92060180D01*
X143164400Y-92298630D01*
X143073630Y-92389400D01*
X142835180Y-92746265D01*
X142786055Y-92864863D01*
X142754997Y-93021000D01*
X140370003Y-93021000D01*
X140338945Y-92864863D01*
X140289820Y-92746265D01*
X140051370Y-92389400D01*
X139960598Y-92298628D01*
X139603735Y-92060180D01*
X139485137Y-92011055D01*
X139064185Y-91927322D01*
X138935815Y-91927322D01*
X138514863Y-92011055D01*
X138396265Y-92060180D01*
X138039400Y-92298630D01*
X137948630Y-92389400D01*
X137710180Y-92746265D01*
X137661055Y-92864863D01*
X137629997Y-93021000D01*
X132245003Y-93021000D01*
X132213945Y-92864863D01*
X132164820Y-92746265D01*
X131926370Y-92389400D01*
X131835598Y-92298628D01*
X131478735Y-92060180D01*
X131360137Y-92011055D01*
X131204000Y-91979997D01*
X131204000Y-87480003D01*
X131360137Y-87448945D01*
X131478735Y-87399820D01*
X131835600Y-87161370D01*
X131926370Y-87070600D01*
X132164820Y-86713735D01*
X132213945Y-86595137D01*
X132297678Y-86174185D01*
X132297678Y-86045815D01*
X132213945Y-85624863D01*
X132164820Y-85506265D01*
X131926370Y-85149400D01*
X131835598Y-85058628D01*
X131478735Y-84820180D01*
X131360137Y-84771055D01*
X131204000Y-84739997D01*
X131204000Y-81700000D01*
X132316229Y-81700000D01*
X132374748Y-81994196D01*
X132400067Y-82032089D01*
X132373959Y-82071162D01*
X132348332Y-82199999D01*
X132354801Y-82232521D01*
X132354802Y-82867474D01*
X132354801Y-82867479D01*
X132354801Y-83054878D01*
X132348332Y-83087401D01*
X132354801Y-83119922D01*
X132354802Y-85767473D01*
X132348332Y-85800000D01*
X132354801Y-85832522D01*
X132354802Y-87732194D01*
X132338331Y-87815000D01*
X132344800Y-87847522D01*
X132344801Y-89167473D01*
X132338331Y-89200000D01*
X132363958Y-89328837D01*
X132418517Y-89410490D01*
X132418519Y-89410492D01*
X132436940Y-89438061D01*
X132464509Y-89456482D01*
X133918517Y-90910490D01*
X134047115Y-91039087D01*
X134065540Y-91066662D01*
X134174763Y-91139643D01*
X134271079Y-91158801D01*
X134271083Y-91158801D01*
X134303600Y-91165269D01*
X134336117Y-91158801D01*
X138401256Y-91158801D01*
X138426965Y-91288052D01*
X138515078Y-91419922D01*
X138646948Y-91508035D01*
X138802500Y-91538976D01*
X139147500Y-91538976D01*
X139303052Y-91508035D01*
X139434922Y-91419922D01*
X139489037Y-91338933D01*
X139604539Y-91454435D01*
X139844911Y-91554000D01*
X140105089Y-91554000D01*
X140345461Y-91454435D01*
X140529435Y-91270461D01*
X140546112Y-91230200D01*
X141542478Y-91230200D01*
X141575000Y-91236669D01*
X141607522Y-91230200D01*
X141703838Y-91211042D01*
X141813061Y-91138061D01*
X141831484Y-91110489D01*
X142385491Y-90556483D01*
X142413061Y-90538061D01*
X142486042Y-90428838D01*
X142505200Y-90332522D01*
X142505200Y-90332519D01*
X142511668Y-90300001D01*
X142505200Y-90267482D01*
X142505200Y-86855122D01*
X142511669Y-86822600D01*
X142486042Y-86693762D01*
X142431483Y-86612110D01*
X142431482Y-86612109D01*
X142413060Y-86584539D01*
X142385491Y-86566118D01*
X141783884Y-85964511D01*
X141765461Y-85936939D01*
X141656238Y-85863958D01*
X141615239Y-85855803D01*
X141614263Y-85850894D01*
X141613666Y-85850000D01*
X141614263Y-85849106D01*
X141615239Y-85844197D01*
X141656238Y-85836042D01*
X141765461Y-85763061D01*
X141783884Y-85735489D01*
X142385489Y-85133884D01*
X142413061Y-85115461D01*
X142486042Y-85006238D01*
X142505200Y-84909922D01*
X142511669Y-84877400D01*
X142505200Y-84844878D01*
X142505200Y-83809628D01*
X142511669Y-83777106D01*
X142486042Y-83648268D01*
X142431483Y-83566616D01*
X142431482Y-83566615D01*
X142413060Y-83539045D01*
X142385491Y-83520624D01*
X141420467Y-82555600D01*
X141835300Y-82555600D01*
X141924200Y-82466700D01*
X141924200Y-81750800D01*
X142025800Y-81750800D01*
X142025800Y-82466700D01*
X142114700Y-82555600D01*
X142545733Y-82555600D01*
X142676431Y-82501463D01*
X142776463Y-82401431D01*
X142830600Y-82270733D01*
X142830600Y-81839700D01*
X142741700Y-81750800D01*
X142025800Y-81750800D01*
X141924200Y-81750800D01*
X141904200Y-81750800D01*
X141904200Y-81649200D01*
X141924200Y-81649200D01*
X141924200Y-80933300D01*
X142025800Y-80933300D01*
X142025800Y-81649200D01*
X142741700Y-81649200D01*
X142830600Y-81560300D01*
X142830600Y-81129267D01*
X142776463Y-80998569D01*
X142676431Y-80898537D01*
X142545733Y-80844400D01*
X142114700Y-80844400D01*
X142025800Y-80933300D01*
X141924200Y-80933300D01*
X141835300Y-80844400D01*
X141404267Y-80844400D01*
X141273569Y-80898537D01*
X141173537Y-80998569D01*
X141138606Y-81082899D01*
X140999196Y-80989748D01*
X140779259Y-80946000D01*
X140630741Y-80946000D01*
X140410804Y-80989748D01*
X140161397Y-81156397D01*
X140070000Y-81293182D01*
X139978603Y-81156397D01*
X139729196Y-80989748D01*
X139509259Y-80946000D01*
X139360741Y-80946000D01*
X139140804Y-80989748D01*
X138891397Y-81156397D01*
X138800000Y-81293182D01*
X138708603Y-81156397D01*
X138459196Y-80989748D01*
X138239259Y-80946000D01*
X138090741Y-80946000D01*
X137870804Y-80989748D01*
X137621397Y-81156397D01*
X137530000Y-81293182D01*
X137438603Y-81156397D01*
X137189196Y-80989748D01*
X136969259Y-80946000D01*
X136820741Y-80946000D01*
X136600804Y-80989748D01*
X136351397Y-81156397D01*
X136260000Y-81293182D01*
X136168603Y-81156397D01*
X135919196Y-80989748D01*
X135699259Y-80946000D01*
X135550741Y-80946000D01*
X135330804Y-80989748D01*
X135081397Y-81156397D01*
X134990000Y-81293182D01*
X134898603Y-81156397D01*
X134649196Y-80989748D01*
X134429259Y-80946000D01*
X134280741Y-80946000D01*
X134060804Y-80989748D01*
X133811397Y-81156397D01*
X133720000Y-81293182D01*
X133628603Y-81156397D01*
X133379196Y-80989748D01*
X133159259Y-80946000D01*
X133010741Y-80946000D01*
X132790804Y-80989748D01*
X132541397Y-81156397D01*
X132374748Y-81405804D01*
X132316229Y-81700000D01*
X131204000Y-81700000D01*
X131204000Y-80429000D01*
X143796000Y-80429000D01*
X143796001Y-91979997D01*
X143796001Y-91979997D01*
G37*
X143796001Y-91979997D02*
X143639863Y-92011055D01*
X143521265Y-92060180D01*
X143164400Y-92298630D01*
X143073630Y-92389400D01*
X142835180Y-92746265D01*
X142786055Y-92864863D01*
X142754997Y-93021000D01*
X140370003Y-93021000D01*
X140338945Y-92864863D01*
X140289820Y-92746265D01*
X140051370Y-92389400D01*
X139960598Y-92298628D01*
X139603735Y-92060180D01*
X139485137Y-92011055D01*
X139064185Y-91927322D01*
X138935815Y-91927322D01*
X138514863Y-92011055D01*
X138396265Y-92060180D01*
X138039400Y-92298630D01*
X137948630Y-92389400D01*
X137710180Y-92746265D01*
X137661055Y-92864863D01*
X137629997Y-93021000D01*
X132245003Y-93021000D01*
X132213945Y-92864863D01*
X132164820Y-92746265D01*
X131926370Y-92389400D01*
X131835598Y-92298628D01*
X131478735Y-92060180D01*
X131360137Y-92011055D01*
X131204000Y-91979997D01*
X131204000Y-87480003D01*
X131360137Y-87448945D01*
X131478735Y-87399820D01*
X131835600Y-87161370D01*
X131926370Y-87070600D01*
X132164820Y-86713735D01*
X132213945Y-86595137D01*
X132297678Y-86174185D01*
X132297678Y-86045815D01*
X132213945Y-85624863D01*
X132164820Y-85506265D01*
X131926370Y-85149400D01*
X131835598Y-85058628D01*
X131478735Y-84820180D01*
X131360137Y-84771055D01*
X131204000Y-84739997D01*
X131204000Y-81700000D01*
X132316229Y-81700000D01*
X132374748Y-81994196D01*
X132400067Y-82032089D01*
X132373959Y-82071162D01*
X132348332Y-82199999D01*
X132354801Y-82232521D01*
X132354802Y-82867474D01*
X132354801Y-82867479D01*
X132354801Y-83054878D01*
X132348332Y-83087401D01*
X132354801Y-83119922D01*
X132354802Y-85767473D01*
X132348332Y-85800000D01*
X132354801Y-85832522D01*
X132354802Y-87732194D01*
X132338331Y-87815000D01*
X132344800Y-87847522D01*
X132344801Y-89167473D01*
X132338331Y-89200000D01*
X132363958Y-89328837D01*
X132418517Y-89410490D01*
X132418519Y-89410492D01*
X132436940Y-89438061D01*
X132464509Y-89456482D01*
X133918517Y-90910490D01*
X134047115Y-91039087D01*
X134065540Y-91066662D01*
X134174763Y-91139643D01*
X134271079Y-91158801D01*
X134271083Y-91158801D01*
X134303600Y-91165269D01*
X134336117Y-91158801D01*
X138401256Y-91158801D01*
X138426965Y-91288052D01*
X138515078Y-91419922D01*
X138646948Y-91508035D01*
X138802500Y-91538976D01*
X139147500Y-91538976D01*
X139303052Y-91508035D01*
X139434922Y-91419922D01*
X139489037Y-91338933D01*
X139604539Y-91454435D01*
X139844911Y-91554000D01*
X140105089Y-91554000D01*
X140345461Y-91454435D01*
X140529435Y-91270461D01*
X140546112Y-91230200D01*
X141542478Y-91230200D01*
X141575000Y-91236669D01*
X141607522Y-91230200D01*
X141703838Y-91211042D01*
X141813061Y-91138061D01*
X141831484Y-91110489D01*
X142385491Y-90556483D01*
X142413061Y-90538061D01*
X142486042Y-90428838D01*
X142505200Y-90332522D01*
X142505200Y-90332519D01*
X142511668Y-90300001D01*
X142505200Y-90267482D01*
X142505200Y-86855122D01*
X142511669Y-86822600D01*
X142486042Y-86693762D01*
X142431483Y-86612110D01*
X142431482Y-86612109D01*
X142413060Y-86584539D01*
X142385491Y-86566118D01*
X141783884Y-85964511D01*
X141765461Y-85936939D01*
X141656238Y-85863958D01*
X141615239Y-85855803D01*
X141614263Y-85850894D01*
X141613666Y-85850000D01*
X141614263Y-85849106D01*
X141615239Y-85844197D01*
X141656238Y-85836042D01*
X141765461Y-85763061D01*
X141783884Y-85735489D01*
X142385489Y-85133884D01*
X142413061Y-85115461D01*
X142486042Y-85006238D01*
X142505200Y-84909922D01*
X142511669Y-84877400D01*
X142505200Y-84844878D01*
X142505200Y-83809628D01*
X142511669Y-83777106D01*
X142486042Y-83648268D01*
X142431483Y-83566616D01*
X142431482Y-83566615D01*
X142413060Y-83539045D01*
X142385491Y-83520624D01*
X141420467Y-82555600D01*
X141835300Y-82555600D01*
X141924200Y-82466700D01*
X141924200Y-81750800D01*
X142025800Y-81750800D01*
X142025800Y-82466700D01*
X142114700Y-82555600D01*
X142545733Y-82555600D01*
X142676431Y-82501463D01*
X142776463Y-82401431D01*
X142830600Y-82270733D01*
X142830600Y-81839700D01*
X142741700Y-81750800D01*
X142025800Y-81750800D01*
X141924200Y-81750800D01*
X141904200Y-81750800D01*
X141904200Y-81649200D01*
X141924200Y-81649200D01*
X141924200Y-80933300D01*
X142025800Y-80933300D01*
X142025800Y-81649200D01*
X142741700Y-81649200D01*
X142830600Y-81560300D01*
X142830600Y-81129267D01*
X142776463Y-80998569D01*
X142676431Y-80898537D01*
X142545733Y-80844400D01*
X142114700Y-80844400D01*
X142025800Y-80933300D01*
X141924200Y-80933300D01*
X141835300Y-80844400D01*
X141404267Y-80844400D01*
X141273569Y-80898537D01*
X141173537Y-80998569D01*
X141138606Y-81082899D01*
X140999196Y-80989748D01*
X140779259Y-80946000D01*
X140630741Y-80946000D01*
X140410804Y-80989748D01*
X140161397Y-81156397D01*
X140070000Y-81293182D01*
X139978603Y-81156397D01*
X139729196Y-80989748D01*
X139509259Y-80946000D01*
X139360741Y-80946000D01*
X139140804Y-80989748D01*
X138891397Y-81156397D01*
X138800000Y-81293182D01*
X138708603Y-81156397D01*
X138459196Y-80989748D01*
X138239259Y-80946000D01*
X138090741Y-80946000D01*
X137870804Y-80989748D01*
X137621397Y-81156397D01*
X137530000Y-81293182D01*
X137438603Y-81156397D01*
X137189196Y-80989748D01*
X136969259Y-80946000D01*
X136820741Y-80946000D01*
X136600804Y-80989748D01*
X136351397Y-81156397D01*
X136260000Y-81293182D01*
X136168603Y-81156397D01*
X135919196Y-80989748D01*
X135699259Y-80946000D01*
X135550741Y-80946000D01*
X135330804Y-80989748D01*
X135081397Y-81156397D01*
X134990000Y-81293182D01*
X134898603Y-81156397D01*
X134649196Y-80989748D01*
X134429259Y-80946000D01*
X134280741Y-80946000D01*
X134060804Y-80989748D01*
X133811397Y-81156397D01*
X133720000Y-81293182D01*
X133628603Y-81156397D01*
X133379196Y-80989748D01*
X133159259Y-80946000D01*
X133010741Y-80946000D01*
X132790804Y-80989748D01*
X132541397Y-81156397D01*
X132374748Y-81405804D01*
X132316229Y-81700000D01*
X131204000Y-81700000D01*
X131204000Y-80429000D01*
X143796000Y-80429000D01*
X143796001Y-91979997D01*
G36*
X136351397Y-82243603D02*
X136600804Y-82410252D01*
X136664800Y-82422982D01*
X136664800Y-82439627D01*
X136664801Y-82439632D01*
X136664800Y-84714878D01*
X136658331Y-84747400D01*
X136683958Y-84876237D01*
X136737494Y-84956358D01*
X136756939Y-84985460D01*
X136784509Y-85003882D01*
X138926626Y-87146000D01*
X138844911Y-87146000D01*
X138604539Y-87245565D01*
X138420565Y-87429539D01*
X138321000Y-87669911D01*
X138321000Y-87930089D01*
X138420565Y-88170461D01*
X138604539Y-88354435D01*
X138844911Y-88454000D01*
X139105089Y-88454000D01*
X139139477Y-88439756D01*
X139164507Y-88456481D01*
X139164508Y-88456482D01*
X139246161Y-88511041D01*
X139374998Y-88536668D01*
X139407520Y-88530199D01*
X139519400Y-88530199D01*
X139519400Y-88635300D01*
X139608300Y-88724200D01*
X140574200Y-88724200D01*
X140574200Y-88704200D01*
X140675800Y-88704200D01*
X140675800Y-88724200D01*
X141641700Y-88724200D01*
X141730600Y-88635300D01*
X141730600Y-88479267D01*
X141676463Y-88348569D01*
X141633976Y-88306082D01*
X141633976Y-87900000D01*
X141614263Y-87800894D01*
X141613666Y-87800000D01*
X141614263Y-87799106D01*
X141633976Y-87700000D01*
X141633976Y-87250000D01*
X141614263Y-87150894D01*
X141613666Y-87150000D01*
X141614263Y-87149106D01*
X141633976Y-87050000D01*
X141633976Y-86748549D01*
X141844800Y-86959373D01*
X141844801Y-90163225D01*
X141438227Y-90569800D01*
X140546112Y-90569800D01*
X140529435Y-90529539D01*
X140345461Y-90345565D01*
X140105089Y-90246000D01*
X139844911Y-90246000D01*
X139650600Y-90326486D01*
X139650600Y-90154700D01*
X139561700Y-90065800D01*
X139025800Y-90065800D01*
X139025800Y-90085800D01*
X138924200Y-90085800D01*
X138924200Y-90065800D01*
X138388300Y-90065800D01*
X138299400Y-90154700D01*
X138299400Y-90380733D01*
X138348140Y-90498401D01*
X135559283Y-90498401D01*
X135629000Y-90330089D01*
X135629000Y-90069911D01*
X135529435Y-89829539D01*
X135349163Y-89649267D01*
X138299400Y-89649267D01*
X138299400Y-89875300D01*
X138388300Y-89964200D01*
X138924200Y-89964200D01*
X138924200Y-89453300D01*
X139025800Y-89453300D01*
X139025800Y-89964200D01*
X139561700Y-89964200D01*
X139650600Y-89875300D01*
X139650600Y-89649267D01*
X139596463Y-89518569D01*
X139496431Y-89418537D01*
X139365733Y-89364400D01*
X139114700Y-89364400D01*
X139025800Y-89453300D01*
X138924200Y-89453300D01*
X138835300Y-89364400D01*
X138584267Y-89364400D01*
X138453569Y-89418537D01*
X138353537Y-89518569D01*
X138299400Y-89649267D01*
X135349163Y-89649267D01*
X135345461Y-89645565D01*
X135305200Y-89628888D01*
X135305200Y-89258976D01*
X135475000Y-89258976D01*
X135574106Y-89239263D01*
X135658124Y-89183124D01*
X135714263Y-89099106D01*
X135733976Y-89000000D01*
X135733976Y-88914700D01*
X139519400Y-88914700D01*
X139519400Y-89070733D01*
X139573537Y-89201431D01*
X139673569Y-89301463D01*
X139804267Y-89355600D01*
X140485300Y-89355600D01*
X140574200Y-89266700D01*
X140574200Y-88825800D01*
X140675800Y-88825800D01*
X140675800Y-89266700D01*
X140764700Y-89355600D01*
X141445733Y-89355600D01*
X141576431Y-89301463D01*
X141676463Y-89201431D01*
X141730600Y-89070733D01*
X141730600Y-88914700D01*
X141641700Y-88825800D01*
X140675800Y-88825800D01*
X140574200Y-88825800D01*
X139608300Y-88825800D01*
X139519400Y-88914700D01*
X135733976Y-88914700D01*
X135733976Y-88550000D01*
X135715119Y-88455200D01*
X135905304Y-88455200D01*
X136004539Y-88554435D01*
X136244911Y-88654000D01*
X136505089Y-88654000D01*
X136745461Y-88554435D01*
X136929435Y-88370461D01*
X137029000Y-88130089D01*
X137029000Y-87869911D01*
X136929435Y-87629539D01*
X136745461Y-87445565D01*
X136505089Y-87346000D01*
X136244911Y-87346000D01*
X136218851Y-87356794D01*
X136250754Y-87309050D01*
X136286042Y-87256238D01*
X136311669Y-87127400D01*
X136305200Y-87094878D01*
X136305200Y-83332516D01*
X136311668Y-83299999D01*
X136305200Y-83267482D01*
X136305200Y-83267478D01*
X136286042Y-83171162D01*
X136213061Y-83061939D01*
X136185489Y-83043516D01*
X136055200Y-82913227D01*
X136055200Y-82319377D01*
X136168603Y-82243603D01*
X136260000Y-82106818D01*
X136351397Y-82243603D01*
X136351397Y-82243603D01*
G37*
X136351397Y-82243603D02*
X136600804Y-82410252D01*
X136664800Y-82422982D01*
X136664800Y-82439627D01*
X136664801Y-82439632D01*
X136664800Y-84714878D01*
X136658331Y-84747400D01*
X136683958Y-84876237D01*
X136737494Y-84956358D01*
X136756939Y-84985460D01*
X136784509Y-85003882D01*
X138926626Y-87146000D01*
X138844911Y-87146000D01*
X138604539Y-87245565D01*
X138420565Y-87429539D01*
X138321000Y-87669911D01*
X138321000Y-87930089D01*
X138420565Y-88170461D01*
X138604539Y-88354435D01*
X138844911Y-88454000D01*
X139105089Y-88454000D01*
X139139477Y-88439756D01*
X139164507Y-88456481D01*
X139164508Y-88456482D01*
X139246161Y-88511041D01*
X139374998Y-88536668D01*
X139407520Y-88530199D01*
X139519400Y-88530199D01*
X139519400Y-88635300D01*
X139608300Y-88724200D01*
X140574200Y-88724200D01*
X140574200Y-88704200D01*
X140675800Y-88704200D01*
X140675800Y-88724200D01*
X141641700Y-88724200D01*
X141730600Y-88635300D01*
X141730600Y-88479267D01*
X141676463Y-88348569D01*
X141633976Y-88306082D01*
X141633976Y-87900000D01*
X141614263Y-87800894D01*
X141613666Y-87800000D01*
X141614263Y-87799106D01*
X141633976Y-87700000D01*
X141633976Y-87250000D01*
X141614263Y-87150894D01*
X141613666Y-87150000D01*
X141614263Y-87149106D01*
X141633976Y-87050000D01*
X141633976Y-86748549D01*
X141844800Y-86959373D01*
X141844801Y-90163225D01*
X141438227Y-90569800D01*
X140546112Y-90569800D01*
X140529435Y-90529539D01*
X140345461Y-90345565D01*
X140105089Y-90246000D01*
X139844911Y-90246000D01*
X139650600Y-90326486D01*
X139650600Y-90154700D01*
X139561700Y-90065800D01*
X139025800Y-90065800D01*
X139025800Y-90085800D01*
X138924200Y-90085800D01*
X138924200Y-90065800D01*
X138388300Y-90065800D01*
X138299400Y-90154700D01*
X138299400Y-90380733D01*
X138348140Y-90498401D01*
X135559283Y-90498401D01*
X135629000Y-90330089D01*
X135629000Y-90069911D01*
X135529435Y-89829539D01*
X135349163Y-89649267D01*
X138299400Y-89649267D01*
X138299400Y-89875300D01*
X138388300Y-89964200D01*
X138924200Y-89964200D01*
X138924200Y-89453300D01*
X139025800Y-89453300D01*
X139025800Y-89964200D01*
X139561700Y-89964200D01*
X139650600Y-89875300D01*
X139650600Y-89649267D01*
X139596463Y-89518569D01*
X139496431Y-89418537D01*
X139365733Y-89364400D01*
X139114700Y-89364400D01*
X139025800Y-89453300D01*
X138924200Y-89453300D01*
X138835300Y-89364400D01*
X138584267Y-89364400D01*
X138453569Y-89418537D01*
X138353537Y-89518569D01*
X138299400Y-89649267D01*
X135349163Y-89649267D01*
X135345461Y-89645565D01*
X135305200Y-89628888D01*
X135305200Y-89258976D01*
X135475000Y-89258976D01*
X135574106Y-89239263D01*
X135658124Y-89183124D01*
X135714263Y-89099106D01*
X135733976Y-89000000D01*
X135733976Y-88914700D01*
X139519400Y-88914700D01*
X139519400Y-89070733D01*
X139573537Y-89201431D01*
X139673569Y-89301463D01*
X139804267Y-89355600D01*
X140485300Y-89355600D01*
X140574200Y-89266700D01*
X140574200Y-88825800D01*
X140675800Y-88825800D01*
X140675800Y-89266700D01*
X140764700Y-89355600D01*
X141445733Y-89355600D01*
X141576431Y-89301463D01*
X141676463Y-89201431D01*
X141730600Y-89070733D01*
X141730600Y-88914700D01*
X141641700Y-88825800D01*
X140675800Y-88825800D01*
X140574200Y-88825800D01*
X139608300Y-88825800D01*
X139519400Y-88914700D01*
X135733976Y-88914700D01*
X135733976Y-88550000D01*
X135715119Y-88455200D01*
X135905304Y-88455200D01*
X136004539Y-88554435D01*
X136244911Y-88654000D01*
X136505089Y-88654000D01*
X136745461Y-88554435D01*
X136929435Y-88370461D01*
X137029000Y-88130089D01*
X137029000Y-87869911D01*
X136929435Y-87629539D01*
X136745461Y-87445565D01*
X136505089Y-87346000D01*
X136244911Y-87346000D01*
X136218851Y-87356794D01*
X136250754Y-87309050D01*
X136286042Y-87256238D01*
X136311669Y-87127400D01*
X136305200Y-87094878D01*
X136305200Y-83332516D01*
X136311668Y-83299999D01*
X136305200Y-83267482D01*
X136305200Y-83267478D01*
X136286042Y-83171162D01*
X136213061Y-83061939D01*
X136185489Y-83043516D01*
X136055200Y-82913227D01*
X136055200Y-82319377D01*
X136168603Y-82243603D01*
X136260000Y-82106818D01*
X136351397Y-82243603D01*
G04 #@! TD*
M02*
