G04 #@! TF.GenerationSoftware,KiCad,Pcbnew,5.1.2-f72e74a~84~ubuntu18.04.1*
G04 #@! TF.CreationDate,2019-08-02T15:12:22+02:00*
G04 #@! TF.ProjectId,TLI5012B,544c4935-3031-4324-922e-6b696361645f,rev?*
G04 #@! TF.SameCoordinates,Original*
G04 #@! TF.FileFunction,Copper,L2,Bot*
G04 #@! TF.FilePolarity,Positive*
%FSLAX46Y46*%
G04 Gerber Fmt 4.6, Leading zero omitted, Abs format (unit mm)*
G04 Created by KiCad (PCBNEW 5.1.2-f72e74a~84~ubuntu18.04.1) date 2019-08-02 15:12:22*
%MOMM*%
%LPD*%
G04 APERTURE LIST*
%ADD10C,0.100000*%
%ADD11C,0.600000*%
%ADD12C,1.200000*%
%ADD13C,0.875000*%
%ADD14C,0.590000*%
%ADD15C,0.800000*%
%ADD16C,0.300000*%
G04 APERTURE END LIST*
D10*
G36*
X134239703Y-84325722D02*
G01*
X134254264Y-84327882D01*
X134268543Y-84331459D01*
X134282403Y-84336418D01*
X134295710Y-84342712D01*
X134308336Y-84350280D01*
X134320159Y-84359048D01*
X134331066Y-84368934D01*
X134340952Y-84379841D01*
X134349720Y-84391664D01*
X134357288Y-84404290D01*
X134363582Y-84417597D01*
X134368541Y-84431457D01*
X134372118Y-84445736D01*
X134374278Y-84460297D01*
X134375000Y-84475000D01*
X134375000Y-85725000D01*
X134374278Y-85739703D01*
X134372118Y-85754264D01*
X134368541Y-85768543D01*
X134363582Y-85782403D01*
X134357288Y-85795710D01*
X134349720Y-85808336D01*
X134340952Y-85820159D01*
X134331066Y-85831066D01*
X134320159Y-85840952D01*
X134308336Y-85849720D01*
X134295710Y-85857288D01*
X134282403Y-85863582D01*
X134268543Y-85868541D01*
X134254264Y-85872118D01*
X134239703Y-85874278D01*
X134225000Y-85875000D01*
X133925000Y-85875000D01*
X133910297Y-85874278D01*
X133895736Y-85872118D01*
X133881457Y-85868541D01*
X133867597Y-85863582D01*
X133854290Y-85857288D01*
X133841664Y-85849720D01*
X133829841Y-85840952D01*
X133818934Y-85831066D01*
X133809048Y-85820159D01*
X133800280Y-85808336D01*
X133792712Y-85795710D01*
X133786418Y-85782403D01*
X133781459Y-85768543D01*
X133777882Y-85754264D01*
X133775722Y-85739703D01*
X133775000Y-85725000D01*
X133775000Y-84475000D01*
X133775722Y-84460297D01*
X133777882Y-84445736D01*
X133781459Y-84431457D01*
X133786418Y-84417597D01*
X133792712Y-84404290D01*
X133800280Y-84391664D01*
X133809048Y-84379841D01*
X133818934Y-84368934D01*
X133829841Y-84359048D01*
X133841664Y-84350280D01*
X133854290Y-84342712D01*
X133867597Y-84336418D01*
X133881457Y-84331459D01*
X133895736Y-84327882D01*
X133910297Y-84325722D01*
X133925000Y-84325000D01*
X134225000Y-84325000D01*
X134239703Y-84325722D01*
X134239703Y-84325722D01*
G37*
D11*
X134075000Y-85100000D03*
D10*
G36*
X135239703Y-84325722D02*
G01*
X135254264Y-84327882D01*
X135268543Y-84331459D01*
X135282403Y-84336418D01*
X135295710Y-84342712D01*
X135308336Y-84350280D01*
X135320159Y-84359048D01*
X135331066Y-84368934D01*
X135340952Y-84379841D01*
X135349720Y-84391664D01*
X135357288Y-84404290D01*
X135363582Y-84417597D01*
X135368541Y-84431457D01*
X135372118Y-84445736D01*
X135374278Y-84460297D01*
X135375000Y-84475000D01*
X135375000Y-85725000D01*
X135374278Y-85739703D01*
X135372118Y-85754264D01*
X135368541Y-85768543D01*
X135363582Y-85782403D01*
X135357288Y-85795710D01*
X135349720Y-85808336D01*
X135340952Y-85820159D01*
X135331066Y-85831066D01*
X135320159Y-85840952D01*
X135308336Y-85849720D01*
X135295710Y-85857288D01*
X135282403Y-85863582D01*
X135268543Y-85868541D01*
X135254264Y-85872118D01*
X135239703Y-85874278D01*
X135225000Y-85875000D01*
X134925000Y-85875000D01*
X134910297Y-85874278D01*
X134895736Y-85872118D01*
X134881457Y-85868541D01*
X134867597Y-85863582D01*
X134854290Y-85857288D01*
X134841664Y-85849720D01*
X134829841Y-85840952D01*
X134818934Y-85831066D01*
X134809048Y-85820159D01*
X134800280Y-85808336D01*
X134792712Y-85795710D01*
X134786418Y-85782403D01*
X134781459Y-85768543D01*
X134777882Y-85754264D01*
X134775722Y-85739703D01*
X134775000Y-85725000D01*
X134775000Y-84475000D01*
X134775722Y-84460297D01*
X134777882Y-84445736D01*
X134781459Y-84431457D01*
X134786418Y-84417597D01*
X134792712Y-84404290D01*
X134800280Y-84391664D01*
X134809048Y-84379841D01*
X134818934Y-84368934D01*
X134829841Y-84359048D01*
X134841664Y-84350280D01*
X134854290Y-84342712D01*
X134867597Y-84336418D01*
X134881457Y-84331459D01*
X134895736Y-84327882D01*
X134910297Y-84325722D01*
X134925000Y-84325000D01*
X135225000Y-84325000D01*
X135239703Y-84325722D01*
X135239703Y-84325722D01*
G37*
D11*
X135075000Y-85100000D03*
D10*
G36*
X136239703Y-84325722D02*
G01*
X136254264Y-84327882D01*
X136268543Y-84331459D01*
X136282403Y-84336418D01*
X136295710Y-84342712D01*
X136308336Y-84350280D01*
X136320159Y-84359048D01*
X136331066Y-84368934D01*
X136340952Y-84379841D01*
X136349720Y-84391664D01*
X136357288Y-84404290D01*
X136363582Y-84417597D01*
X136368541Y-84431457D01*
X136372118Y-84445736D01*
X136374278Y-84460297D01*
X136375000Y-84475000D01*
X136375000Y-85725000D01*
X136374278Y-85739703D01*
X136372118Y-85754264D01*
X136368541Y-85768543D01*
X136363582Y-85782403D01*
X136357288Y-85795710D01*
X136349720Y-85808336D01*
X136340952Y-85820159D01*
X136331066Y-85831066D01*
X136320159Y-85840952D01*
X136308336Y-85849720D01*
X136295710Y-85857288D01*
X136282403Y-85863582D01*
X136268543Y-85868541D01*
X136254264Y-85872118D01*
X136239703Y-85874278D01*
X136225000Y-85875000D01*
X135925000Y-85875000D01*
X135910297Y-85874278D01*
X135895736Y-85872118D01*
X135881457Y-85868541D01*
X135867597Y-85863582D01*
X135854290Y-85857288D01*
X135841664Y-85849720D01*
X135829841Y-85840952D01*
X135818934Y-85831066D01*
X135809048Y-85820159D01*
X135800280Y-85808336D01*
X135792712Y-85795710D01*
X135786418Y-85782403D01*
X135781459Y-85768543D01*
X135777882Y-85754264D01*
X135775722Y-85739703D01*
X135775000Y-85725000D01*
X135775000Y-84475000D01*
X135775722Y-84460297D01*
X135777882Y-84445736D01*
X135781459Y-84431457D01*
X135786418Y-84417597D01*
X135792712Y-84404290D01*
X135800280Y-84391664D01*
X135809048Y-84379841D01*
X135818934Y-84368934D01*
X135829841Y-84359048D01*
X135841664Y-84350280D01*
X135854290Y-84342712D01*
X135867597Y-84336418D01*
X135881457Y-84331459D01*
X135895736Y-84327882D01*
X135910297Y-84325722D01*
X135925000Y-84325000D01*
X136225000Y-84325000D01*
X136239703Y-84325722D01*
X136239703Y-84325722D01*
G37*
D11*
X136075000Y-85100000D03*
D10*
G36*
X137239703Y-84325722D02*
G01*
X137254264Y-84327882D01*
X137268543Y-84331459D01*
X137282403Y-84336418D01*
X137295710Y-84342712D01*
X137308336Y-84350280D01*
X137320159Y-84359048D01*
X137331066Y-84368934D01*
X137340952Y-84379841D01*
X137349720Y-84391664D01*
X137357288Y-84404290D01*
X137363582Y-84417597D01*
X137368541Y-84431457D01*
X137372118Y-84445736D01*
X137374278Y-84460297D01*
X137375000Y-84475000D01*
X137375000Y-85725000D01*
X137374278Y-85739703D01*
X137372118Y-85754264D01*
X137368541Y-85768543D01*
X137363582Y-85782403D01*
X137357288Y-85795710D01*
X137349720Y-85808336D01*
X137340952Y-85820159D01*
X137331066Y-85831066D01*
X137320159Y-85840952D01*
X137308336Y-85849720D01*
X137295710Y-85857288D01*
X137282403Y-85863582D01*
X137268543Y-85868541D01*
X137254264Y-85872118D01*
X137239703Y-85874278D01*
X137225000Y-85875000D01*
X136925000Y-85875000D01*
X136910297Y-85874278D01*
X136895736Y-85872118D01*
X136881457Y-85868541D01*
X136867597Y-85863582D01*
X136854290Y-85857288D01*
X136841664Y-85849720D01*
X136829841Y-85840952D01*
X136818934Y-85831066D01*
X136809048Y-85820159D01*
X136800280Y-85808336D01*
X136792712Y-85795710D01*
X136786418Y-85782403D01*
X136781459Y-85768543D01*
X136777882Y-85754264D01*
X136775722Y-85739703D01*
X136775000Y-85725000D01*
X136775000Y-84475000D01*
X136775722Y-84460297D01*
X136777882Y-84445736D01*
X136781459Y-84431457D01*
X136786418Y-84417597D01*
X136792712Y-84404290D01*
X136800280Y-84391664D01*
X136809048Y-84379841D01*
X136818934Y-84368934D01*
X136829841Y-84359048D01*
X136841664Y-84350280D01*
X136854290Y-84342712D01*
X136867597Y-84336418D01*
X136881457Y-84331459D01*
X136895736Y-84327882D01*
X136910297Y-84325722D01*
X136925000Y-84325000D01*
X137225000Y-84325000D01*
X137239703Y-84325722D01*
X137239703Y-84325722D01*
G37*
D11*
X137075000Y-85100000D03*
D10*
G36*
X138239703Y-84325722D02*
G01*
X138254264Y-84327882D01*
X138268543Y-84331459D01*
X138282403Y-84336418D01*
X138295710Y-84342712D01*
X138308336Y-84350280D01*
X138320159Y-84359048D01*
X138331066Y-84368934D01*
X138340952Y-84379841D01*
X138349720Y-84391664D01*
X138357288Y-84404290D01*
X138363582Y-84417597D01*
X138368541Y-84431457D01*
X138372118Y-84445736D01*
X138374278Y-84460297D01*
X138375000Y-84475000D01*
X138375000Y-85725000D01*
X138374278Y-85739703D01*
X138372118Y-85754264D01*
X138368541Y-85768543D01*
X138363582Y-85782403D01*
X138357288Y-85795710D01*
X138349720Y-85808336D01*
X138340952Y-85820159D01*
X138331066Y-85831066D01*
X138320159Y-85840952D01*
X138308336Y-85849720D01*
X138295710Y-85857288D01*
X138282403Y-85863582D01*
X138268543Y-85868541D01*
X138254264Y-85872118D01*
X138239703Y-85874278D01*
X138225000Y-85875000D01*
X137925000Y-85875000D01*
X137910297Y-85874278D01*
X137895736Y-85872118D01*
X137881457Y-85868541D01*
X137867597Y-85863582D01*
X137854290Y-85857288D01*
X137841664Y-85849720D01*
X137829841Y-85840952D01*
X137818934Y-85831066D01*
X137809048Y-85820159D01*
X137800280Y-85808336D01*
X137792712Y-85795710D01*
X137786418Y-85782403D01*
X137781459Y-85768543D01*
X137777882Y-85754264D01*
X137775722Y-85739703D01*
X137775000Y-85725000D01*
X137775000Y-84475000D01*
X137775722Y-84460297D01*
X137777882Y-84445736D01*
X137781459Y-84431457D01*
X137786418Y-84417597D01*
X137792712Y-84404290D01*
X137800280Y-84391664D01*
X137809048Y-84379841D01*
X137818934Y-84368934D01*
X137829841Y-84359048D01*
X137841664Y-84350280D01*
X137854290Y-84342712D01*
X137867597Y-84336418D01*
X137881457Y-84331459D01*
X137895736Y-84327882D01*
X137910297Y-84325722D01*
X137925000Y-84325000D01*
X138225000Y-84325000D01*
X138239703Y-84325722D01*
X138239703Y-84325722D01*
G37*
D11*
X138075000Y-85100000D03*
D10*
G36*
X133149505Y-80326204D02*
G01*
X133173773Y-80329804D01*
X133197572Y-80335765D01*
X133220671Y-80344030D01*
X133242850Y-80354520D01*
X133263893Y-80367132D01*
X133283599Y-80381747D01*
X133301777Y-80398223D01*
X133318253Y-80416401D01*
X133332868Y-80436107D01*
X133345480Y-80457150D01*
X133355970Y-80479329D01*
X133364235Y-80502428D01*
X133370196Y-80526227D01*
X133373796Y-80550495D01*
X133375000Y-80574999D01*
X133375000Y-81875001D01*
X133373796Y-81899505D01*
X133370196Y-81923773D01*
X133364235Y-81947572D01*
X133355970Y-81970671D01*
X133345480Y-81992850D01*
X133332868Y-82013893D01*
X133318253Y-82033599D01*
X133301777Y-82051777D01*
X133283599Y-82068253D01*
X133263893Y-82082868D01*
X133242850Y-82095480D01*
X133220671Y-82105970D01*
X133197572Y-82114235D01*
X133173773Y-82120196D01*
X133149505Y-82123796D01*
X133125001Y-82125000D01*
X132424999Y-82125000D01*
X132400495Y-82123796D01*
X132376227Y-82120196D01*
X132352428Y-82114235D01*
X132329329Y-82105970D01*
X132307150Y-82095480D01*
X132286107Y-82082868D01*
X132266401Y-82068253D01*
X132248223Y-82051777D01*
X132231747Y-82033599D01*
X132217132Y-82013893D01*
X132204520Y-81992850D01*
X132194030Y-81970671D01*
X132185765Y-81947572D01*
X132179804Y-81923773D01*
X132176204Y-81899505D01*
X132175000Y-81875001D01*
X132175000Y-80574999D01*
X132176204Y-80550495D01*
X132179804Y-80526227D01*
X132185765Y-80502428D01*
X132194030Y-80479329D01*
X132204520Y-80457150D01*
X132217132Y-80436107D01*
X132231747Y-80416401D01*
X132248223Y-80398223D01*
X132266401Y-80381747D01*
X132286107Y-80367132D01*
X132307150Y-80354520D01*
X132329329Y-80344030D01*
X132352428Y-80335765D01*
X132376227Y-80329804D01*
X132400495Y-80326204D01*
X132424999Y-80325000D01*
X133125001Y-80325000D01*
X133149505Y-80326204D01*
X133149505Y-80326204D01*
G37*
D12*
X132775000Y-81225000D03*
D10*
G36*
X139749505Y-80326204D02*
G01*
X139773773Y-80329804D01*
X139797572Y-80335765D01*
X139820671Y-80344030D01*
X139842850Y-80354520D01*
X139863893Y-80367132D01*
X139883599Y-80381747D01*
X139901777Y-80398223D01*
X139918253Y-80416401D01*
X139932868Y-80436107D01*
X139945480Y-80457150D01*
X139955970Y-80479329D01*
X139964235Y-80502428D01*
X139970196Y-80526227D01*
X139973796Y-80550495D01*
X139975000Y-80574999D01*
X139975000Y-81875001D01*
X139973796Y-81899505D01*
X139970196Y-81923773D01*
X139964235Y-81947572D01*
X139955970Y-81970671D01*
X139945480Y-81992850D01*
X139932868Y-82013893D01*
X139918253Y-82033599D01*
X139901777Y-82051777D01*
X139883599Y-82068253D01*
X139863893Y-82082868D01*
X139842850Y-82095480D01*
X139820671Y-82105970D01*
X139797572Y-82114235D01*
X139773773Y-82120196D01*
X139749505Y-82123796D01*
X139725001Y-82125000D01*
X139024999Y-82125000D01*
X139000495Y-82123796D01*
X138976227Y-82120196D01*
X138952428Y-82114235D01*
X138929329Y-82105970D01*
X138907150Y-82095480D01*
X138886107Y-82082868D01*
X138866401Y-82068253D01*
X138848223Y-82051777D01*
X138831747Y-82033599D01*
X138817132Y-82013893D01*
X138804520Y-81992850D01*
X138794030Y-81970671D01*
X138785765Y-81947572D01*
X138779804Y-81923773D01*
X138776204Y-81899505D01*
X138775000Y-81875001D01*
X138775000Y-80574999D01*
X138776204Y-80550495D01*
X138779804Y-80526227D01*
X138785765Y-80502428D01*
X138794030Y-80479329D01*
X138804520Y-80457150D01*
X138817132Y-80436107D01*
X138831747Y-80416401D01*
X138848223Y-80398223D01*
X138866401Y-80381747D01*
X138886107Y-80367132D01*
X138907150Y-80354520D01*
X138929329Y-80344030D01*
X138952428Y-80335765D01*
X138976227Y-80329804D01*
X139000495Y-80326204D01*
X139024999Y-80325000D01*
X139725001Y-80325000D01*
X139749505Y-80326204D01*
X139749505Y-80326204D01*
G37*
D12*
X139375000Y-81225000D03*
D10*
G36*
X141827691Y-80526053D02*
G01*
X141848926Y-80529203D01*
X141869750Y-80534419D01*
X141889962Y-80541651D01*
X141909368Y-80550830D01*
X141927781Y-80561866D01*
X141945024Y-80574654D01*
X141960930Y-80589070D01*
X141975346Y-80604976D01*
X141988134Y-80622219D01*
X141999170Y-80640632D01*
X142008349Y-80660038D01*
X142015581Y-80680250D01*
X142020797Y-80701074D01*
X142023947Y-80722309D01*
X142025000Y-80743750D01*
X142025000Y-81256250D01*
X142023947Y-81277691D01*
X142020797Y-81298926D01*
X142015581Y-81319750D01*
X142008349Y-81339962D01*
X141999170Y-81359368D01*
X141988134Y-81377781D01*
X141975346Y-81395024D01*
X141960930Y-81410930D01*
X141945024Y-81425346D01*
X141927781Y-81438134D01*
X141909368Y-81449170D01*
X141889962Y-81458349D01*
X141869750Y-81465581D01*
X141848926Y-81470797D01*
X141827691Y-81473947D01*
X141806250Y-81475000D01*
X141368750Y-81475000D01*
X141347309Y-81473947D01*
X141326074Y-81470797D01*
X141305250Y-81465581D01*
X141285038Y-81458349D01*
X141265632Y-81449170D01*
X141247219Y-81438134D01*
X141229976Y-81425346D01*
X141214070Y-81410930D01*
X141199654Y-81395024D01*
X141186866Y-81377781D01*
X141175830Y-81359368D01*
X141166651Y-81339962D01*
X141159419Y-81319750D01*
X141154203Y-81298926D01*
X141151053Y-81277691D01*
X141150000Y-81256250D01*
X141150000Y-80743750D01*
X141151053Y-80722309D01*
X141154203Y-80701074D01*
X141159419Y-80680250D01*
X141166651Y-80660038D01*
X141175830Y-80640632D01*
X141186866Y-80622219D01*
X141199654Y-80604976D01*
X141214070Y-80589070D01*
X141229976Y-80574654D01*
X141247219Y-80561866D01*
X141265632Y-80550830D01*
X141285038Y-80541651D01*
X141305250Y-80534419D01*
X141326074Y-80529203D01*
X141347309Y-80526053D01*
X141368750Y-80525000D01*
X141806250Y-80525000D01*
X141827691Y-80526053D01*
X141827691Y-80526053D01*
G37*
D13*
X141587500Y-81000000D03*
D10*
G36*
X143402691Y-80526053D02*
G01*
X143423926Y-80529203D01*
X143444750Y-80534419D01*
X143464962Y-80541651D01*
X143484368Y-80550830D01*
X143502781Y-80561866D01*
X143520024Y-80574654D01*
X143535930Y-80589070D01*
X143550346Y-80604976D01*
X143563134Y-80622219D01*
X143574170Y-80640632D01*
X143583349Y-80660038D01*
X143590581Y-80680250D01*
X143595797Y-80701074D01*
X143598947Y-80722309D01*
X143600000Y-80743750D01*
X143600000Y-81256250D01*
X143598947Y-81277691D01*
X143595797Y-81298926D01*
X143590581Y-81319750D01*
X143583349Y-81339962D01*
X143574170Y-81359368D01*
X143563134Y-81377781D01*
X143550346Y-81395024D01*
X143535930Y-81410930D01*
X143520024Y-81425346D01*
X143502781Y-81438134D01*
X143484368Y-81449170D01*
X143464962Y-81458349D01*
X143444750Y-81465581D01*
X143423926Y-81470797D01*
X143402691Y-81473947D01*
X143381250Y-81475000D01*
X142943750Y-81475000D01*
X142922309Y-81473947D01*
X142901074Y-81470797D01*
X142880250Y-81465581D01*
X142860038Y-81458349D01*
X142840632Y-81449170D01*
X142822219Y-81438134D01*
X142804976Y-81425346D01*
X142789070Y-81410930D01*
X142774654Y-81395024D01*
X142761866Y-81377781D01*
X142750830Y-81359368D01*
X142741651Y-81339962D01*
X142734419Y-81319750D01*
X142729203Y-81298926D01*
X142726053Y-81277691D01*
X142725000Y-81256250D01*
X142725000Y-80743750D01*
X142726053Y-80722309D01*
X142729203Y-80701074D01*
X142734419Y-80680250D01*
X142741651Y-80660038D01*
X142750830Y-80640632D01*
X142761866Y-80622219D01*
X142774654Y-80604976D01*
X142789070Y-80589070D01*
X142804976Y-80574654D01*
X142822219Y-80561866D01*
X142840632Y-80550830D01*
X142860038Y-80541651D01*
X142880250Y-80534419D01*
X142901074Y-80529203D01*
X142922309Y-80526053D01*
X142943750Y-80525000D01*
X143381250Y-80525000D01*
X143402691Y-80526053D01*
X143402691Y-80526053D01*
G37*
D13*
X143162500Y-81000000D03*
D10*
G36*
X143461958Y-83190710D02*
G01*
X143476276Y-83192834D01*
X143490317Y-83196351D01*
X143503946Y-83201228D01*
X143517031Y-83207417D01*
X143529447Y-83214858D01*
X143541073Y-83223481D01*
X143551798Y-83233202D01*
X143561519Y-83243927D01*
X143570142Y-83255553D01*
X143577583Y-83267969D01*
X143583772Y-83281054D01*
X143588649Y-83294683D01*
X143592166Y-83308724D01*
X143594290Y-83323042D01*
X143595000Y-83337500D01*
X143595000Y-83632500D01*
X143594290Y-83646958D01*
X143592166Y-83661276D01*
X143588649Y-83675317D01*
X143583772Y-83688946D01*
X143577583Y-83702031D01*
X143570142Y-83714447D01*
X143561519Y-83726073D01*
X143551798Y-83736798D01*
X143541073Y-83746519D01*
X143529447Y-83755142D01*
X143517031Y-83762583D01*
X143503946Y-83768772D01*
X143490317Y-83773649D01*
X143476276Y-83777166D01*
X143461958Y-83779290D01*
X143447500Y-83780000D01*
X143102500Y-83780000D01*
X143088042Y-83779290D01*
X143073724Y-83777166D01*
X143059683Y-83773649D01*
X143046054Y-83768772D01*
X143032969Y-83762583D01*
X143020553Y-83755142D01*
X143008927Y-83746519D01*
X142998202Y-83736798D01*
X142988481Y-83726073D01*
X142979858Y-83714447D01*
X142972417Y-83702031D01*
X142966228Y-83688946D01*
X142961351Y-83675317D01*
X142957834Y-83661276D01*
X142955710Y-83646958D01*
X142955000Y-83632500D01*
X142955000Y-83337500D01*
X142955710Y-83323042D01*
X142957834Y-83308724D01*
X142961351Y-83294683D01*
X142966228Y-83281054D01*
X142972417Y-83267969D01*
X142979858Y-83255553D01*
X142988481Y-83243927D01*
X142998202Y-83233202D01*
X143008927Y-83223481D01*
X143020553Y-83214858D01*
X143032969Y-83207417D01*
X143046054Y-83201228D01*
X143059683Y-83196351D01*
X143073724Y-83192834D01*
X143088042Y-83190710D01*
X143102500Y-83190000D01*
X143447500Y-83190000D01*
X143461958Y-83190710D01*
X143461958Y-83190710D01*
G37*
D14*
X143275000Y-83485000D03*
D10*
G36*
X143461958Y-82220710D02*
G01*
X143476276Y-82222834D01*
X143490317Y-82226351D01*
X143503946Y-82231228D01*
X143517031Y-82237417D01*
X143529447Y-82244858D01*
X143541073Y-82253481D01*
X143551798Y-82263202D01*
X143561519Y-82273927D01*
X143570142Y-82285553D01*
X143577583Y-82297969D01*
X143583772Y-82311054D01*
X143588649Y-82324683D01*
X143592166Y-82338724D01*
X143594290Y-82353042D01*
X143595000Y-82367500D01*
X143595000Y-82662500D01*
X143594290Y-82676958D01*
X143592166Y-82691276D01*
X143588649Y-82705317D01*
X143583772Y-82718946D01*
X143577583Y-82732031D01*
X143570142Y-82744447D01*
X143561519Y-82756073D01*
X143551798Y-82766798D01*
X143541073Y-82776519D01*
X143529447Y-82785142D01*
X143517031Y-82792583D01*
X143503946Y-82798772D01*
X143490317Y-82803649D01*
X143476276Y-82807166D01*
X143461958Y-82809290D01*
X143447500Y-82810000D01*
X143102500Y-82810000D01*
X143088042Y-82809290D01*
X143073724Y-82807166D01*
X143059683Y-82803649D01*
X143046054Y-82798772D01*
X143032969Y-82792583D01*
X143020553Y-82785142D01*
X143008927Y-82776519D01*
X142998202Y-82766798D01*
X142988481Y-82756073D01*
X142979858Y-82744447D01*
X142972417Y-82732031D01*
X142966228Y-82718946D01*
X142961351Y-82705317D01*
X142957834Y-82691276D01*
X142955710Y-82676958D01*
X142955000Y-82662500D01*
X142955000Y-82367500D01*
X142955710Y-82353042D01*
X142957834Y-82338724D01*
X142961351Y-82324683D01*
X142966228Y-82311054D01*
X142972417Y-82297969D01*
X142979858Y-82285553D01*
X142988481Y-82273927D01*
X142998202Y-82263202D01*
X143008927Y-82253481D01*
X143020553Y-82244858D01*
X143032969Y-82237417D01*
X143046054Y-82231228D01*
X143059683Y-82226351D01*
X143073724Y-82222834D01*
X143088042Y-82220710D01*
X143102500Y-82220000D01*
X143447500Y-82220000D01*
X143461958Y-82220710D01*
X143461958Y-82220710D01*
G37*
D14*
X143275000Y-82515000D03*
D15*
X140375000Y-82787500D03*
X141875000Y-82900000D03*
X136675000Y-86900000D03*
X134875000Y-83000000D03*
X135875000Y-83602400D03*
D16*
X141587500Y-81575000D02*
X140375000Y-82787500D01*
X141587500Y-81000000D02*
X141587500Y-81575000D01*
X140375000Y-82787500D02*
X137887500Y-82787500D01*
X137075000Y-83600000D02*
X137075000Y-85100000D01*
X137887500Y-82787500D02*
X137075000Y-83600000D01*
X138075000Y-85100000D02*
X139675000Y-85100000D01*
X139675000Y-85100000D02*
X141875000Y-82900000D01*
X139860000Y-86900000D02*
X136675000Y-86900000D01*
X143275000Y-83485000D02*
X139860000Y-86900000D01*
X135075000Y-85975000D02*
X135075000Y-85100000D01*
X135600001Y-86500001D02*
X135075000Y-85975000D01*
X136275001Y-86500001D02*
X135600001Y-86500001D01*
X136675000Y-86900000D02*
X136275001Y-86500001D01*
X134075000Y-83800000D02*
X134075000Y-85100000D01*
X134875000Y-83000000D02*
X134075000Y-83800000D01*
X136075000Y-85100000D02*
X136075000Y-83802400D01*
X136075000Y-83802400D02*
X135875000Y-83602400D01*
X143275000Y-81112500D02*
X143162500Y-81000000D01*
X143275000Y-82515000D02*
X143275000Y-81112500D01*
M02*
