G04 #@! TF.GenerationSoftware,KiCad,Pcbnew,5.1.2-f72e74a~84~ubuntu18.04.1*
G04 #@! TF.CreationDate,2019-08-02T15:12:22+02:00*
G04 #@! TF.ProjectId,TLI5012B,544c4935-3031-4324-922e-6b696361645f,rev?*
G04 #@! TF.SameCoordinates,Original*
G04 #@! TF.FileFunction,Soldermask,Top*
G04 #@! TF.FilePolarity,Negative*
%FSLAX46Y46*%
G04 Gerber Fmt 4.6, Leading zero omitted, Abs format (unit mm)*
G04 Created by KiCad (PCBNEW 5.1.2-f72e74a~84~ubuntu18.04.1) date 2019-08-02 15:12:22*
%MOMM*%
%LPD*%
G04 APERTURE LIST*
%ADD10C,0.100000*%
%ADD11C,1.050000*%
%ADD12C,2.600000*%
G04 APERTURE END LIST*
D10*
G36*
X135838229Y-84221264D02*
G01*
X135863711Y-84225044D01*
X135888700Y-84231303D01*
X135912954Y-84239982D01*
X135936242Y-84250996D01*
X135958337Y-84264239D01*
X135979028Y-84279585D01*
X135998116Y-84296884D01*
X136015415Y-84315972D01*
X136030761Y-84336663D01*
X136044004Y-84358758D01*
X136055018Y-84382046D01*
X136063697Y-84406300D01*
X136069956Y-84431289D01*
X136073736Y-84456771D01*
X136075000Y-84482500D01*
X136075000Y-85007500D01*
X136073736Y-85033229D01*
X136069956Y-85058711D01*
X136063697Y-85083700D01*
X136055018Y-85107954D01*
X136044004Y-85131242D01*
X136030761Y-85153337D01*
X136015415Y-85174028D01*
X135998116Y-85193116D01*
X135979028Y-85210415D01*
X135958337Y-85225761D01*
X135936242Y-85239004D01*
X135912954Y-85250018D01*
X135888700Y-85258697D01*
X135863711Y-85264956D01*
X135838229Y-85268736D01*
X135812500Y-85270000D01*
X133962500Y-85270000D01*
X133936771Y-85268736D01*
X133911289Y-85264956D01*
X133886300Y-85258697D01*
X133862046Y-85250018D01*
X133838758Y-85239004D01*
X133816663Y-85225761D01*
X133795972Y-85210415D01*
X133776884Y-85193116D01*
X133759585Y-85174028D01*
X133744239Y-85153337D01*
X133730996Y-85131242D01*
X133719982Y-85107954D01*
X133711303Y-85083700D01*
X133705044Y-85058711D01*
X133701264Y-85033229D01*
X133700000Y-85007500D01*
X133700000Y-84482500D01*
X133701264Y-84456771D01*
X133705044Y-84431289D01*
X133711303Y-84406300D01*
X133719982Y-84382046D01*
X133730996Y-84358758D01*
X133744239Y-84336663D01*
X133759585Y-84315972D01*
X133776884Y-84296884D01*
X133795972Y-84279585D01*
X133816663Y-84264239D01*
X133838758Y-84250996D01*
X133862046Y-84239982D01*
X133886300Y-84231303D01*
X133911289Y-84225044D01*
X133936771Y-84221264D01*
X133962500Y-84220000D01*
X135812500Y-84220000D01*
X135838229Y-84221264D01*
X135838229Y-84221264D01*
G37*
D11*
X134887500Y-84745000D03*
D10*
G36*
X135838229Y-85491264D02*
G01*
X135863711Y-85495044D01*
X135888700Y-85501303D01*
X135912954Y-85509982D01*
X135936242Y-85520996D01*
X135958337Y-85534239D01*
X135979028Y-85549585D01*
X135998116Y-85566884D01*
X136015415Y-85585972D01*
X136030761Y-85606663D01*
X136044004Y-85628758D01*
X136055018Y-85652046D01*
X136063697Y-85676300D01*
X136069956Y-85701289D01*
X136073736Y-85726771D01*
X136075000Y-85752500D01*
X136075000Y-86277500D01*
X136073736Y-86303229D01*
X136069956Y-86328711D01*
X136063697Y-86353700D01*
X136055018Y-86377954D01*
X136044004Y-86401242D01*
X136030761Y-86423337D01*
X136015415Y-86444028D01*
X135998116Y-86463116D01*
X135979028Y-86480415D01*
X135958337Y-86495761D01*
X135936242Y-86509004D01*
X135912954Y-86520018D01*
X135888700Y-86528697D01*
X135863711Y-86534956D01*
X135838229Y-86538736D01*
X135812500Y-86540000D01*
X133962500Y-86540000D01*
X133936771Y-86538736D01*
X133911289Y-86534956D01*
X133886300Y-86528697D01*
X133862046Y-86520018D01*
X133838758Y-86509004D01*
X133816663Y-86495761D01*
X133795972Y-86480415D01*
X133776884Y-86463116D01*
X133759585Y-86444028D01*
X133744239Y-86423337D01*
X133730996Y-86401242D01*
X133719982Y-86377954D01*
X133711303Y-86353700D01*
X133705044Y-86328711D01*
X133701264Y-86303229D01*
X133700000Y-86277500D01*
X133700000Y-85752500D01*
X133701264Y-85726771D01*
X133705044Y-85701289D01*
X133711303Y-85676300D01*
X133719982Y-85652046D01*
X133730996Y-85628758D01*
X133744239Y-85606663D01*
X133759585Y-85585972D01*
X133776884Y-85566884D01*
X133795972Y-85549585D01*
X133816663Y-85534239D01*
X133838758Y-85520996D01*
X133862046Y-85509982D01*
X133886300Y-85501303D01*
X133911289Y-85495044D01*
X133936771Y-85491264D01*
X133962500Y-85490000D01*
X135812500Y-85490000D01*
X135838229Y-85491264D01*
X135838229Y-85491264D01*
G37*
D11*
X134887500Y-86015000D03*
D10*
G36*
X135838229Y-86761264D02*
G01*
X135863711Y-86765044D01*
X135888700Y-86771303D01*
X135912954Y-86779982D01*
X135936242Y-86790996D01*
X135958337Y-86804239D01*
X135979028Y-86819585D01*
X135998116Y-86836884D01*
X136015415Y-86855972D01*
X136030761Y-86876663D01*
X136044004Y-86898758D01*
X136055018Y-86922046D01*
X136063697Y-86946300D01*
X136069956Y-86971289D01*
X136073736Y-86996771D01*
X136075000Y-87022500D01*
X136075000Y-87547500D01*
X136073736Y-87573229D01*
X136069956Y-87598711D01*
X136063697Y-87623700D01*
X136055018Y-87647954D01*
X136044004Y-87671242D01*
X136030761Y-87693337D01*
X136015415Y-87714028D01*
X135998116Y-87733116D01*
X135979028Y-87750415D01*
X135958337Y-87765761D01*
X135936242Y-87779004D01*
X135912954Y-87790018D01*
X135888700Y-87798697D01*
X135863711Y-87804956D01*
X135838229Y-87808736D01*
X135812500Y-87810000D01*
X133962500Y-87810000D01*
X133936771Y-87808736D01*
X133911289Y-87804956D01*
X133886300Y-87798697D01*
X133862046Y-87790018D01*
X133838758Y-87779004D01*
X133816663Y-87765761D01*
X133795972Y-87750415D01*
X133776884Y-87733116D01*
X133759585Y-87714028D01*
X133744239Y-87693337D01*
X133730996Y-87671242D01*
X133719982Y-87647954D01*
X133711303Y-87623700D01*
X133705044Y-87598711D01*
X133701264Y-87573229D01*
X133700000Y-87547500D01*
X133700000Y-87022500D01*
X133701264Y-86996771D01*
X133705044Y-86971289D01*
X133711303Y-86946300D01*
X133719982Y-86922046D01*
X133730996Y-86898758D01*
X133744239Y-86876663D01*
X133759585Y-86855972D01*
X133776884Y-86836884D01*
X133795972Y-86819585D01*
X133816663Y-86804239D01*
X133838758Y-86790996D01*
X133862046Y-86779982D01*
X133886300Y-86771303D01*
X133911289Y-86765044D01*
X133936771Y-86761264D01*
X133962500Y-86760000D01*
X135812500Y-86760000D01*
X135838229Y-86761264D01*
X135838229Y-86761264D01*
G37*
D11*
X134887500Y-87285000D03*
D10*
G36*
X135838229Y-88031264D02*
G01*
X135863711Y-88035044D01*
X135888700Y-88041303D01*
X135912954Y-88049982D01*
X135936242Y-88060996D01*
X135958337Y-88074239D01*
X135979028Y-88089585D01*
X135998116Y-88106884D01*
X136015415Y-88125972D01*
X136030761Y-88146663D01*
X136044004Y-88168758D01*
X136055018Y-88192046D01*
X136063697Y-88216300D01*
X136069956Y-88241289D01*
X136073736Y-88266771D01*
X136075000Y-88292500D01*
X136075000Y-88817500D01*
X136073736Y-88843229D01*
X136069956Y-88868711D01*
X136063697Y-88893700D01*
X136055018Y-88917954D01*
X136044004Y-88941242D01*
X136030761Y-88963337D01*
X136015415Y-88984028D01*
X135998116Y-89003116D01*
X135979028Y-89020415D01*
X135958337Y-89035761D01*
X135936242Y-89049004D01*
X135912954Y-89060018D01*
X135888700Y-89068697D01*
X135863711Y-89074956D01*
X135838229Y-89078736D01*
X135812500Y-89080000D01*
X133962500Y-89080000D01*
X133936771Y-89078736D01*
X133911289Y-89074956D01*
X133886300Y-89068697D01*
X133862046Y-89060018D01*
X133838758Y-89049004D01*
X133816663Y-89035761D01*
X133795972Y-89020415D01*
X133776884Y-89003116D01*
X133759585Y-88984028D01*
X133744239Y-88963337D01*
X133730996Y-88941242D01*
X133719982Y-88917954D01*
X133711303Y-88893700D01*
X133705044Y-88868711D01*
X133701264Y-88843229D01*
X133700000Y-88817500D01*
X133700000Y-88292500D01*
X133701264Y-88266771D01*
X133705044Y-88241289D01*
X133711303Y-88216300D01*
X133719982Y-88192046D01*
X133730996Y-88168758D01*
X133744239Y-88146663D01*
X133759585Y-88125972D01*
X133776884Y-88106884D01*
X133795972Y-88089585D01*
X133816663Y-88074239D01*
X133838758Y-88060996D01*
X133862046Y-88049982D01*
X133886300Y-88041303D01*
X133911289Y-88035044D01*
X133936771Y-88031264D01*
X133962500Y-88030000D01*
X135812500Y-88030000D01*
X135838229Y-88031264D01*
X135838229Y-88031264D01*
G37*
D11*
X134887500Y-88555000D03*
D10*
G36*
X140913229Y-88031264D02*
G01*
X140938711Y-88035044D01*
X140963700Y-88041303D01*
X140987954Y-88049982D01*
X141011242Y-88060996D01*
X141033337Y-88074239D01*
X141054028Y-88089585D01*
X141073116Y-88106884D01*
X141090415Y-88125972D01*
X141105761Y-88146663D01*
X141119004Y-88168758D01*
X141130018Y-88192046D01*
X141138697Y-88216300D01*
X141144956Y-88241289D01*
X141148736Y-88266771D01*
X141150000Y-88292500D01*
X141150000Y-88817500D01*
X141148736Y-88843229D01*
X141144956Y-88868711D01*
X141138697Y-88893700D01*
X141130018Y-88917954D01*
X141119004Y-88941242D01*
X141105761Y-88963337D01*
X141090415Y-88984028D01*
X141073116Y-89003116D01*
X141054028Y-89020415D01*
X141033337Y-89035761D01*
X141011242Y-89049004D01*
X140987954Y-89060018D01*
X140963700Y-89068697D01*
X140938711Y-89074956D01*
X140913229Y-89078736D01*
X140887500Y-89080000D01*
X139037500Y-89080000D01*
X139011771Y-89078736D01*
X138986289Y-89074956D01*
X138961300Y-89068697D01*
X138937046Y-89060018D01*
X138913758Y-89049004D01*
X138891663Y-89035761D01*
X138870972Y-89020415D01*
X138851884Y-89003116D01*
X138834585Y-88984028D01*
X138819239Y-88963337D01*
X138805996Y-88941242D01*
X138794982Y-88917954D01*
X138786303Y-88893700D01*
X138780044Y-88868711D01*
X138776264Y-88843229D01*
X138775000Y-88817500D01*
X138775000Y-88292500D01*
X138776264Y-88266771D01*
X138780044Y-88241289D01*
X138786303Y-88216300D01*
X138794982Y-88192046D01*
X138805996Y-88168758D01*
X138819239Y-88146663D01*
X138834585Y-88125972D01*
X138851884Y-88106884D01*
X138870972Y-88089585D01*
X138891663Y-88074239D01*
X138913758Y-88060996D01*
X138937046Y-88049982D01*
X138961300Y-88041303D01*
X138986289Y-88035044D01*
X139011771Y-88031264D01*
X139037500Y-88030000D01*
X140887500Y-88030000D01*
X140913229Y-88031264D01*
X140913229Y-88031264D01*
G37*
D11*
X139962500Y-88555000D03*
D10*
G36*
X140913229Y-86761264D02*
G01*
X140938711Y-86765044D01*
X140963700Y-86771303D01*
X140987954Y-86779982D01*
X141011242Y-86790996D01*
X141033337Y-86804239D01*
X141054028Y-86819585D01*
X141073116Y-86836884D01*
X141090415Y-86855972D01*
X141105761Y-86876663D01*
X141119004Y-86898758D01*
X141130018Y-86922046D01*
X141138697Y-86946300D01*
X141144956Y-86971289D01*
X141148736Y-86996771D01*
X141150000Y-87022500D01*
X141150000Y-87547500D01*
X141148736Y-87573229D01*
X141144956Y-87598711D01*
X141138697Y-87623700D01*
X141130018Y-87647954D01*
X141119004Y-87671242D01*
X141105761Y-87693337D01*
X141090415Y-87714028D01*
X141073116Y-87733116D01*
X141054028Y-87750415D01*
X141033337Y-87765761D01*
X141011242Y-87779004D01*
X140987954Y-87790018D01*
X140963700Y-87798697D01*
X140938711Y-87804956D01*
X140913229Y-87808736D01*
X140887500Y-87810000D01*
X139037500Y-87810000D01*
X139011771Y-87808736D01*
X138986289Y-87804956D01*
X138961300Y-87798697D01*
X138937046Y-87790018D01*
X138913758Y-87779004D01*
X138891663Y-87765761D01*
X138870972Y-87750415D01*
X138851884Y-87733116D01*
X138834585Y-87714028D01*
X138819239Y-87693337D01*
X138805996Y-87671242D01*
X138794982Y-87647954D01*
X138786303Y-87623700D01*
X138780044Y-87598711D01*
X138776264Y-87573229D01*
X138775000Y-87547500D01*
X138775000Y-87022500D01*
X138776264Y-86996771D01*
X138780044Y-86971289D01*
X138786303Y-86946300D01*
X138794982Y-86922046D01*
X138805996Y-86898758D01*
X138819239Y-86876663D01*
X138834585Y-86855972D01*
X138851884Y-86836884D01*
X138870972Y-86819585D01*
X138891663Y-86804239D01*
X138913758Y-86790996D01*
X138937046Y-86779982D01*
X138961300Y-86771303D01*
X138986289Y-86765044D01*
X139011771Y-86761264D01*
X139037500Y-86760000D01*
X140887500Y-86760000D01*
X140913229Y-86761264D01*
X140913229Y-86761264D01*
G37*
D11*
X139962500Y-87285000D03*
D10*
G36*
X140913229Y-85491264D02*
G01*
X140938711Y-85495044D01*
X140963700Y-85501303D01*
X140987954Y-85509982D01*
X141011242Y-85520996D01*
X141033337Y-85534239D01*
X141054028Y-85549585D01*
X141073116Y-85566884D01*
X141090415Y-85585972D01*
X141105761Y-85606663D01*
X141119004Y-85628758D01*
X141130018Y-85652046D01*
X141138697Y-85676300D01*
X141144956Y-85701289D01*
X141148736Y-85726771D01*
X141150000Y-85752500D01*
X141150000Y-86277500D01*
X141148736Y-86303229D01*
X141144956Y-86328711D01*
X141138697Y-86353700D01*
X141130018Y-86377954D01*
X141119004Y-86401242D01*
X141105761Y-86423337D01*
X141090415Y-86444028D01*
X141073116Y-86463116D01*
X141054028Y-86480415D01*
X141033337Y-86495761D01*
X141011242Y-86509004D01*
X140987954Y-86520018D01*
X140963700Y-86528697D01*
X140938711Y-86534956D01*
X140913229Y-86538736D01*
X140887500Y-86540000D01*
X139037500Y-86540000D01*
X139011771Y-86538736D01*
X138986289Y-86534956D01*
X138961300Y-86528697D01*
X138937046Y-86520018D01*
X138913758Y-86509004D01*
X138891663Y-86495761D01*
X138870972Y-86480415D01*
X138851884Y-86463116D01*
X138834585Y-86444028D01*
X138819239Y-86423337D01*
X138805996Y-86401242D01*
X138794982Y-86377954D01*
X138786303Y-86353700D01*
X138780044Y-86328711D01*
X138776264Y-86303229D01*
X138775000Y-86277500D01*
X138775000Y-85752500D01*
X138776264Y-85726771D01*
X138780044Y-85701289D01*
X138786303Y-85676300D01*
X138794982Y-85652046D01*
X138805996Y-85628758D01*
X138819239Y-85606663D01*
X138834585Y-85585972D01*
X138851884Y-85566884D01*
X138870972Y-85549585D01*
X138891663Y-85534239D01*
X138913758Y-85520996D01*
X138937046Y-85509982D01*
X138961300Y-85501303D01*
X138986289Y-85495044D01*
X139011771Y-85491264D01*
X139037500Y-85490000D01*
X140887500Y-85490000D01*
X140913229Y-85491264D01*
X140913229Y-85491264D01*
G37*
D11*
X139962500Y-86015000D03*
D10*
G36*
X140913229Y-84221264D02*
G01*
X140938711Y-84225044D01*
X140963700Y-84231303D01*
X140987954Y-84239982D01*
X141011242Y-84250996D01*
X141033337Y-84264239D01*
X141054028Y-84279585D01*
X141073116Y-84296884D01*
X141090415Y-84315972D01*
X141105761Y-84336663D01*
X141119004Y-84358758D01*
X141130018Y-84382046D01*
X141138697Y-84406300D01*
X141144956Y-84431289D01*
X141148736Y-84456771D01*
X141150000Y-84482500D01*
X141150000Y-85007500D01*
X141148736Y-85033229D01*
X141144956Y-85058711D01*
X141138697Y-85083700D01*
X141130018Y-85107954D01*
X141119004Y-85131242D01*
X141105761Y-85153337D01*
X141090415Y-85174028D01*
X141073116Y-85193116D01*
X141054028Y-85210415D01*
X141033337Y-85225761D01*
X141011242Y-85239004D01*
X140987954Y-85250018D01*
X140963700Y-85258697D01*
X140938711Y-85264956D01*
X140913229Y-85268736D01*
X140887500Y-85270000D01*
X139037500Y-85270000D01*
X139011771Y-85268736D01*
X138986289Y-85264956D01*
X138961300Y-85258697D01*
X138937046Y-85250018D01*
X138913758Y-85239004D01*
X138891663Y-85225761D01*
X138870972Y-85210415D01*
X138851884Y-85193116D01*
X138834585Y-85174028D01*
X138819239Y-85153337D01*
X138805996Y-85131242D01*
X138794982Y-85107954D01*
X138786303Y-85083700D01*
X138780044Y-85058711D01*
X138776264Y-85033229D01*
X138775000Y-85007500D01*
X138775000Y-84482500D01*
X138776264Y-84456771D01*
X138780044Y-84431289D01*
X138786303Y-84406300D01*
X138794982Y-84382046D01*
X138805996Y-84358758D01*
X138819239Y-84336663D01*
X138834585Y-84315972D01*
X138851884Y-84296884D01*
X138870972Y-84279585D01*
X138891663Y-84264239D01*
X138913758Y-84250996D01*
X138937046Y-84239982D01*
X138961300Y-84231303D01*
X138986289Y-84225044D01*
X139011771Y-84221264D01*
X139037500Y-84220000D01*
X140887500Y-84220000D01*
X140913229Y-84221264D01*
X140913229Y-84221264D01*
G37*
D11*
X139962500Y-84745000D03*
D12*
X133375000Y-90900000D03*
X141675000Y-90900000D03*
M02*
