G04 #@! TF.GenerationSoftware,KiCad,Pcbnew,5.1.2-f72e74a~84~ubuntu18.04.1*
G04 #@! TF.CreationDate,2019-08-02T15:12:22+02:00*
G04 #@! TF.ProjectId,TLI5012B,544c4935-3031-4324-922e-6b696361645f,rev?*
G04 #@! TF.SameCoordinates,Original*
G04 #@! TF.FileFunction,Copper,L1,Top*
G04 #@! TF.FilePolarity,Positive*
%FSLAX46Y46*%
G04 Gerber Fmt 4.6, Leading zero omitted, Abs format (unit mm)*
G04 Created by KiCad (PCBNEW 5.1.2-f72e74a~84~ubuntu18.04.1) date 2019-08-02 15:12:22*
%MOMM*%
%LPD*%
G04 APERTURE LIST*
%ADD10C,0.100000*%
%ADD11C,0.650000*%
%ADD12C,0.800000*%
%ADD13C,0.300000*%
%ADD14C,0.152400*%
G04 APERTURE END LIST*
D10*
G36*
X135728428Y-84420782D02*
G01*
X135744202Y-84423122D01*
X135759671Y-84426997D01*
X135774686Y-84432370D01*
X135789102Y-84439188D01*
X135802780Y-84447386D01*
X135815589Y-84456886D01*
X135827405Y-84467595D01*
X135838114Y-84479411D01*
X135847614Y-84492220D01*
X135855812Y-84505898D01*
X135862630Y-84520314D01*
X135868003Y-84535329D01*
X135871878Y-84550798D01*
X135874218Y-84566572D01*
X135875000Y-84582500D01*
X135875000Y-84907500D01*
X135874218Y-84923428D01*
X135871878Y-84939202D01*
X135868003Y-84954671D01*
X135862630Y-84969686D01*
X135855812Y-84984102D01*
X135847614Y-84997780D01*
X135838114Y-85010589D01*
X135827405Y-85022405D01*
X135815589Y-85033114D01*
X135802780Y-85042614D01*
X135789102Y-85050812D01*
X135774686Y-85057630D01*
X135759671Y-85063003D01*
X135744202Y-85066878D01*
X135728428Y-85069218D01*
X135712500Y-85070000D01*
X134062500Y-85070000D01*
X134046572Y-85069218D01*
X134030798Y-85066878D01*
X134015329Y-85063003D01*
X134000314Y-85057630D01*
X133985898Y-85050812D01*
X133972220Y-85042614D01*
X133959411Y-85033114D01*
X133947595Y-85022405D01*
X133936886Y-85010589D01*
X133927386Y-84997780D01*
X133919188Y-84984102D01*
X133912370Y-84969686D01*
X133906997Y-84954671D01*
X133903122Y-84939202D01*
X133900782Y-84923428D01*
X133900000Y-84907500D01*
X133900000Y-84582500D01*
X133900782Y-84566572D01*
X133903122Y-84550798D01*
X133906997Y-84535329D01*
X133912370Y-84520314D01*
X133919188Y-84505898D01*
X133927386Y-84492220D01*
X133936886Y-84479411D01*
X133947595Y-84467595D01*
X133959411Y-84456886D01*
X133972220Y-84447386D01*
X133985898Y-84439188D01*
X134000314Y-84432370D01*
X134015329Y-84426997D01*
X134030798Y-84423122D01*
X134046572Y-84420782D01*
X134062500Y-84420000D01*
X135712500Y-84420000D01*
X135728428Y-84420782D01*
X135728428Y-84420782D01*
G37*
D11*
X134887500Y-84745000D03*
D10*
G36*
X135728428Y-85690782D02*
G01*
X135744202Y-85693122D01*
X135759671Y-85696997D01*
X135774686Y-85702370D01*
X135789102Y-85709188D01*
X135802780Y-85717386D01*
X135815589Y-85726886D01*
X135827405Y-85737595D01*
X135838114Y-85749411D01*
X135847614Y-85762220D01*
X135855812Y-85775898D01*
X135862630Y-85790314D01*
X135868003Y-85805329D01*
X135871878Y-85820798D01*
X135874218Y-85836572D01*
X135875000Y-85852500D01*
X135875000Y-86177500D01*
X135874218Y-86193428D01*
X135871878Y-86209202D01*
X135868003Y-86224671D01*
X135862630Y-86239686D01*
X135855812Y-86254102D01*
X135847614Y-86267780D01*
X135838114Y-86280589D01*
X135827405Y-86292405D01*
X135815589Y-86303114D01*
X135802780Y-86312614D01*
X135789102Y-86320812D01*
X135774686Y-86327630D01*
X135759671Y-86333003D01*
X135744202Y-86336878D01*
X135728428Y-86339218D01*
X135712500Y-86340000D01*
X134062500Y-86340000D01*
X134046572Y-86339218D01*
X134030798Y-86336878D01*
X134015329Y-86333003D01*
X134000314Y-86327630D01*
X133985898Y-86320812D01*
X133972220Y-86312614D01*
X133959411Y-86303114D01*
X133947595Y-86292405D01*
X133936886Y-86280589D01*
X133927386Y-86267780D01*
X133919188Y-86254102D01*
X133912370Y-86239686D01*
X133906997Y-86224671D01*
X133903122Y-86209202D01*
X133900782Y-86193428D01*
X133900000Y-86177500D01*
X133900000Y-85852500D01*
X133900782Y-85836572D01*
X133903122Y-85820798D01*
X133906997Y-85805329D01*
X133912370Y-85790314D01*
X133919188Y-85775898D01*
X133927386Y-85762220D01*
X133936886Y-85749411D01*
X133947595Y-85737595D01*
X133959411Y-85726886D01*
X133972220Y-85717386D01*
X133985898Y-85709188D01*
X134000314Y-85702370D01*
X134015329Y-85696997D01*
X134030798Y-85693122D01*
X134046572Y-85690782D01*
X134062500Y-85690000D01*
X135712500Y-85690000D01*
X135728428Y-85690782D01*
X135728428Y-85690782D01*
G37*
D11*
X134887500Y-86015000D03*
D10*
G36*
X135728428Y-86960782D02*
G01*
X135744202Y-86963122D01*
X135759671Y-86966997D01*
X135774686Y-86972370D01*
X135789102Y-86979188D01*
X135802780Y-86987386D01*
X135815589Y-86996886D01*
X135827405Y-87007595D01*
X135838114Y-87019411D01*
X135847614Y-87032220D01*
X135855812Y-87045898D01*
X135862630Y-87060314D01*
X135868003Y-87075329D01*
X135871878Y-87090798D01*
X135874218Y-87106572D01*
X135875000Y-87122500D01*
X135875000Y-87447500D01*
X135874218Y-87463428D01*
X135871878Y-87479202D01*
X135868003Y-87494671D01*
X135862630Y-87509686D01*
X135855812Y-87524102D01*
X135847614Y-87537780D01*
X135838114Y-87550589D01*
X135827405Y-87562405D01*
X135815589Y-87573114D01*
X135802780Y-87582614D01*
X135789102Y-87590812D01*
X135774686Y-87597630D01*
X135759671Y-87603003D01*
X135744202Y-87606878D01*
X135728428Y-87609218D01*
X135712500Y-87610000D01*
X134062500Y-87610000D01*
X134046572Y-87609218D01*
X134030798Y-87606878D01*
X134015329Y-87603003D01*
X134000314Y-87597630D01*
X133985898Y-87590812D01*
X133972220Y-87582614D01*
X133959411Y-87573114D01*
X133947595Y-87562405D01*
X133936886Y-87550589D01*
X133927386Y-87537780D01*
X133919188Y-87524102D01*
X133912370Y-87509686D01*
X133906997Y-87494671D01*
X133903122Y-87479202D01*
X133900782Y-87463428D01*
X133900000Y-87447500D01*
X133900000Y-87122500D01*
X133900782Y-87106572D01*
X133903122Y-87090798D01*
X133906997Y-87075329D01*
X133912370Y-87060314D01*
X133919188Y-87045898D01*
X133927386Y-87032220D01*
X133936886Y-87019411D01*
X133947595Y-87007595D01*
X133959411Y-86996886D01*
X133972220Y-86987386D01*
X133985898Y-86979188D01*
X134000314Y-86972370D01*
X134015329Y-86966997D01*
X134030798Y-86963122D01*
X134046572Y-86960782D01*
X134062500Y-86960000D01*
X135712500Y-86960000D01*
X135728428Y-86960782D01*
X135728428Y-86960782D01*
G37*
D11*
X134887500Y-87285000D03*
D10*
G36*
X135728428Y-88230782D02*
G01*
X135744202Y-88233122D01*
X135759671Y-88236997D01*
X135774686Y-88242370D01*
X135789102Y-88249188D01*
X135802780Y-88257386D01*
X135815589Y-88266886D01*
X135827405Y-88277595D01*
X135838114Y-88289411D01*
X135847614Y-88302220D01*
X135855812Y-88315898D01*
X135862630Y-88330314D01*
X135868003Y-88345329D01*
X135871878Y-88360798D01*
X135874218Y-88376572D01*
X135875000Y-88392500D01*
X135875000Y-88717500D01*
X135874218Y-88733428D01*
X135871878Y-88749202D01*
X135868003Y-88764671D01*
X135862630Y-88779686D01*
X135855812Y-88794102D01*
X135847614Y-88807780D01*
X135838114Y-88820589D01*
X135827405Y-88832405D01*
X135815589Y-88843114D01*
X135802780Y-88852614D01*
X135789102Y-88860812D01*
X135774686Y-88867630D01*
X135759671Y-88873003D01*
X135744202Y-88876878D01*
X135728428Y-88879218D01*
X135712500Y-88880000D01*
X134062500Y-88880000D01*
X134046572Y-88879218D01*
X134030798Y-88876878D01*
X134015329Y-88873003D01*
X134000314Y-88867630D01*
X133985898Y-88860812D01*
X133972220Y-88852614D01*
X133959411Y-88843114D01*
X133947595Y-88832405D01*
X133936886Y-88820589D01*
X133927386Y-88807780D01*
X133919188Y-88794102D01*
X133912370Y-88779686D01*
X133906997Y-88764671D01*
X133903122Y-88749202D01*
X133900782Y-88733428D01*
X133900000Y-88717500D01*
X133900000Y-88392500D01*
X133900782Y-88376572D01*
X133903122Y-88360798D01*
X133906997Y-88345329D01*
X133912370Y-88330314D01*
X133919188Y-88315898D01*
X133927386Y-88302220D01*
X133936886Y-88289411D01*
X133947595Y-88277595D01*
X133959411Y-88266886D01*
X133972220Y-88257386D01*
X133985898Y-88249188D01*
X134000314Y-88242370D01*
X134015329Y-88236997D01*
X134030798Y-88233122D01*
X134046572Y-88230782D01*
X134062500Y-88230000D01*
X135712500Y-88230000D01*
X135728428Y-88230782D01*
X135728428Y-88230782D01*
G37*
D11*
X134887500Y-88555000D03*
D10*
G36*
X140803428Y-88230782D02*
G01*
X140819202Y-88233122D01*
X140834671Y-88236997D01*
X140849686Y-88242370D01*
X140864102Y-88249188D01*
X140877780Y-88257386D01*
X140890589Y-88266886D01*
X140902405Y-88277595D01*
X140913114Y-88289411D01*
X140922614Y-88302220D01*
X140930812Y-88315898D01*
X140937630Y-88330314D01*
X140943003Y-88345329D01*
X140946878Y-88360798D01*
X140949218Y-88376572D01*
X140950000Y-88392500D01*
X140950000Y-88717500D01*
X140949218Y-88733428D01*
X140946878Y-88749202D01*
X140943003Y-88764671D01*
X140937630Y-88779686D01*
X140930812Y-88794102D01*
X140922614Y-88807780D01*
X140913114Y-88820589D01*
X140902405Y-88832405D01*
X140890589Y-88843114D01*
X140877780Y-88852614D01*
X140864102Y-88860812D01*
X140849686Y-88867630D01*
X140834671Y-88873003D01*
X140819202Y-88876878D01*
X140803428Y-88879218D01*
X140787500Y-88880000D01*
X139137500Y-88880000D01*
X139121572Y-88879218D01*
X139105798Y-88876878D01*
X139090329Y-88873003D01*
X139075314Y-88867630D01*
X139060898Y-88860812D01*
X139047220Y-88852614D01*
X139034411Y-88843114D01*
X139022595Y-88832405D01*
X139011886Y-88820589D01*
X139002386Y-88807780D01*
X138994188Y-88794102D01*
X138987370Y-88779686D01*
X138981997Y-88764671D01*
X138978122Y-88749202D01*
X138975782Y-88733428D01*
X138975000Y-88717500D01*
X138975000Y-88392500D01*
X138975782Y-88376572D01*
X138978122Y-88360798D01*
X138981997Y-88345329D01*
X138987370Y-88330314D01*
X138994188Y-88315898D01*
X139002386Y-88302220D01*
X139011886Y-88289411D01*
X139022595Y-88277595D01*
X139034411Y-88266886D01*
X139047220Y-88257386D01*
X139060898Y-88249188D01*
X139075314Y-88242370D01*
X139090329Y-88236997D01*
X139105798Y-88233122D01*
X139121572Y-88230782D01*
X139137500Y-88230000D01*
X140787500Y-88230000D01*
X140803428Y-88230782D01*
X140803428Y-88230782D01*
G37*
D11*
X139962500Y-88555000D03*
D10*
G36*
X140803428Y-86960782D02*
G01*
X140819202Y-86963122D01*
X140834671Y-86966997D01*
X140849686Y-86972370D01*
X140864102Y-86979188D01*
X140877780Y-86987386D01*
X140890589Y-86996886D01*
X140902405Y-87007595D01*
X140913114Y-87019411D01*
X140922614Y-87032220D01*
X140930812Y-87045898D01*
X140937630Y-87060314D01*
X140943003Y-87075329D01*
X140946878Y-87090798D01*
X140949218Y-87106572D01*
X140950000Y-87122500D01*
X140950000Y-87447500D01*
X140949218Y-87463428D01*
X140946878Y-87479202D01*
X140943003Y-87494671D01*
X140937630Y-87509686D01*
X140930812Y-87524102D01*
X140922614Y-87537780D01*
X140913114Y-87550589D01*
X140902405Y-87562405D01*
X140890589Y-87573114D01*
X140877780Y-87582614D01*
X140864102Y-87590812D01*
X140849686Y-87597630D01*
X140834671Y-87603003D01*
X140819202Y-87606878D01*
X140803428Y-87609218D01*
X140787500Y-87610000D01*
X139137500Y-87610000D01*
X139121572Y-87609218D01*
X139105798Y-87606878D01*
X139090329Y-87603003D01*
X139075314Y-87597630D01*
X139060898Y-87590812D01*
X139047220Y-87582614D01*
X139034411Y-87573114D01*
X139022595Y-87562405D01*
X139011886Y-87550589D01*
X139002386Y-87537780D01*
X138994188Y-87524102D01*
X138987370Y-87509686D01*
X138981997Y-87494671D01*
X138978122Y-87479202D01*
X138975782Y-87463428D01*
X138975000Y-87447500D01*
X138975000Y-87122500D01*
X138975782Y-87106572D01*
X138978122Y-87090798D01*
X138981997Y-87075329D01*
X138987370Y-87060314D01*
X138994188Y-87045898D01*
X139002386Y-87032220D01*
X139011886Y-87019411D01*
X139022595Y-87007595D01*
X139034411Y-86996886D01*
X139047220Y-86987386D01*
X139060898Y-86979188D01*
X139075314Y-86972370D01*
X139090329Y-86966997D01*
X139105798Y-86963122D01*
X139121572Y-86960782D01*
X139137500Y-86960000D01*
X140787500Y-86960000D01*
X140803428Y-86960782D01*
X140803428Y-86960782D01*
G37*
D11*
X139962500Y-87285000D03*
D10*
G36*
X140803428Y-85690782D02*
G01*
X140819202Y-85693122D01*
X140834671Y-85696997D01*
X140849686Y-85702370D01*
X140864102Y-85709188D01*
X140877780Y-85717386D01*
X140890589Y-85726886D01*
X140902405Y-85737595D01*
X140913114Y-85749411D01*
X140922614Y-85762220D01*
X140930812Y-85775898D01*
X140937630Y-85790314D01*
X140943003Y-85805329D01*
X140946878Y-85820798D01*
X140949218Y-85836572D01*
X140950000Y-85852500D01*
X140950000Y-86177500D01*
X140949218Y-86193428D01*
X140946878Y-86209202D01*
X140943003Y-86224671D01*
X140937630Y-86239686D01*
X140930812Y-86254102D01*
X140922614Y-86267780D01*
X140913114Y-86280589D01*
X140902405Y-86292405D01*
X140890589Y-86303114D01*
X140877780Y-86312614D01*
X140864102Y-86320812D01*
X140849686Y-86327630D01*
X140834671Y-86333003D01*
X140819202Y-86336878D01*
X140803428Y-86339218D01*
X140787500Y-86340000D01*
X139137500Y-86340000D01*
X139121572Y-86339218D01*
X139105798Y-86336878D01*
X139090329Y-86333003D01*
X139075314Y-86327630D01*
X139060898Y-86320812D01*
X139047220Y-86312614D01*
X139034411Y-86303114D01*
X139022595Y-86292405D01*
X139011886Y-86280589D01*
X139002386Y-86267780D01*
X138994188Y-86254102D01*
X138987370Y-86239686D01*
X138981997Y-86224671D01*
X138978122Y-86209202D01*
X138975782Y-86193428D01*
X138975000Y-86177500D01*
X138975000Y-85852500D01*
X138975782Y-85836572D01*
X138978122Y-85820798D01*
X138981997Y-85805329D01*
X138987370Y-85790314D01*
X138994188Y-85775898D01*
X139002386Y-85762220D01*
X139011886Y-85749411D01*
X139022595Y-85737595D01*
X139034411Y-85726886D01*
X139047220Y-85717386D01*
X139060898Y-85709188D01*
X139075314Y-85702370D01*
X139090329Y-85696997D01*
X139105798Y-85693122D01*
X139121572Y-85690782D01*
X139137500Y-85690000D01*
X140787500Y-85690000D01*
X140803428Y-85690782D01*
X140803428Y-85690782D01*
G37*
D11*
X139962500Y-86015000D03*
D10*
G36*
X140803428Y-84420782D02*
G01*
X140819202Y-84423122D01*
X140834671Y-84426997D01*
X140849686Y-84432370D01*
X140864102Y-84439188D01*
X140877780Y-84447386D01*
X140890589Y-84456886D01*
X140902405Y-84467595D01*
X140913114Y-84479411D01*
X140922614Y-84492220D01*
X140930812Y-84505898D01*
X140937630Y-84520314D01*
X140943003Y-84535329D01*
X140946878Y-84550798D01*
X140949218Y-84566572D01*
X140950000Y-84582500D01*
X140950000Y-84907500D01*
X140949218Y-84923428D01*
X140946878Y-84939202D01*
X140943003Y-84954671D01*
X140937630Y-84969686D01*
X140930812Y-84984102D01*
X140922614Y-84997780D01*
X140913114Y-85010589D01*
X140902405Y-85022405D01*
X140890589Y-85033114D01*
X140877780Y-85042614D01*
X140864102Y-85050812D01*
X140849686Y-85057630D01*
X140834671Y-85063003D01*
X140819202Y-85066878D01*
X140803428Y-85069218D01*
X140787500Y-85070000D01*
X139137500Y-85070000D01*
X139121572Y-85069218D01*
X139105798Y-85066878D01*
X139090329Y-85063003D01*
X139075314Y-85057630D01*
X139060898Y-85050812D01*
X139047220Y-85042614D01*
X139034411Y-85033114D01*
X139022595Y-85022405D01*
X139011886Y-85010589D01*
X139002386Y-84997780D01*
X138994188Y-84984102D01*
X138987370Y-84969686D01*
X138981997Y-84954671D01*
X138978122Y-84939202D01*
X138975782Y-84923428D01*
X138975000Y-84907500D01*
X138975000Y-84582500D01*
X138975782Y-84566572D01*
X138978122Y-84550798D01*
X138981997Y-84535329D01*
X138987370Y-84520314D01*
X138994188Y-84505898D01*
X139002386Y-84492220D01*
X139011886Y-84479411D01*
X139022595Y-84467595D01*
X139034411Y-84456886D01*
X139047220Y-84447386D01*
X139060898Y-84439188D01*
X139075314Y-84432370D01*
X139090329Y-84426997D01*
X139105798Y-84423122D01*
X139121572Y-84420782D01*
X139137500Y-84420000D01*
X140787500Y-84420000D01*
X140803428Y-84420782D01*
X140803428Y-84420782D01*
G37*
D11*
X139962500Y-84745000D03*
D12*
X140375000Y-82787500D03*
X141875000Y-82900000D03*
X136675000Y-86900000D03*
X134875000Y-83000000D03*
X135875000Y-83602400D03*
D13*
X139962500Y-86015000D02*
X141360000Y-86015000D01*
X141360000Y-86015000D02*
X141675000Y-85700000D01*
X141675000Y-84087500D02*
X140375000Y-82787500D01*
X141675000Y-85700000D02*
X141675000Y-84087500D01*
D14*
X140277500Y-87100000D02*
X140312500Y-87135000D01*
D13*
X142127410Y-86207590D02*
X141050000Y-87285000D01*
X142127410Y-83900106D02*
X142127410Y-86207590D01*
X141050000Y-87285000D02*
X139962500Y-87285000D01*
X141875000Y-83647696D02*
X142127410Y-83900106D01*
X141875000Y-82900000D02*
X141875000Y-83647696D01*
X139962500Y-88555000D02*
X138330000Y-88555000D01*
X138330000Y-88555000D02*
X136675000Y-86900000D01*
X139962500Y-84745000D02*
X138117500Y-82900000D01*
X138117500Y-82900000D02*
X134975000Y-82900000D01*
X134975000Y-82900000D02*
X134875000Y-83000000D01*
X135875000Y-83757500D02*
X134887500Y-84745000D01*
X135875000Y-83602400D02*
X135875000Y-83757500D01*
M02*
