G04 #@! TF.GenerationSoftware,KiCad,Pcbnew,5.1.2-f72e74a~84~ubuntu18.04.1*
G04 #@! TF.CreationDate,2019-07-25T12:47:21+02:00*
G04 #@! TF.ProjectId,TLI5012B,544c4935-3031-4324-922e-6b696361645f,rev?*
G04 #@! TF.SameCoordinates,Original*
G04 #@! TF.FileFunction,Legend,Bot*
G04 #@! TF.FilePolarity,Positive*
%FSLAX46Y46*%
G04 Gerber Fmt 4.6, Leading zero omitted, Abs format (unit mm)*
G04 Created by KiCad (PCBNEW 5.1.2-f72e74a~84~ubuntu18.04.1) date 2019-07-25 12:47:21*
%MOMM*%
%LPD*%
G04 APERTURE LIST*
%ADD10C,0.010000*%
%ADD11C,0.060000*%
%ADD12C,0.120000*%
%ADD13C,0.100000*%
G04 APERTURE END LIST*
D10*
G36*
X141993423Y-89398223D02*
G01*
X142031263Y-89394934D01*
X142051759Y-89391103D01*
X142103390Y-89374126D01*
X142148060Y-89350346D01*
X142185646Y-89320473D01*
X142216024Y-89285219D01*
X142239071Y-89245297D01*
X142254661Y-89201417D01*
X142262672Y-89154292D01*
X142262980Y-89104634D01*
X142255461Y-89053154D01*
X142239990Y-89000564D01*
X142216445Y-88947576D01*
X142184701Y-88894901D01*
X142146669Y-88845602D01*
X142097024Y-88794494D01*
X142042034Y-88749745D01*
X141982863Y-88711858D01*
X141920678Y-88681334D01*
X141856645Y-88658675D01*
X141791929Y-88644383D01*
X141727695Y-88638959D01*
X141673218Y-88641831D01*
X141618393Y-88652893D01*
X141569297Y-88671964D01*
X141526371Y-88698852D01*
X141507887Y-88714667D01*
X141476140Y-88748564D01*
X141453000Y-88783038D01*
X141437118Y-88820680D01*
X141427141Y-88864084D01*
X141425986Y-88871855D01*
X141423426Y-88926245D01*
X141430286Y-88981309D01*
X141445934Y-89036248D01*
X141459275Y-89066525D01*
X141824164Y-89066525D01*
X141826545Y-89044888D01*
X141839506Y-89000696D01*
X141860689Y-88961343D01*
X141889198Y-88927878D01*
X141924137Y-88901347D01*
X141964610Y-88882796D01*
X141965453Y-88882519D01*
X141985411Y-88878540D01*
X142012461Y-88876848D01*
X142030684Y-88877024D01*
X142054938Y-88878429D01*
X142073324Y-88881366D01*
X142090122Y-88886824D01*
X142107690Y-88894845D01*
X142144679Y-88918212D01*
X142175282Y-88948052D01*
X142198754Y-88982952D01*
X142214349Y-89021496D01*
X142221322Y-89062272D01*
X142218925Y-89103866D01*
X142218670Y-89105278D01*
X142205966Y-89147176D01*
X142184644Y-89185562D01*
X142155985Y-89218785D01*
X142121270Y-89245194D01*
X142102445Y-89255142D01*
X142072518Y-89264650D01*
X142037396Y-89269214D01*
X142000790Y-89268775D01*
X141966413Y-89263276D01*
X141948531Y-89257574D01*
X141913383Y-89238514D01*
X141882691Y-89212056D01*
X141857440Y-89179913D01*
X141838613Y-89143801D01*
X141827193Y-89105433D01*
X141824164Y-89066525D01*
X141459275Y-89066525D01*
X141469736Y-89090264D01*
X141501061Y-89142559D01*
X141539274Y-89192334D01*
X141583745Y-89238793D01*
X141633840Y-89281136D01*
X141688926Y-89318566D01*
X141748370Y-89350284D01*
X141811541Y-89375493D01*
X141829886Y-89381299D01*
X141866263Y-89389762D01*
X141907757Y-89395497D01*
X141951199Y-89398364D01*
X141993423Y-89398223D01*
X141993423Y-89398223D01*
G37*
X141993423Y-89398223D02*
X142031263Y-89394934D01*
X142051759Y-89391103D01*
X142103390Y-89374126D01*
X142148060Y-89350346D01*
X142185646Y-89320473D01*
X142216024Y-89285219D01*
X142239071Y-89245297D01*
X142254661Y-89201417D01*
X142262672Y-89154292D01*
X142262980Y-89104634D01*
X142255461Y-89053154D01*
X142239990Y-89000564D01*
X142216445Y-88947576D01*
X142184701Y-88894901D01*
X142146669Y-88845602D01*
X142097024Y-88794494D01*
X142042034Y-88749745D01*
X141982863Y-88711858D01*
X141920678Y-88681334D01*
X141856645Y-88658675D01*
X141791929Y-88644383D01*
X141727695Y-88638959D01*
X141673218Y-88641831D01*
X141618393Y-88652893D01*
X141569297Y-88671964D01*
X141526371Y-88698852D01*
X141507887Y-88714667D01*
X141476140Y-88748564D01*
X141453000Y-88783038D01*
X141437118Y-88820680D01*
X141427141Y-88864084D01*
X141425986Y-88871855D01*
X141423426Y-88926245D01*
X141430286Y-88981309D01*
X141445934Y-89036248D01*
X141459275Y-89066525D01*
X141824164Y-89066525D01*
X141826545Y-89044888D01*
X141839506Y-89000696D01*
X141860689Y-88961343D01*
X141889198Y-88927878D01*
X141924137Y-88901347D01*
X141964610Y-88882796D01*
X141965453Y-88882519D01*
X141985411Y-88878540D01*
X142012461Y-88876848D01*
X142030684Y-88877024D01*
X142054938Y-88878429D01*
X142073324Y-88881366D01*
X142090122Y-88886824D01*
X142107690Y-88894845D01*
X142144679Y-88918212D01*
X142175282Y-88948052D01*
X142198754Y-88982952D01*
X142214349Y-89021496D01*
X142221322Y-89062272D01*
X142218925Y-89103866D01*
X142218670Y-89105278D01*
X142205966Y-89147176D01*
X142184644Y-89185562D01*
X142155985Y-89218785D01*
X142121270Y-89245194D01*
X142102445Y-89255142D01*
X142072518Y-89264650D01*
X142037396Y-89269214D01*
X142000790Y-89268775D01*
X141966413Y-89263276D01*
X141948531Y-89257574D01*
X141913383Y-89238514D01*
X141882691Y-89212056D01*
X141857440Y-89179913D01*
X141838613Y-89143801D01*
X141827193Y-89105433D01*
X141824164Y-89066525D01*
X141459275Y-89066525D01*
X141469736Y-89090264D01*
X141501061Y-89142559D01*
X141539274Y-89192334D01*
X141583745Y-89238793D01*
X141633840Y-89281136D01*
X141688926Y-89318566D01*
X141748370Y-89350284D01*
X141811541Y-89375493D01*
X141829886Y-89381299D01*
X141866263Y-89389762D01*
X141907757Y-89395497D01*
X141951199Y-89398364D01*
X141993423Y-89398223D01*
G36*
X140368665Y-89207600D02*
G01*
X140386199Y-89205185D01*
X140402879Y-89199924D01*
X140421678Y-89191596D01*
X140471544Y-89163190D01*
X140521028Y-89125974D01*
X140569186Y-89081287D01*
X140615077Y-89030464D01*
X140657757Y-88974842D01*
X140696285Y-88915756D01*
X140729717Y-88854544D01*
X140757112Y-88792541D01*
X140777526Y-88731083D01*
X140790018Y-88671508D01*
X140790381Y-88668871D01*
X140793149Y-88625804D01*
X140789456Y-88587743D01*
X140779593Y-88555573D01*
X140763853Y-88530178D01*
X140742525Y-88512444D01*
X140738187Y-88510168D01*
X140710219Y-88501682D01*
X140678409Y-88500419D01*
X140646189Y-88506512D01*
X140645740Y-88506654D01*
X140602203Y-88524943D01*
X140557270Y-88552158D01*
X140511881Y-88587335D01*
X140466976Y-88629513D01*
X140423495Y-88677728D01*
X140382378Y-88731018D01*
X140344565Y-88788421D01*
X140310996Y-88848974D01*
X140310540Y-88849881D01*
X140285181Y-88904155D01*
X140276711Y-88926426D01*
X140430284Y-88926426D01*
X140430543Y-88898685D01*
X140433121Y-88870689D01*
X140437567Y-88847298D01*
X140447407Y-88817135D01*
X140461999Y-88782844D01*
X140479535Y-88748056D01*
X140498208Y-88716404D01*
X140513382Y-88694978D01*
X140544895Y-88659194D01*
X140576152Y-88631105D01*
X140606506Y-88611000D01*
X140635309Y-88599166D01*
X140661913Y-88595891D01*
X140685670Y-88601462D01*
X140701133Y-88611534D01*
X140715767Y-88628001D01*
X140725019Y-88647997D01*
X140729606Y-88673687D01*
X140730402Y-88699684D01*
X140726584Y-88738915D01*
X140716587Y-88779233D01*
X140701265Y-88819549D01*
X140681466Y-88858772D01*
X140658042Y-88895812D01*
X140631844Y-88929579D01*
X140603723Y-88958982D01*
X140574529Y-88982931D01*
X140545113Y-89000336D01*
X140516326Y-89010106D01*
X140489019Y-89011151D01*
X140487521Y-89010925D01*
X140465226Y-89002390D01*
X140446870Y-88985571D01*
X140436805Y-88968314D01*
X140432365Y-88950705D01*
X140430284Y-88926426D01*
X140276711Y-88926426D01*
X140266505Y-88953258D01*
X140253956Y-88999150D01*
X140246980Y-89043791D01*
X140245024Y-89081180D01*
X140245147Y-89106266D01*
X140246356Y-89124220D01*
X140249108Y-89138050D01*
X140253861Y-89150765D01*
X140256443Y-89156249D01*
X140267212Y-89173579D01*
X140280671Y-89189267D01*
X140286471Y-89194349D01*
X140296774Y-89201392D01*
X140306873Y-89205548D01*
X140319939Y-89207557D01*
X140339145Y-89208162D01*
X140345641Y-89208180D01*
X140368665Y-89207600D01*
X140368665Y-89207600D01*
G37*
X140368665Y-89207600D02*
X140386199Y-89205185D01*
X140402879Y-89199924D01*
X140421678Y-89191596D01*
X140471544Y-89163190D01*
X140521028Y-89125974D01*
X140569186Y-89081287D01*
X140615077Y-89030464D01*
X140657757Y-88974842D01*
X140696285Y-88915756D01*
X140729717Y-88854544D01*
X140757112Y-88792541D01*
X140777526Y-88731083D01*
X140790018Y-88671508D01*
X140790381Y-88668871D01*
X140793149Y-88625804D01*
X140789456Y-88587743D01*
X140779593Y-88555573D01*
X140763853Y-88530178D01*
X140742525Y-88512444D01*
X140738187Y-88510168D01*
X140710219Y-88501682D01*
X140678409Y-88500419D01*
X140646189Y-88506512D01*
X140645740Y-88506654D01*
X140602203Y-88524943D01*
X140557270Y-88552158D01*
X140511881Y-88587335D01*
X140466976Y-88629513D01*
X140423495Y-88677728D01*
X140382378Y-88731018D01*
X140344565Y-88788421D01*
X140310996Y-88848974D01*
X140310540Y-88849881D01*
X140285181Y-88904155D01*
X140276711Y-88926426D01*
X140430284Y-88926426D01*
X140430543Y-88898685D01*
X140433121Y-88870689D01*
X140437567Y-88847298D01*
X140447407Y-88817135D01*
X140461999Y-88782844D01*
X140479535Y-88748056D01*
X140498208Y-88716404D01*
X140513382Y-88694978D01*
X140544895Y-88659194D01*
X140576152Y-88631105D01*
X140606506Y-88611000D01*
X140635309Y-88599166D01*
X140661913Y-88595891D01*
X140685670Y-88601462D01*
X140701133Y-88611534D01*
X140715767Y-88628001D01*
X140725019Y-88647997D01*
X140729606Y-88673687D01*
X140730402Y-88699684D01*
X140726584Y-88738915D01*
X140716587Y-88779233D01*
X140701265Y-88819549D01*
X140681466Y-88858772D01*
X140658042Y-88895812D01*
X140631844Y-88929579D01*
X140603723Y-88958982D01*
X140574529Y-88982931D01*
X140545113Y-89000336D01*
X140516326Y-89010106D01*
X140489019Y-89011151D01*
X140487521Y-89010925D01*
X140465226Y-89002390D01*
X140446870Y-88985571D01*
X140436805Y-88968314D01*
X140432365Y-88950705D01*
X140430284Y-88926426D01*
X140276711Y-88926426D01*
X140266505Y-88953258D01*
X140253956Y-88999150D01*
X140246980Y-89043791D01*
X140245024Y-89081180D01*
X140245147Y-89106266D01*
X140246356Y-89124220D01*
X140249108Y-89138050D01*
X140253861Y-89150765D01*
X140256443Y-89156249D01*
X140267212Y-89173579D01*
X140280671Y-89189267D01*
X140286471Y-89194349D01*
X140296774Y-89201392D01*
X140306873Y-89205548D01*
X140319939Y-89207557D01*
X140339145Y-89208162D01*
X140345641Y-89208180D01*
X140368665Y-89207600D01*
D11*
G36*
X141699692Y-87768170D02*
G01*
X141703884Y-87762762D01*
X141704842Y-87754566D01*
X141700424Y-87749146D01*
X141688375Y-87741290D01*
X141670655Y-87731907D01*
X141649225Y-87721910D01*
X141626046Y-87712209D01*
X141603078Y-87703716D01*
X141582282Y-87697341D01*
X141580917Y-87696987D01*
X141537856Y-87689514D01*
X141489361Y-87687140D01*
X141438785Y-87689862D01*
X141392500Y-87697035D01*
X141365200Y-87702814D01*
X141346309Y-87707027D01*
X141334286Y-87710160D01*
X141327588Y-87712698D01*
X141324673Y-87715124D01*
X141323999Y-87717924D01*
X141323997Y-87718567D01*
X141325026Y-87726273D01*
X141328898Y-87730916D01*
X141337140Y-87732631D01*
X141351276Y-87731551D01*
X141372832Y-87727810D01*
X141389960Y-87724343D01*
X141448922Y-87714891D01*
X141502388Y-87712559D01*
X141552312Y-87717558D01*
X141600646Y-87730099D01*
X141649342Y-87750391D01*
X141654221Y-87752812D01*
X141676207Y-87763242D01*
X141690915Y-87768346D01*
X141699692Y-87768170D01*
X141699692Y-87768170D01*
G37*
X141699692Y-87768170D02*
X141703884Y-87762762D01*
X141704842Y-87754566D01*
X141700424Y-87749146D01*
X141688375Y-87741290D01*
X141670655Y-87731907D01*
X141649225Y-87721910D01*
X141626046Y-87712209D01*
X141603078Y-87703716D01*
X141582282Y-87697341D01*
X141580917Y-87696987D01*
X141537856Y-87689514D01*
X141489361Y-87687140D01*
X141438785Y-87689862D01*
X141392500Y-87697035D01*
X141365200Y-87702814D01*
X141346309Y-87707027D01*
X141334286Y-87710160D01*
X141327588Y-87712698D01*
X141324673Y-87715124D01*
X141323999Y-87717924D01*
X141323997Y-87718567D01*
X141325026Y-87726273D01*
X141328898Y-87730916D01*
X141337140Y-87732631D01*
X141351276Y-87731551D01*
X141372832Y-87727810D01*
X141389960Y-87724343D01*
X141448922Y-87714891D01*
X141502388Y-87712559D01*
X141552312Y-87717558D01*
X141600646Y-87730099D01*
X141649342Y-87750391D01*
X141654221Y-87752812D01*
X141676207Y-87763242D01*
X141690915Y-87768346D01*
X141699692Y-87768170D01*
D10*
G36*
X141186411Y-92552342D02*
G01*
X141235303Y-92550966D01*
X141276791Y-92548773D01*
X141279248Y-92548596D01*
X141445730Y-92531383D01*
X141609856Y-92504381D01*
X141771263Y-92467764D01*
X141929589Y-92421703D01*
X142084470Y-92366372D01*
X142235545Y-92301944D01*
X142382451Y-92228590D01*
X142524824Y-92146485D01*
X142662304Y-92055801D01*
X142794526Y-91956710D01*
X142921128Y-91849386D01*
X143041748Y-91734001D01*
X143086488Y-91687494D01*
X143197388Y-91562198D01*
X143299852Y-91431320D01*
X143393766Y-91295106D01*
X143479014Y-91153803D01*
X143555485Y-91007656D01*
X143623064Y-90856909D01*
X143681637Y-90701810D01*
X143731090Y-90542604D01*
X143771310Y-90379535D01*
X143802184Y-90212851D01*
X143816027Y-90112420D01*
X143818688Y-90084386D01*
X143821056Y-90047842D01*
X143823107Y-90004435D01*
X143824818Y-89955812D01*
X143826168Y-89903621D01*
X143827131Y-89849507D01*
X143827687Y-89795119D01*
X143827810Y-89742102D01*
X143827479Y-89692103D01*
X143826671Y-89646771D01*
X143825362Y-89607750D01*
X143823529Y-89576689D01*
X143823521Y-89576591D01*
X143805425Y-89412262D01*
X143777523Y-89250053D01*
X143740024Y-89090364D01*
X143693137Y-88933595D01*
X143637068Y-88780147D01*
X143572026Y-88630420D01*
X143498220Y-88484814D01*
X143415858Y-88343729D01*
X143325147Y-88207567D01*
X143226295Y-88076727D01*
X143119512Y-87951609D01*
X143005005Y-87832615D01*
X142882982Y-87720144D01*
X142838827Y-87682635D01*
X142707339Y-87579836D01*
X142570556Y-87485630D01*
X142428820Y-87400156D01*
X142282475Y-87323556D01*
X142131863Y-87255970D01*
X141977328Y-87197538D01*
X141819213Y-87148401D01*
X141657861Y-87108700D01*
X141493615Y-87078575D01*
X141326818Y-87058166D01*
X141311220Y-87056770D01*
X141279605Y-87054579D01*
X141240273Y-87052717D01*
X141195337Y-87051209D01*
X141146909Y-87050084D01*
X141097102Y-87049366D01*
X141048029Y-87049083D01*
X141001802Y-87049260D01*
X140960534Y-87049924D01*
X140926338Y-87051101D01*
X140913694Y-87051813D01*
X140744062Y-87067958D01*
X140577378Y-87093692D01*
X140413908Y-87128901D01*
X140253916Y-87173471D01*
X140097667Y-87227288D01*
X139945427Y-87290237D01*
X139797461Y-87362204D01*
X139654033Y-87443075D01*
X139515408Y-87532735D01*
X139381852Y-87631071D01*
X139253630Y-87737969D01*
X139192269Y-87793964D01*
X139073879Y-87912133D01*
X138963479Y-88036429D01*
X138861241Y-88166490D01*
X138767338Y-88301952D01*
X138681943Y-88442454D01*
X138605229Y-88587631D01*
X138537370Y-88737120D01*
X138478537Y-88890559D01*
X138428904Y-89047584D01*
X138388644Y-89207832D01*
X138357930Y-89370940D01*
X138336935Y-89536546D01*
X138331484Y-89600832D01*
X138329235Y-89641757D01*
X138327806Y-89690216D01*
X138327158Y-89744259D01*
X138327254Y-89801935D01*
X138327845Y-89845720D01*
X140010866Y-89845720D01*
X140011087Y-89785133D01*
X140011800Y-89732745D01*
X140013154Y-89686602D01*
X140015296Y-89644751D01*
X140018376Y-89605237D01*
X140022541Y-89566105D01*
X140027939Y-89525402D01*
X140034719Y-89481173D01*
X140041683Y-89439320D01*
X140066321Y-89314233D01*
X140098172Y-89184216D01*
X140136644Y-89050845D01*
X140181146Y-88915694D01*
X140231085Y-88780340D01*
X140285869Y-88646356D01*
X140344907Y-88515317D01*
X140407605Y-88388799D01*
X140473373Y-88268377D01*
X140497138Y-88227740D01*
X140522850Y-88185850D01*
X140547392Y-88148930D01*
X140572458Y-88114837D01*
X140599739Y-88081423D01*
X140630927Y-88046545D01*
X140667714Y-88008056D01*
X140681237Y-87994332D01*
X140749539Y-87927937D01*
X140815032Y-87869661D01*
X140879180Y-87818406D01*
X140943445Y-87773073D01*
X141009292Y-87732564D01*
X141078183Y-87695780D01*
X141080625Y-87694568D01*
X141147865Y-87663369D01*
X141215523Y-87636409D01*
X141284818Y-87613426D01*
X141356972Y-87594159D01*
X141433208Y-87578347D01*
X141514746Y-87565729D01*
X141602807Y-87556045D01*
X141698614Y-87549032D01*
X141779301Y-87545257D01*
X141793468Y-87545935D01*
X141814174Y-87548395D01*
X141838042Y-87552195D01*
X141851346Y-87554705D01*
X141957126Y-87581031D01*
X142061227Y-87617276D01*
X142163740Y-87663480D01*
X142264759Y-87719684D01*
X142343715Y-87771285D01*
X142379948Y-87797557D01*
X142420856Y-87828952D01*
X142465005Y-87864236D01*
X142510964Y-87902174D01*
X142557299Y-87941533D01*
X142602577Y-87981079D01*
X142645365Y-88019577D01*
X142684230Y-88055793D01*
X142717740Y-88088494D01*
X142744357Y-88116331D01*
X142794078Y-88173429D01*
X142843026Y-88234167D01*
X142890342Y-88297228D01*
X142935168Y-88361298D01*
X142976646Y-88425061D01*
X143013916Y-88487200D01*
X143046120Y-88546400D01*
X143072399Y-88601346D01*
X143090547Y-88646840D01*
X143102166Y-88683317D01*
X143108669Y-88713080D01*
X143110291Y-88738054D01*
X143107266Y-88760162D01*
X143105229Y-88767345D01*
X143096899Y-88800817D01*
X143090174Y-88844150D01*
X143085045Y-88897418D01*
X143083557Y-88919520D01*
X143081914Y-88942715D01*
X143080091Y-88962173D01*
X143078327Y-88975646D01*
X143077048Y-88980721D01*
X143070985Y-88984909D01*
X143058461Y-88991184D01*
X143046213Y-88996506D01*
X143010191Y-89014195D01*
X142980050Y-89035889D01*
X142955055Y-89062667D01*
X142934472Y-89095604D01*
X142917567Y-89135779D01*
X142903606Y-89184267D01*
X142896731Y-89215800D01*
X142888109Y-89270016D01*
X142881872Y-89332701D01*
X142878003Y-89402453D01*
X142876488Y-89477869D01*
X142877310Y-89557547D01*
X142880454Y-89640083D01*
X142885904Y-89724076D01*
X142893644Y-89808122D01*
X142903658Y-89890819D01*
X142904391Y-89896143D01*
X142912683Y-89947379D01*
X142923851Y-90001477D01*
X142938299Y-90060119D01*
X142956436Y-90124988D01*
X142972507Y-90178106D01*
X142983001Y-90213404D01*
X142989749Y-90239777D01*
X142992856Y-90257702D01*
X142992630Y-90267006D01*
X142991992Y-90274183D01*
X142991273Y-90290661D01*
X142990490Y-90315578D01*
X142989662Y-90348074D01*
X142988807Y-90387292D01*
X142987943Y-90432369D01*
X142987087Y-90482447D01*
X142986258Y-90536665D01*
X142985474Y-90594164D01*
X142985024Y-90630580D01*
X142984099Y-90705134D01*
X142983178Y-90770564D01*
X142982209Y-90827906D01*
X142981143Y-90878198D01*
X142979928Y-90922475D01*
X142978514Y-90961772D01*
X142976851Y-90997128D01*
X142974886Y-91029578D01*
X142972570Y-91060157D01*
X142969853Y-91089903D01*
X142966682Y-91119852D01*
X142963009Y-91151039D01*
X142958781Y-91184502D01*
X142957415Y-91195005D01*
X142948450Y-91257467D01*
X142937637Y-91322818D01*
X142925663Y-91387228D01*
X142913216Y-91446869D01*
X142908201Y-91468780D01*
X142902194Y-91494260D01*
X142896859Y-91516922D01*
X142892719Y-91534535D01*
X142890300Y-91544865D01*
X142890099Y-91545727D01*
X142884514Y-91555404D01*
X142871770Y-91569860D01*
X142853059Y-91588088D01*
X142829573Y-91609080D01*
X142802505Y-91631830D01*
X142773047Y-91655329D01*
X142742391Y-91678570D01*
X142711729Y-91700546D01*
X142687900Y-91716602D01*
X142594663Y-91771439D01*
X142495366Y-91818335D01*
X142389885Y-91857335D01*
X142278099Y-91888485D01*
X142159885Y-91911827D01*
X142149420Y-91913471D01*
X142104797Y-91919006D01*
X142052546Y-91923267D01*
X141995123Y-91926211D01*
X141934984Y-91927792D01*
X141874587Y-91927964D01*
X141816389Y-91926684D01*
X141762846Y-91923906D01*
X141730320Y-91921136D01*
X141593305Y-91903124D01*
X141461889Y-91877752D01*
X141336374Y-91845137D01*
X141217065Y-91805393D01*
X141104262Y-91758638D01*
X140998270Y-91704986D01*
X140899391Y-91644553D01*
X140807928Y-91577456D01*
X140787307Y-91560535D01*
X140754118Y-91531516D01*
X140721726Y-91500572D01*
X140688635Y-91466130D01*
X140653349Y-91426622D01*
X140614372Y-91380476D01*
X140605517Y-91369720D01*
X140501906Y-91237268D01*
X140408379Y-91104813D01*
X140324858Y-90972203D01*
X140251268Y-90839284D01*
X140187533Y-90705902D01*
X140133577Y-90571902D01*
X140089324Y-90437133D01*
X140054697Y-90301439D01*
X140039339Y-90224180D01*
X140031862Y-90181036D01*
X140025787Y-90142439D01*
X140020975Y-90106548D01*
X140017287Y-90071523D01*
X140014585Y-90035523D01*
X140012730Y-89996709D01*
X140011585Y-89953238D01*
X140011009Y-89903271D01*
X140010866Y-89845720D01*
X138327845Y-89845720D01*
X138328056Y-89861296D01*
X138329526Y-89920389D01*
X138331624Y-89977265D01*
X138334314Y-90029973D01*
X138337556Y-90076563D01*
X138341314Y-90115085D01*
X138341582Y-90117320D01*
X138367056Y-90286852D01*
X138401728Y-90452074D01*
X138445629Y-90613062D01*
X138498792Y-90769888D01*
X138561249Y-90922626D01*
X138633030Y-91071350D01*
X138714169Y-91216134D01*
X138804697Y-91357052D01*
X138904646Y-91494178D01*
X138972157Y-91578282D01*
X138997254Y-91607266D01*
X139028460Y-91641436D01*
X139064254Y-91679272D01*
X139103116Y-91719253D01*
X139143523Y-91759857D01*
X139183955Y-91799562D01*
X139222890Y-91836849D01*
X139258808Y-91870195D01*
X139290186Y-91898080D01*
X139301798Y-91907923D01*
X139418126Y-92000237D01*
X139535135Y-92083925D01*
X139654986Y-92160414D01*
X139779836Y-92231130D01*
X139832940Y-92258770D01*
X139978201Y-92327483D01*
X140125453Y-92386924D01*
X140275545Y-92437350D01*
X140429324Y-92479016D01*
X140587640Y-92512177D01*
X140751342Y-92537089D01*
X140762760Y-92538498D01*
X140800674Y-92542289D01*
X140846787Y-92545567D01*
X140899148Y-92548295D01*
X140955806Y-92550434D01*
X141014812Y-92551946D01*
X141074215Y-92552794D01*
X141132065Y-92552938D01*
X141186411Y-92552342D01*
X141186411Y-92552342D01*
G37*
X141186411Y-92552342D02*
X141235303Y-92550966D01*
X141276791Y-92548773D01*
X141279248Y-92548596D01*
X141445730Y-92531383D01*
X141609856Y-92504381D01*
X141771263Y-92467764D01*
X141929589Y-92421703D01*
X142084470Y-92366372D01*
X142235545Y-92301944D01*
X142382451Y-92228590D01*
X142524824Y-92146485D01*
X142662304Y-92055801D01*
X142794526Y-91956710D01*
X142921128Y-91849386D01*
X143041748Y-91734001D01*
X143086488Y-91687494D01*
X143197388Y-91562198D01*
X143299852Y-91431320D01*
X143393766Y-91295106D01*
X143479014Y-91153803D01*
X143555485Y-91007656D01*
X143623064Y-90856909D01*
X143681637Y-90701810D01*
X143731090Y-90542604D01*
X143771310Y-90379535D01*
X143802184Y-90212851D01*
X143816027Y-90112420D01*
X143818688Y-90084386D01*
X143821056Y-90047842D01*
X143823107Y-90004435D01*
X143824818Y-89955812D01*
X143826168Y-89903621D01*
X143827131Y-89849507D01*
X143827687Y-89795119D01*
X143827810Y-89742102D01*
X143827479Y-89692103D01*
X143826671Y-89646771D01*
X143825362Y-89607750D01*
X143823529Y-89576689D01*
X143823521Y-89576591D01*
X143805425Y-89412262D01*
X143777523Y-89250053D01*
X143740024Y-89090364D01*
X143693137Y-88933595D01*
X143637068Y-88780147D01*
X143572026Y-88630420D01*
X143498220Y-88484814D01*
X143415858Y-88343729D01*
X143325147Y-88207567D01*
X143226295Y-88076727D01*
X143119512Y-87951609D01*
X143005005Y-87832615D01*
X142882982Y-87720144D01*
X142838827Y-87682635D01*
X142707339Y-87579836D01*
X142570556Y-87485630D01*
X142428820Y-87400156D01*
X142282475Y-87323556D01*
X142131863Y-87255970D01*
X141977328Y-87197538D01*
X141819213Y-87148401D01*
X141657861Y-87108700D01*
X141493615Y-87078575D01*
X141326818Y-87058166D01*
X141311220Y-87056770D01*
X141279605Y-87054579D01*
X141240273Y-87052717D01*
X141195337Y-87051209D01*
X141146909Y-87050084D01*
X141097102Y-87049366D01*
X141048029Y-87049083D01*
X141001802Y-87049260D01*
X140960534Y-87049924D01*
X140926338Y-87051101D01*
X140913694Y-87051813D01*
X140744062Y-87067958D01*
X140577378Y-87093692D01*
X140413908Y-87128901D01*
X140253916Y-87173471D01*
X140097667Y-87227288D01*
X139945427Y-87290237D01*
X139797461Y-87362204D01*
X139654033Y-87443075D01*
X139515408Y-87532735D01*
X139381852Y-87631071D01*
X139253630Y-87737969D01*
X139192269Y-87793964D01*
X139073879Y-87912133D01*
X138963479Y-88036429D01*
X138861241Y-88166490D01*
X138767338Y-88301952D01*
X138681943Y-88442454D01*
X138605229Y-88587631D01*
X138537370Y-88737120D01*
X138478537Y-88890559D01*
X138428904Y-89047584D01*
X138388644Y-89207832D01*
X138357930Y-89370940D01*
X138336935Y-89536546D01*
X138331484Y-89600832D01*
X138329235Y-89641757D01*
X138327806Y-89690216D01*
X138327158Y-89744259D01*
X138327254Y-89801935D01*
X138327845Y-89845720D01*
X140010866Y-89845720D01*
X140011087Y-89785133D01*
X140011800Y-89732745D01*
X140013154Y-89686602D01*
X140015296Y-89644751D01*
X140018376Y-89605237D01*
X140022541Y-89566105D01*
X140027939Y-89525402D01*
X140034719Y-89481173D01*
X140041683Y-89439320D01*
X140066321Y-89314233D01*
X140098172Y-89184216D01*
X140136644Y-89050845D01*
X140181146Y-88915694D01*
X140231085Y-88780340D01*
X140285869Y-88646356D01*
X140344907Y-88515317D01*
X140407605Y-88388799D01*
X140473373Y-88268377D01*
X140497138Y-88227740D01*
X140522850Y-88185850D01*
X140547392Y-88148930D01*
X140572458Y-88114837D01*
X140599739Y-88081423D01*
X140630927Y-88046545D01*
X140667714Y-88008056D01*
X140681237Y-87994332D01*
X140749539Y-87927937D01*
X140815032Y-87869661D01*
X140879180Y-87818406D01*
X140943445Y-87773073D01*
X141009292Y-87732564D01*
X141078183Y-87695780D01*
X141080625Y-87694568D01*
X141147865Y-87663369D01*
X141215523Y-87636409D01*
X141284818Y-87613426D01*
X141356972Y-87594159D01*
X141433208Y-87578347D01*
X141514746Y-87565729D01*
X141602807Y-87556045D01*
X141698614Y-87549032D01*
X141779301Y-87545257D01*
X141793468Y-87545935D01*
X141814174Y-87548395D01*
X141838042Y-87552195D01*
X141851346Y-87554705D01*
X141957126Y-87581031D01*
X142061227Y-87617276D01*
X142163740Y-87663480D01*
X142264759Y-87719684D01*
X142343715Y-87771285D01*
X142379948Y-87797557D01*
X142420856Y-87828952D01*
X142465005Y-87864236D01*
X142510964Y-87902174D01*
X142557299Y-87941533D01*
X142602577Y-87981079D01*
X142645365Y-88019577D01*
X142684230Y-88055793D01*
X142717740Y-88088494D01*
X142744357Y-88116331D01*
X142794078Y-88173429D01*
X142843026Y-88234167D01*
X142890342Y-88297228D01*
X142935168Y-88361298D01*
X142976646Y-88425061D01*
X143013916Y-88487200D01*
X143046120Y-88546400D01*
X143072399Y-88601346D01*
X143090547Y-88646840D01*
X143102166Y-88683317D01*
X143108669Y-88713080D01*
X143110291Y-88738054D01*
X143107266Y-88760162D01*
X143105229Y-88767345D01*
X143096899Y-88800817D01*
X143090174Y-88844150D01*
X143085045Y-88897418D01*
X143083557Y-88919520D01*
X143081914Y-88942715D01*
X143080091Y-88962173D01*
X143078327Y-88975646D01*
X143077048Y-88980721D01*
X143070985Y-88984909D01*
X143058461Y-88991184D01*
X143046213Y-88996506D01*
X143010191Y-89014195D01*
X142980050Y-89035889D01*
X142955055Y-89062667D01*
X142934472Y-89095604D01*
X142917567Y-89135779D01*
X142903606Y-89184267D01*
X142896731Y-89215800D01*
X142888109Y-89270016D01*
X142881872Y-89332701D01*
X142878003Y-89402453D01*
X142876488Y-89477869D01*
X142877310Y-89557547D01*
X142880454Y-89640083D01*
X142885904Y-89724076D01*
X142893644Y-89808122D01*
X142903658Y-89890819D01*
X142904391Y-89896143D01*
X142912683Y-89947379D01*
X142923851Y-90001477D01*
X142938299Y-90060119D01*
X142956436Y-90124988D01*
X142972507Y-90178106D01*
X142983001Y-90213404D01*
X142989749Y-90239777D01*
X142992856Y-90257702D01*
X142992630Y-90267006D01*
X142991992Y-90274183D01*
X142991273Y-90290661D01*
X142990490Y-90315578D01*
X142989662Y-90348074D01*
X142988807Y-90387292D01*
X142987943Y-90432369D01*
X142987087Y-90482447D01*
X142986258Y-90536665D01*
X142985474Y-90594164D01*
X142985024Y-90630580D01*
X142984099Y-90705134D01*
X142983178Y-90770564D01*
X142982209Y-90827906D01*
X142981143Y-90878198D01*
X142979928Y-90922475D01*
X142978514Y-90961772D01*
X142976851Y-90997128D01*
X142974886Y-91029578D01*
X142972570Y-91060157D01*
X142969853Y-91089903D01*
X142966682Y-91119852D01*
X142963009Y-91151039D01*
X142958781Y-91184502D01*
X142957415Y-91195005D01*
X142948450Y-91257467D01*
X142937637Y-91322818D01*
X142925663Y-91387228D01*
X142913216Y-91446869D01*
X142908201Y-91468780D01*
X142902194Y-91494260D01*
X142896859Y-91516922D01*
X142892719Y-91534535D01*
X142890300Y-91544865D01*
X142890099Y-91545727D01*
X142884514Y-91555404D01*
X142871770Y-91569860D01*
X142853059Y-91588088D01*
X142829573Y-91609080D01*
X142802505Y-91631830D01*
X142773047Y-91655329D01*
X142742391Y-91678570D01*
X142711729Y-91700546D01*
X142687900Y-91716602D01*
X142594663Y-91771439D01*
X142495366Y-91818335D01*
X142389885Y-91857335D01*
X142278099Y-91888485D01*
X142159885Y-91911827D01*
X142149420Y-91913471D01*
X142104797Y-91919006D01*
X142052546Y-91923267D01*
X141995123Y-91926211D01*
X141934984Y-91927792D01*
X141874587Y-91927964D01*
X141816389Y-91926684D01*
X141762846Y-91923906D01*
X141730320Y-91921136D01*
X141593305Y-91903124D01*
X141461889Y-91877752D01*
X141336374Y-91845137D01*
X141217065Y-91805393D01*
X141104262Y-91758638D01*
X140998270Y-91704986D01*
X140899391Y-91644553D01*
X140807928Y-91577456D01*
X140787307Y-91560535D01*
X140754118Y-91531516D01*
X140721726Y-91500572D01*
X140688635Y-91466130D01*
X140653349Y-91426622D01*
X140614372Y-91380476D01*
X140605517Y-91369720D01*
X140501906Y-91237268D01*
X140408379Y-91104813D01*
X140324858Y-90972203D01*
X140251268Y-90839284D01*
X140187533Y-90705902D01*
X140133577Y-90571902D01*
X140089324Y-90437133D01*
X140054697Y-90301439D01*
X140039339Y-90224180D01*
X140031862Y-90181036D01*
X140025787Y-90142439D01*
X140020975Y-90106548D01*
X140017287Y-90071523D01*
X140014585Y-90035523D01*
X140012730Y-89996709D01*
X140011585Y-89953238D01*
X140011009Y-89903271D01*
X140010866Y-89845720D01*
X138327845Y-89845720D01*
X138328056Y-89861296D01*
X138329526Y-89920389D01*
X138331624Y-89977265D01*
X138334314Y-90029973D01*
X138337556Y-90076563D01*
X138341314Y-90115085D01*
X138341582Y-90117320D01*
X138367056Y-90286852D01*
X138401728Y-90452074D01*
X138445629Y-90613062D01*
X138498792Y-90769888D01*
X138561249Y-90922626D01*
X138633030Y-91071350D01*
X138714169Y-91216134D01*
X138804697Y-91357052D01*
X138904646Y-91494178D01*
X138972157Y-91578282D01*
X138997254Y-91607266D01*
X139028460Y-91641436D01*
X139064254Y-91679272D01*
X139103116Y-91719253D01*
X139143523Y-91759857D01*
X139183955Y-91799562D01*
X139222890Y-91836849D01*
X139258808Y-91870195D01*
X139290186Y-91898080D01*
X139301798Y-91907923D01*
X139418126Y-92000237D01*
X139535135Y-92083925D01*
X139654986Y-92160414D01*
X139779836Y-92231130D01*
X139832940Y-92258770D01*
X139978201Y-92327483D01*
X140125453Y-92386924D01*
X140275545Y-92437350D01*
X140429324Y-92479016D01*
X140587640Y-92512177D01*
X140751342Y-92537089D01*
X140762760Y-92538498D01*
X140800674Y-92542289D01*
X140846787Y-92545567D01*
X140899148Y-92548295D01*
X140955806Y-92550434D01*
X141014812Y-92551946D01*
X141074215Y-92552794D01*
X141132065Y-92552938D01*
X141186411Y-92552342D01*
G36*
X143253201Y-90570262D02*
G01*
X143273348Y-90568035D01*
X143290863Y-90564436D01*
X143306188Y-90558692D01*
X143319766Y-90550029D01*
X143332039Y-90537676D01*
X143343450Y-90520860D01*
X143354440Y-90498807D01*
X143365453Y-90470745D01*
X143376931Y-90435901D01*
X143389316Y-90393502D01*
X143403050Y-90342775D01*
X143418577Y-90282948D01*
X143419299Y-90280133D01*
X143436506Y-90207526D01*
X143450540Y-90135724D01*
X143461689Y-90062557D01*
X143470238Y-89985850D01*
X143476474Y-89903431D01*
X143480609Y-89815240D01*
X143481717Y-89781595D01*
X143482222Y-89755475D01*
X143481933Y-89734251D01*
X143480658Y-89715297D01*
X143478208Y-89695986D01*
X143474391Y-89673691D01*
X143469016Y-89645783D01*
X143467872Y-89639980D01*
X143451391Y-89561289D01*
X143433865Y-89486594D01*
X143415546Y-89416661D01*
X143396687Y-89352259D01*
X143377541Y-89294155D01*
X143358359Y-89243118D01*
X143339394Y-89199915D01*
X143320900Y-89165314D01*
X143303657Y-89140707D01*
X143292953Y-89127251D01*
X143278677Y-89108283D01*
X143262975Y-89086689D01*
X143252487Y-89071848D01*
X143226986Y-89037725D01*
X143203222Y-89010799D01*
X143181922Y-88991816D01*
X143164823Y-88981894D01*
X143152848Y-88979302D01*
X143135149Y-88977642D01*
X143120639Y-88977288D01*
X143104049Y-88978134D01*
X143088769Y-88980976D01*
X143071746Y-88986697D01*
X143049929Y-88996182D01*
X143040960Y-89000382D01*
X143018192Y-89012106D01*
X142996706Y-89024819D01*
X142979652Y-89036582D01*
X142973199Y-89042045D01*
X142950298Y-89070290D01*
X142930228Y-89108117D01*
X142912972Y-89155580D01*
X142898507Y-89212731D01*
X142889959Y-89258980D01*
X142887442Y-89276236D01*
X142885422Y-89294413D01*
X142883848Y-89314826D01*
X142882672Y-89338792D01*
X142881843Y-89367625D01*
X142881312Y-89402641D01*
X142881029Y-89445156D01*
X142880945Y-89496484D01*
X142880945Y-89497740D01*
X142881068Y-89554222D01*
X142881514Y-89602569D01*
X142882403Y-89644808D01*
X142883857Y-89682963D01*
X142885997Y-89719058D01*
X142888942Y-89755118D01*
X142892814Y-89793167D01*
X142897734Y-89835231D01*
X142903823Y-89883333D01*
X142904068Y-89885222D01*
X142913126Y-89942246D01*
X142925976Y-90004701D01*
X142942031Y-90070699D01*
X142960706Y-90138352D01*
X142981413Y-90205773D01*
X143003565Y-90271073D01*
X143026577Y-90332365D01*
X143049862Y-90387761D01*
X143072832Y-90435374D01*
X143078030Y-90445063D01*
X143105897Y-90489165D01*
X143136983Y-90526483D01*
X143137588Y-90527104D01*
X143160380Y-90548381D01*
X143181068Y-90562098D01*
X143202763Y-90569417D01*
X143228575Y-90571498D01*
X143253201Y-90570262D01*
X143253201Y-90570262D01*
G37*
X143253201Y-90570262D02*
X143273348Y-90568035D01*
X143290863Y-90564436D01*
X143306188Y-90558692D01*
X143319766Y-90550029D01*
X143332039Y-90537676D01*
X143343450Y-90520860D01*
X143354440Y-90498807D01*
X143365453Y-90470745D01*
X143376931Y-90435901D01*
X143389316Y-90393502D01*
X143403050Y-90342775D01*
X143418577Y-90282948D01*
X143419299Y-90280133D01*
X143436506Y-90207526D01*
X143450540Y-90135724D01*
X143461689Y-90062557D01*
X143470238Y-89985850D01*
X143476474Y-89903431D01*
X143480609Y-89815240D01*
X143481717Y-89781595D01*
X143482222Y-89755475D01*
X143481933Y-89734251D01*
X143480658Y-89715297D01*
X143478208Y-89695986D01*
X143474391Y-89673691D01*
X143469016Y-89645783D01*
X143467872Y-89639980D01*
X143451391Y-89561289D01*
X143433865Y-89486594D01*
X143415546Y-89416661D01*
X143396687Y-89352259D01*
X143377541Y-89294155D01*
X143358359Y-89243118D01*
X143339394Y-89199915D01*
X143320900Y-89165314D01*
X143303657Y-89140707D01*
X143292953Y-89127251D01*
X143278677Y-89108283D01*
X143262975Y-89086689D01*
X143252487Y-89071848D01*
X143226986Y-89037725D01*
X143203222Y-89010799D01*
X143181922Y-88991816D01*
X143164823Y-88981894D01*
X143152848Y-88979302D01*
X143135149Y-88977642D01*
X143120639Y-88977288D01*
X143104049Y-88978134D01*
X143088769Y-88980976D01*
X143071746Y-88986697D01*
X143049929Y-88996182D01*
X143040960Y-89000382D01*
X143018192Y-89012106D01*
X142996706Y-89024819D01*
X142979652Y-89036582D01*
X142973199Y-89042045D01*
X142950298Y-89070290D01*
X142930228Y-89108117D01*
X142912972Y-89155580D01*
X142898507Y-89212731D01*
X142889959Y-89258980D01*
X142887442Y-89276236D01*
X142885422Y-89294413D01*
X142883848Y-89314826D01*
X142882672Y-89338792D01*
X142881843Y-89367625D01*
X142881312Y-89402641D01*
X142881029Y-89445156D01*
X142880945Y-89496484D01*
X142880945Y-89497740D01*
X142881068Y-89554222D01*
X142881514Y-89602569D01*
X142882403Y-89644808D01*
X142883857Y-89682963D01*
X142885997Y-89719058D01*
X142888942Y-89755118D01*
X142892814Y-89793167D01*
X142897734Y-89835231D01*
X142903823Y-89883333D01*
X142904068Y-89885222D01*
X142913126Y-89942246D01*
X142925976Y-90004701D01*
X142942031Y-90070699D01*
X142960706Y-90138352D01*
X142981413Y-90205773D01*
X143003565Y-90271073D01*
X143026577Y-90332365D01*
X143049862Y-90387761D01*
X143072832Y-90435374D01*
X143078030Y-90445063D01*
X143105897Y-90489165D01*
X143136983Y-90526483D01*
X143137588Y-90527104D01*
X143160380Y-90548381D01*
X143181068Y-90562098D01*
X143202763Y-90569417D01*
X143228575Y-90571498D01*
X143253201Y-90570262D01*
D12*
X132465000Y-82385000D02*
X132465000Y-84885000D01*
X132465000Y-84885000D02*
X133515000Y-84885000D01*
X133515000Y-84885000D02*
X133515000Y-85875000D01*
X139685000Y-82385000D02*
X139685000Y-84885000D01*
X139685000Y-84885000D02*
X138635000Y-84885000D01*
X133635000Y-80415000D02*
X138515000Y-80415000D01*
X143175000Y-81735000D02*
X140890000Y-81735000D01*
X140890000Y-81735000D02*
X140890000Y-80265000D01*
X140890000Y-80265000D02*
X143175000Y-80265000D01*
D13*
X143325000Y-84090000D02*
G75*
G03X143325000Y-84090000I-50000J0D01*
G01*
M02*
